<?xml version="1.0" standalone="no"?>
<!DOCTYPE svg PUBLIC "-//W3C//DTD SVG 20010904//EN"
 "http://www.w3.org/TR/2001/REC-SVG-20010904/DTD/svg10.dtd">
<svg version="1.0" xmlns="http://www.w3.org/2000/svg"
 width="1080.000000pt" height="1080.000000pt" viewBox="0 0 1080.000000 1080.000000"
 preserveAspectRatio="xMidYMid meet">

<g transform="translate(0.000000,1080.000000) scale(0.100000,-0.100000)"
fill="#000000" stroke="none">
<path d="M0 5400 l0 -5400 5400 0 5400 0 0 5400 0 5400 -5400 0 -5400 0 0
-5400z m5568 2820 c1188 -73 2197 -874 2543 -2020 16 -52 29 -98 29 -102 0 -3
-29 -27 -65 -52 -43 -30 -67 -41 -70 -33 -2 6 -11 40 -20 73 -8 34 -33 113
-54 175 -99 285 -220 512 -408 763 -96 128 -378 409 -506 505 -395 295 -826
468 -1312 526 -172 21 -531 16 -695 -10 -1043 -162 -1889 -902 -2180 -1907
-136 -472 -138 -981 -6 -1459 89 -321 263 -666 471 -929 36 -46 62 -87 58 -91
-5 -3 -37 -16 -73 -28 l-65 -22 -34 38 c-126 143 -300 442 -399 683 -142 351
-205 676 -206 1065 -1 455 89 841 289 1250 447 911 1349 1513 2360 1574 185
11 175 11 343 1z m4193 -351 c163 -25 298 -95 357 -185 47 -69 55 -105 50
-213 -4 -84 -9 -109 -45 -196 -22 -55 -43 -122 -47 -149 -19 -127 -104 -328
-201 -475 -65 -99 -200 -238 -307 -319 -85 -63 -97 -79 -89 -125 3 -20 -32
-161 -51 -204 -75 -171 -243 -316 -454 -393 -157 -58 -182 -50 -112 32 93 109
158 240 173 345 9 67 0 82 -42 71 -23 -6 -30 -13 -26 -26 3 -13 -8 -29 -32
-50 -19 -18 -39 -32 -44 -32 -4 0 -18 11 -31 25 -13 14 -28 25 -33 25 -5 0
-27 -16 -49 -35 -25 -20 -46 -32 -54 -27 -14 8 -171 189 -184 213 -7 13 1 26
36 58 l45 42 -21 26 c-11 14 -20 31 -20 38 0 23 70 76 90 70 14 -4 23 2 34 23
l15 30 -45 11 c-88 22 -217 -9 -373 -90 -120 -63 -131 -56 -77 45 93 178 227
319 364 386 114 56 249 80 347 61 l49 -9 76 72 c138 133 262 214 431 281 134
54 266 84 402 92 l118 6 -27 28 -26 27 18 69 c23 92 14 136 -37 185 -172 164
-788 118 -1661 -123 -208 -57 -219 -59 -248 -44 -36 19 -50 43 -50 88 0 63 17
73 245 136 462 129 801 194 1175 225 68 6 288 -3 361 -15z m-1277 -1587 c8
-13 -6 -29 -104 -111 -85 -71 -127 -91 -118 -56 4 16 189 174 205 175 6 0 14
-4 17 -8z m6 -185 c0 -16 -183 -172 -202 -172 -32 0 -7 35 77 107 86 74 125
94 125 65z m87 -104 c2 -6 -34 -44 -81 -85 -47 -40 -86 -76 -86 -80 0 -9 50
-68 58 -68 4 0 44 32 90 71 74 63 112 80 112 51 0 -11 -175 -161 -197 -169
-10 -3 -83 -50 -163 -103 -1776 -1188 -4235 -2336 -5945 -2775 -858 -221
-1407 -230 -1628 -26 -102 94 -133 231 -87 383 96 320 502 759 1170 1267 289
220 300 225 359 175 31 -26 40 -68 25 -109 -4 -9 -79 -71 -168 -137 -346 -260
-566 -446 -786 -667 -200 -200 -306 -335 -379 -479 -87 -173 -71 -277 52 -335
91 -43 156 -52 372 -51 215 0 318 11 600 65 1287 245 3335 1092 5155 2132 393
225 793 472 1163 719 81 54 151 96 156 94 4 -3 48 28 97 69 85 72 103 82 111
58z m270 -139 c4 -12 -192 -179 -210 -179 -32 0 -3 40 83 114 89 76 118 91
127 65z m-627 -688 c0 -46 -35 -270 -60 -384 -34 -157 -110 -388 -173 -527
l-45 -100 -85 -3 -85 -3 58 128 c104 230 171 445 211 683 11 69 23 127 25 130
10 10 139 89 147 90 4 0 7 -7 7 -14z m-1091 -2006 c-371 -291 -840 -489 -1339
-567 -165 -26 -617 -26 -780 0 -351 55 -655 156 -946 314 -66 36 -131 73 -144
83 l-24 18 35 14 c18 8 57 23 85 33 l51 18 154 -76 c658 -323 1370 -365 2079
-122 135 46 417 185 545 269 l100 66 124 0 125 0 -65 -50z"/>
<path d="M9808 7241 c-58 -8 -62 -12 -54 -54 15 -81 118 -198 198 -226 23 -8
30 -7 37 8 15 27 51 170 58 229 l6 52 -99 -1 c-55 -1 -120 -5 -146 -8z"/>
<path d="M9608 7195 c-358 -110 -640 -361 -837 -745 -28 -54 -51 -103 -51
-109 0 -5 47 -66 105 -134 l106 -124 62 18 c320 91 569 240 757 454 74 84 166
229 205 323 14 32 14 32 -22 47 -100 42 -180 132 -211 237 -9 32 -21 58 -27
57 -5 0 -45 -11 -87 -24z m-89 -299 c36 -19 89 -80 97 -112 11 -42 -2 -124
-23 -152 -83 -112 -243 -105 -310 13 -67 119 18 265 155 265 29 0 66 -7 81
-14z"/>
<path d="M9365 6850 c-88 -58 -84 -184 7 -240 39 -23 76 -25 121 -6 105 45
118 187 22 246 -42 26 -111 26 -150 0z"/>
<path d="M8815 6814 c-181 -24 -325 -107 -442 -255 -52 -66 -110 -159 -99
-159 4 0 35 13 71 29 35 16 90 37 121 46 63 18 191 25 241 12 31 -8 32 -7 69
60 45 80 117 187 152 225 14 15 23 30 20 33 -8 8 -97 14 -133 9z"/>
<path d="M8641 6326 c-11 -14 3 -35 115 -168 70 -84 129 -155 131 -157 2 -3
11 2 20 11 15 15 8 26 -81 132 -171 202 -170 201 -185 182z"/>
<path d="M9351 6196 c-40 -21 -118 -55 -173 -76 l-100 -38 -3 -73 c-5 -110
-45 -209 -133 -331 -18 -27 -32 -48 -30 -48 3 0 33 12 69 26 174 71 320 192
387 322 43 83 66 167 60 222 l-3 35 -74 -39z"/>
<path d="M8617 6192 c-15 -16 -27 -31 -27 -35 0 -4 32 -45 71 -92 l72 -84 33
26 c19 14 34 28 34 30 0 6 -139 171 -150 178 -4 2 -19 -8 -33 -23z"/>
</g>
</svg>
