<?xml version="1.0" standalone="no"?>
<!DOCTYPE svg PUBLIC "-//W3C//DTD SVG 20010904//EN"
 "http://www.w3.org/TR/2001/REC-SVG-20010904/DTD/svg10.dtd">
<svg version="1.0" xmlns="http://www.w3.org/2000/svg"
 width="1080.000000pt" height="1080.000000pt" viewBox="0 0 1080.000000 1080.000000"
 preserveAspectRatio="xMidYMid meet">

<g transform="translate(0.000000,1080.000000) scale(0.100000,-0.100000)"
fill="#000000" stroke="none">
<path d="M5225 8220 c-586 -37 -1125 -246 -1595 -619 -123 -97 -336 -310 -434
-432 -234 -295 -421 -658 -520 -1014 -195 -696 -108 -1475 235 -2100 69 -126
210 -340 266 -403 l38 -43 65 22 c36 12 68 25 73 28 4 4 -21 44 -56 88 -205
260 -379 602 -471 923 -113 400 -130 856 -46 1266 96 467 327 919 644 1261
527 569 1214 873 1976 873 494 0 952 -126 1376 -379 328 -195 663 -521 877
-853 141 -218 274 -520 332 -752 9 -33 18 -67 20 -73 3 -8 27 3 70 33 36 25
65 49 65 52 0 4 -13 50 -29 102 -204 676 -638 1240 -1242 1613 -481 297 -1073
444 -1644 407z"/>
<path d="M9344 7880 c-321 -27 -749 -113 -1189 -239 -153 -44 -175 -59 -175
-118 0 -45 14 -69 51 -88 29 -15 37 -14 192 29 463 129 796 197 1112 226 292
27 518 -6 604 -88 51 -49 60 -93 37 -185 l-18 -69 26 -27 27 -28 -118 -6
c-136 -8 -268 -38 -402 -92 -169 -67 -293 -148 -431 -281 l-76 -72 -49 10
c-143 27 -340 -33 -479 -148 -73 -61 -175 -192 -232 -299 -54 -102 -43 -109
77 -46 156 81 285 112 373 90 l45 -11 -15 -30 c-11 -21 -20 -27 -34 -23 -20 6
-90 -47 -90 -70 0 -7 9 -24 20 -38 l21 -26 -45 -42 c-35 -32 -43 -45 -36 -58
13 -24 170 -205 184 -213 8 -5 29 7 54 27 22 19 44 35 49 35 5 0 20 -11 33
-25 13 -14 27 -25 31 -25 5 0 25 14 44 32 24 21 35 37 32 50 -4 13 3 20 26 26
42 11 51 -4 42 -71 -15 -105 -80 -236 -172 -344 -71 -83 -43 -91 110 -34 214
80 380 224 455 394 19 43 54 184 51 204 -8 46 4 62 89 125 107 81 242 220 307
319 97 147 182 348 201 475 4 27 25 94 47 149 36 87 41 112 45 196 5 108 -4
144 -49 213 -58 87 -175 151 -328 180 -99 19 -319 27 -447 16z m703 -682 c-7
-59 -43 -202 -58 -229 -32 -60 -215 110 -235 218 -4 19 -3 37 0 41 11 10 95
19 200 21 l99 1 -6 -52z m-325 -36 c31 -105 111 -195 211 -237 36 -15 36 -15
22 -47 -39 -94 -131 -239 -205 -323 -188 -214 -437 -363 -757 -454 l-62 -18
-106 124 c-58 68 -105 129 -105 134 0 6 23 55 51 109 171 333 402 563 697 694
57 25 204 74 227 75 6 1 18 -25 27 -57z m-773 -358 c3 -2 -7 -17 -21 -32 -35
-38 -107 -145 -152 -225 -37 -67 -38 -68 -69 -60 -50 13 -178 6 -241 -12 -31
-9 -86 -30 -121 -46 -36 -16 -67 -29 -71 -29 -10 0 48 95 98 158 134 172 344
274 528 255 25 -3 47 -7 49 -9z m-123 -660 c89 -106 96 -117 81 -132 -9 -9
-18 -14 -20 -11 -2 2 -61 73 -131 157 -112 133 -126 154 -115 168 15 19 14 20
185 -182z m594 -34 c-41 -186 -210 -361 -439 -454 -36 -14 -66 -26 -69 -26 -2
0 12 21 30 48 88 122 128 221 133 331 l3 73 100 38 c55 21 133 55 173 76 l74
39 3 -35 c2 -19 -2 -60 -8 -90z m-691 16 c39 -46 71 -86 71 -89 0 -2 -15 -16
-34 -30 l-33 -26 -72 84 c-39 47 -71 88 -71 92 0 12 53 63 60 58 4 -3 40 -42
79 -89z"/>
<path d="M9355 6891 c-92 -57 -122 -159 -72 -246 67 -118 227 -125 310 -13 21
28 34 110 23 152 -8 32 -61 93 -97 112 -40 20 -127 18 -164 -5z m160 -41 c96
-59 83 -201 -22 -246 -45 -19 -82 -17 -121 6 -123 75 -76 260 67 260 26 0 56
-8 76 -20z"/>
<path d="M4015 7188 c-2 -7 -145 -626 -318 -1375 l-313 -1363 603 0 c332 0
603 1 603 3 0 3 113 499 135 595 l5 22 -276 0 -276 0 5 23 c4 12 29 121 57
242 28 121 55 223 59 227 3 4 117 9 251 10 l244 3 68 295 c37 162 67 298 68
303 0 4 -110 7 -245 7 -190 0 -245 3 -245 13 1 6 20 95 44 197 l43 185 261 3
c144 1 262 5 262 7 0 8 130 577 136 598 5 16 -27 17 -581 17 -459 0 -587 -3
-590 -12z m1025 -115 c0 -10 -19 -100 -42 -200 l-42 -183 -260 -2 -260 -3 -66
-285 c-36 -157 -69 -297 -73 -312 l-7 -28 250 0 c235 0 251 -1 246 -17 -3 -10
-21 -88 -41 -173 -20 -85 -38 -163 -41 -172 -5 -17 -26 -18 -253 -18 l-247 0
-78 -337 c-44 -186 -81 -348 -84 -360 l-4 -23 277 0 c259 0 276 -1 271 -17 -6
-20 -86 -372 -86 -379 0 -2 -218 -4 -485 -4 -327 0 -485 3 -485 10 0 11 567
2484 575 2508 3 9 106 12 470 12 436 0 465 -1 465 -17z"/>
<path d="M6404 6702 c-152 -45 -253 -142 -318 -305 -15 -37 -70 -255 -124
-485 -91 -391 -97 -424 -97 -527 0 -96 3 -116 24 -158 63 -128 207 -186 392
-158 205 32 355 179 422 413 9 29 57 233 108 453 97 425 108 503 80 598 -18
63 -78 129 -143 158 -73 32 -253 37 -344 11z m290 -63 c21 -6 57 -28 81 -50
53 -49 70 -102 62 -197 -4 -59 -133 -642 -189 -857 -55 -211 -171 -348 -330
-391 -111 -29 -255 -10 -316 41 -16 14 -39 48 -52 77 -39 91 -28 179 79 643
115 496 137 555 241 649 102 92 276 127 424 85z"/>
<path d="M6466 6429 c-34 -9 -63 -35 -81 -69 -21 -41 -208 -861 -209 -914 0
-41 4 -52 29 -73 56 -49 138 -14 170 71 26 68 205 856 205 901 0 69 -47 104
-114 84z m46 -101 c-5 -66 -191 -849 -209 -879 -22 -38 -63 -41 -63 -5 0 24
181 821 196 861 11 31 47 66 64 62 11 -2 14 -13 12 -39z"/>
<path d="M5280 6703 c0 -5 -9 -176 -20 -381 l-19 -372 -186 -430 c-102 -236
-185 -432 -185 -435 0 -3 87 -5 194 -5 l194 0 77 198 c43 108 80 200 84 204 4
4 1 -68 -6 -160 -6 -92 -12 -184 -12 -204 l-1 -38 190 0 c105 0 190 1 191 3 0
1 6 193 13 427 l13 425 141 340 c77 187 150 361 161 388 l20 47 -192 0 -192 0
-58 -158 -57 -157 5 70 c2 39 8 109 11 158 l7 87 -187 0 c-102 0 -186 -3 -186
-7z m300 -75 c0 -13 -9 -126 -19 -253 -11 -126 -18 -231 -17 -232 1 -2 16 -6
33 -9 l30 -6 88 244 c48 133 92 251 97 261 7 15 24 17 118 17 84 0 110 -3 110
-13 0 -7 -63 -164 -139 -349 l-139 -336 -12 -394 c-6 -216 -13 -399 -15 -405
-3 -10 -37 -13 -125 -13 l-120 0 0 28 c1 15 9 144 19 287 11 143 18 261 17
262 -1 2 -16 6 -33 9 l-30 6 -88 -224 c-48 -122 -100 -254 -115 -293 l-28 -70
-121 -3 c-66 -1 -121 0 -121 4 0 3 76 182 169 398 l168 391 18 350 c9 193 19
353 22 358 2 4 56 7 119 7 112 0 114 0 114 -22z"/>
<path d="M8360 6208 c-52 -44 -96 -86 -98 -93 -9 -35 33 -15 118 56 98 82 112
98 104 111 -11 17 -32 4 -124 -74z"/>
<path d="M8365 6032 c-84 -72 -109 -107 -77 -107 19 0 202 156 202 172 0 29
-39 9 -125 -65z"/>
<path d="M8466 5935 c-49 -41 -93 -72 -98 -69 -4 3 -68 -35 -141 -84 -1158
-781 -2735 -1607 -4152 -2174 -954 -382 -1784 -632 -2425 -729 -196 -30 -532
-33 -630 -6 -217 60 -254 154 -146 372 138 278 525 662 1123 1112 111 84 205
158 208 164 4 5 7 27 7 47 0 28 -7 43 -31 64 -59 53 -68 49 -339 -156 -482
-363 -872 -735 -1053 -1003 -62 -92 -132 -238 -149 -311 -19 -81 -9 -196 22
-257 149 -292 697 -321 1644 -86 1697 422 4204 1587 6004 2791 80 53 153 100
163 103 22 8 197 158 197 169 0 29 -38 12 -112 -51 -46 -39 -86 -71 -90 -71
-8 0 -58 59 -58 68 0 4 39 40 86 80 78 68 94 90 68 99 -5 2 -49 -30 -98 -72z"/>
<path d="M8720 5789 c-86 -74 -115 -114 -83 -114 18 0 214 167 210 179 -9 26
-38 11 -127 -65z"/>
<path d="M8138 5137 c-37 -24 -69 -45 -72 -48 -3 -3 -17 -70 -30 -150 -40
-231 -112 -462 -216 -683 l-49 -106 84 0 85 0 31 68 c69 150 127 316 169 477
44 172 92 485 73 485 -4 0 -38 -20 -75 -43z"/>
<path d="M7041 4088 c-85 -19 -161 -128 -161 -233 0 -50 19 -89 88 -178 44
-57 52 -75 52 -110 0 -57 -19 -92 -50 -92 -22 0 -25 4 -24 35 0 19 4 52 8 73
l8 37 -70 0 -71 0 -11 -37 c-18 -65 -22 -156 -8 -182 25 -47 61 -64 135 -64
78 -1 115 14 160 67 36 40 72 130 80 197 7 58 -23 124 -97 217 -33 42 -50 72
-50 91 0 33 21 54 47 49 14 -3 18 -12 16 -41 l-2 -37 73 0 c83 0 86 3 86 85 0
100 -86 151 -209 123z"/>
<path d="M6166 4073 c-9 -30 -166 -717 -166 -726 0 -5 60 -7 133 -5 124 3 136
5 173 29 63 42 89 103 144 344 53 231 59 280 35 324 -20 41 -61 51 -196 51
-103 0 -118 -2 -123 -17z m180 -127 c10 -26 -93 -449 -113 -463 -21 -16 -53
-17 -53 -2 0 11 81 367 101 442 8 30 14 37 35 37 13 0 27 -6 30 -14z"/>
<path d="M6590 4086 c0 -4 -154 -675 -166 -722 l-6 -24 155 0 154 0 15 68 14
67 -73 5 c-40 3 -74 10 -74 15 -1 6 7 45 17 88 l17 77 72 0 72 0 15 70 15 70
-70 0 -69 0 6 38 c4 20 12 54 17 75 l10 37 74 0 74 0 11 57 c7 32 15 63 17 70
4 10 -28 13 -146 13 -83 0 -151 -2 -151 -4z"/>
<path d="M7296 4025 c-9 -35 -16 -67 -16 -70 0 -3 18 -5 40 -5 32 0 40 -4 40
-18 0 -11 -26 -133 -59 -273 -32 -140 -62 -269 -66 -286 l-7 -33 74 0 74 0 69
303 70 302 46 3 46 3 15 69 15 70 -162 0 -163 0 -16 -65z"/>
<path d="M7665 4078 c-8 -25 -165 -712 -165 -725 0 -9 19 -13 70 -13 39 0 70
3 70 7 0 8 158 699 166 726 5 15 -3 17 -66 17 -47 0 -72 -4 -75 -12z"/>
<path d="M7781 3728 c-46 -200 -86 -369 -88 -375 -4 -10 14 -13 69 -13 l74 0
38 168 c21 92 41 169 43 172 3 3 3 -73 1 -167 l-4 -173 73 0 c40 0 73 3 73 6
0 7 159 699 167 727 4 16 -2 18 -68 15 l-72 -3 -38 -164 c-22 -90 -41 -166
-43 -169 -3 -2 -3 29 0 70 2 40 6 117 8 171 l4 97 -77 0 -77 0 -83 -362z"/>
<path d="M8280 4086 c0 -3 -146 -642 -165 -724 -5 -22 -4 -23 66 -20 l72 3 83
360 c46 198 84 366 84 373 0 8 -21 12 -70 12 -38 0 -70 -2 -70 -4z"/>
<path d="M8440 4033 c-7 -32 -15 -64 -17 -70 -4 -9 8 -13 42 -13 39 0 46 -3
41 -17 -2 -10 -32 -139 -66 -288 -33 -148 -63 -278 -66 -287 -5 -16 3 -18 69
-18 l75 0 26 113 c14 61 45 198 70 302 l43 190 46 3 46 3 12 57 c6 31 14 62
16 69 4 10 -30 13 -159 13 l-165 0 -13 -57z"/>
<path d="M8790 3833 c-1 -248 -2 -262 -29 -376 l-28 -118 70 3 71 3 28 121
c23 103 44 156 143 367 63 135 115 249 115 252 0 3 -32 5 -71 3 l-71 -3 -49
-120 -49 -120 6 123 6 122 -71 0 -71 0 0 -257z"/>
<path d="M6840 3144 c-426 -286 -980 -438 -1525 -421 -399 13 -734 98 -1104
280 l-143 71 -48 -17 c-26 -9 -64 -24 -85 -33 l-39 -16 24 -18 c42 -31 262
-148 360 -191 211 -91 484 -169 722 -205 159 -24 532 -30 706 -10 344 38 644
127 955 282 176 88 381 219 495 316 l33 28 -128 -1 -128 -1 -95 -64z"/>
</g>
</svg>
