<?xml version="1.0" standalone="no"?>
<!DOCTYPE svg PUBLIC "-//W3C//DTD SVG 20010904//EN"
 "http://www.w3.org/TR/2001/REC-SVG-20010904/DTD/svg10.dtd">
<svg version="1.0" xmlns="http://www.w3.org/2000/svg"
 width="1080.000000pt" height="1080.000000pt" viewBox="0 0 1080.000000 1080.000000"
 preserveAspectRatio="xMidYMid meet">

<g transform="translate(0.000000,1080.000000) scale(0.100000,-0.100000)"
fill="#000000" stroke="none">
<path d="M907 10704 c-4 -4 -7 -63 -7 -131 l0 -124 28 3 27 3 0 125 c0 118 -1
125 -20 128 -12 2 -24 0 -28 -4z"/>
<path d="M1502 10696 c-33 -12 -52 -30 -52 -53 0 -17 41 -16 64 2 14 11 23 12
33 4 21 -18 16 -28 -48 -96 -81 -87 -78 -97 34 -101 87 -3 88 -2 85 20 -3 20
-10 23 -52 26 l-49 3 51 49 c39 37 52 57 52 78 0 52 -62 87 -118 68z"/>
<path d="M1707 10699 c-47 -13 -57 -27 -57 -85 0 -50 2 -55 31 -70 25 -12 37
-14 56 -5 22 10 24 9 21 -11 -3 -26 -41 -37 -62 -19 -16 13 -46 4 -46 -14 0
-23 40 -49 76 -49 24 0 43 8 61 27 23 23 28 37 31 95 4 62 2 71 -22 99 -30 35
-50 43 -89 32z m43 -53 c6 -8 10 -25 8 -38 -2 -17 -10 -23 -28 -23 -18 0 -26
6 -28 23 -3 22 13 52 28 52 4 0 13 -7 20 -14z"/>
<path d="M234 10687 c-2 -7 -3 -62 -2 -123 3 -109 3 -109 28 -109 19 0 26 6
28 25 9 85 22 89 75 20 36 -47 70 -63 90 -44 4 4 -16 36 -44 72 l-51 64 46 47
c25 26 46 50 46 54 0 4 -13 7 -28 7 -20 0 -41 -13 -72 -45 -24 -25 -48 -45
-52 -45 -4 0 -8 20 -8 45 0 41 -2 45 -25 45 -14 0 -28 -6 -31 -13z"/>
<path d="M1887 10689 c-46 -27 -63 -143 -30 -200 25 -42 74 -56 115 -32 75 44
51 153 -34 153 -41 0 -51 17 -23 40 13 10 19 10 33 -4 23 -20 36 -20 51 -2 30
36 -63 73 -112 45z m69 -145 c8 -30 -6 -47 -32 -42 -35 6 -30 68 5 68 14 0 23
-9 27 -26z"/>
<path d="M509 10621 c-57 -57 -29 -163 46 -176 33 -6 101 28 90 45 -8 13 -48
13 -62 -1 -8 -8 -17 -5 -34 13 l-24 23 62 5 c34 3 64 8 68 12 12 11 -15 77
-38 93 -34 24 -75 19 -108 -14z m81 -26 c10 -12 9 -16 -4 -21 -24 -9 -47 3
-40 21 8 19 28 19 44 0z"/>
<path d="M703 10643 c-10 -3 -13 -40 -13 -134 l0 -129 25 0 c22 0 25 4 25 36
0 35 1 36 30 30 60 -11 100 28 100 99 0 73 -46 118 -99 98 -16 -5 -35 -7 -42
-3 -8 4 -20 5 -26 3z m91 -49 c23 -23 21 -86 -4 -101 -16 -11 -21 -9 -35 9
-19 28 -19 58 1 86 18 26 18 26 38 6z"/>
<path d="M1038 10634 c-35 -18 -48 -43 -48 -89 0 -87 89 -133 153 -77 9 8 17
19 17 24 0 11 -41 10 -59 -1 -16 -11 -51 7 -51 26 0 8 21 13 58 15 l57 3 -2
35 c-1 24 -10 42 -28 57 -30 26 -58 28 -97 7z m70 -41 c5 -16 -22 -27 -44 -19
-13 5 -14 9 -4 22 15 17 41 15 48 -3z"/>
<path d="M1210 10642 c-6 -2 -10 -42 -10 -98 l0 -95 28 3 c26 3 27 5 30 70 3
63 4 67 32 77 31 10 35 18 22 37 -6 10 -77 14 -102 6z"/>
<path d="M1330 10545 c0 -23 4 -25 44 -25 43 0 58 11 49 38 -3 7 -22 12 -49
12 -40 0 -44 -2 -44 -25z"/>
<path d="M546 10318 c-5 -21 -5 -46 0 -55 6 -15 8 -13 12 10 2 15 2 39 0 55
-4 25 -5 24 -12 -10z"/>
<path d="M580 10300 c0 -27 5 -50 10 -50 6 0 10 23 10 50 0 28 -4 50 -10 50
-5 0 -10 -22 -10 -50z"/>
<path d="M1486 10342 c-10 -10 -6 -102 4 -102 6 0 10 13 10 28 0 16 3 31 6 35
12 12 34 -6 34 -29 0 -13 5 -24 10 -24 12 0 13 40 1 58 -10 17 -58 42 -65 34z"/>
<path d="M1613 10339 c-12 -12 -7 -67 7 -82 4 -5 10 11 14 34 7 45 -3 66 -21
48z"/>
<path d="M2805 10336 c-11 -6 -23 -15 -27 -21 -5 -7 -14 -6 -27 2 -13 8 -29 9
-54 2 -28 -7 -37 -16 -42 -39 -9 -41 -25 -38 -25 5 0 34 -13 47 -24 23 -3 -9
-8 -8 -16 5 -13 21 -50 23 -50 2 0 -8 6 -12 14 -9 19 7 29 -11 21 -37 -5 -16
-10 -18 -21 -8 -11 9 -14 8 -14 -5 0 -22 36 -21 49 2 9 16 11 16 23 -1 11 -15
21 -17 51 -12 33 6 37 11 37 36 0 40 37 42 42 2 2 -20 8 -27 21 -25 9 2 17 -2
17 -8 0 -6 12 -10 28 -8 24 3 27 7 30 47 4 51 -5 63 -33 47z m10 -66 c-6 -20
-9 -21 -23 -7 -13 13 -13 19 -2 32 17 21 34 4 25 -25z"/>
<path d="M3347 10344 c-9 -9 -9 -78 0 -87 8 -9 32 23 33 44 0 20 -24 52 -33
43z"/>
<path d="M3411 10318 c-8 -18 -19 -36 -24 -39 -6 -4 -7 -15 -3 -25 7 -18 8
-18 17 -2 5 9 16 15 23 12 17 -7 27 51 12 72 -9 12 -13 9 -25 -18z"/>
<path d="M3797 10343 c-4 -3 -7 -17 -7 -30 0 -17 6 -23 23 -23 30 0 40 -10 26
-27 -9 -10 -15 -10 -25 -2 -11 9 -14 8 -14 -5 0 -21 33 -21 65 0 21 13 28 14
40 4 12 -10 19 -10 27 -2 15 15 68 16 68 2 0 -5 4 -10 10 -10 12 0 10 79 -3
87 -5 3 -14 0 -20 -6 -9 -9 -8 -14 3 -21 8 -5 11 -12 7 -17 -5 -4 -13 -1 -18
7 -8 11 -12 12 -16 3 -9 -23 -33 -14 -33 11 0 36 -15 40 -31 8 -7 -15 -14 -29
-16 -31 -3 -6 -63 23 -63 31 0 5 7 8 16 8 8 0 12 5 9 10 -7 11 -38 13 -48 3z"/>
<path d="M4076 10343 c-8 -8 -8 -66 0 -87 11 -28 24 -6 24 39 0 42 -10 62 -24
48z"/>
<path d="M4226 10333 c-9 -23 -7 -81 3 -88 6 -3 13 11 17 30 4 25 11 35 20 31
28 -11 23 13 -5 27 -26 13 -30 13 -35 0z"/>
<path d="M5598 10342 c-25 -5 -26 -90 -2 -99 24 -9 66 9 75 33 16 45 -20 78
-73 66z m55 -26 c8 -19 -15 -60 -36 -64 -14 -3 -17 4 -17 37 0 37 3 41 24 41
13 0 26 -6 29 -14z"/>
<path d="M6477 10343 c-9 -15 -11 -68 -4 -81 16 -24 27 -11 27 32 0 41 -12 67
-23 49z"/>
<path d="M6970 10340 c0 -5 -7 -10 -15 -10 -20 0 -38 -37 -31 -67 5 -19 12
-24 34 -21 25 3 27 7 30 56 2 31 -1 52 -7 52 -6 0 -11 -4 -11 -10z m-2 -66
c-4 -23 -18 -24 -32 -1 -8 14 -8 20 4 27 18 11 33 -2 28 -26z"/>
<path d="M7577 10326 c-31 -16 -40 -18 -46 -7 -5 8 -17 11 -30 6 -18 -6 -22
-13 -19 -43 3 -31 7 -37 28 -39 14 -1 18 1 9 3 -19 6 -31 51 -16 61 5 3 16 -3
24 -13 31 -44 44 -54 67 -54 13 0 27 7 30 16 8 22 7 82 -1 87 -5 2 -25 -5 -46
-17z m23 -46 c0 -22 -4 -28 -15 -24 -8 4 -15 17 -15 30 0 15 6 24 15 24 10 0
15 -10 15 -30z"/>
<path d="M7685 10339 c-3 -9 -5 -34 -3 -55 3 -34 6 -39 31 -42 20 -3 27 1 27
14 0 14 -3 15 -12 6 -19 -19 -28 -14 -28 18 0 23 4 30 20 30 11 0 20 5 20 10
0 6 -9 10 -19 10 -11 0 -21 6 -24 13 -3 8 -7 7 -12 -4z"/>
<path d="M9267 10344 c-14 -14 -7 -25 13 -19 15 5 20 2 20 -12 0 -10 -9 -24
-20 -31 -30 -18 -25 -42 8 -42 18 0 23 3 14 8 -14 9 -6 42 10 42 5 0 8 12 6
28 -3 26 -34 43 -51 26z"/>
<path d="M9348 10339 c-21 -12 -24 -69 -6 -87 7 -7 21 -12 33 -11 18 0 18 1
-3 10 -19 7 -23 15 -20 41 2 22 9 34 21 36 14 3 17 -4 17 -32 0 -20 5 -36 10
-36 6 0 10 16 10 35 0 24 -6 37 -19 45 -23 12 -22 12 -43 -1z"/>
<path d="M9443 10343 c-7 -3 -9 -13 -4 -31 5 -15 4 -37 0 -50 -7 -19 -5 -22
14 -22 20 0 22 4 19 48 -4 50 -10 62 -29 55z"/>
<path d="M236 10309 c-21 -36 -18 -41 29 -44 38 -2 42 6 23 48 -17 35 -30 34
-52 -4z"/>
<path d="M1014 10327 c-11 -30 0 -82 19 -85 16 -3 17 -1 5 17 -10 17 -10 25
-1 40 10 15 9 22 -2 31 -12 10 -16 9 -21 -3z"/>
<path d="M1446 10333 c-8 -8 -8 -56 0 -77 12 -30 24 -16 24 28 0 43 -10 63
-24 49z"/>
<path d="M1650 10296 c0 -25 5 -48 10 -51 6 -3 10 4 10 17 0 13 5 29 12 36 8
8 8 15 -2 27 -21 25 -30 17 -30 -29z"/>
<path d="M1960 10330 c0 -5 -17 -8 -37 -7 l-38 2 -3 -52 c-2 -32 1 -53 7 -53
6 0 11 4 11 9 0 5 14 12 30 16 17 4 30 10 31 13 5 46 6 82 3 82 -2 0 -4 -4 -4
-10z m-30 -50 c0 -20 -5 -30 -15 -30 -10 0 -15 10 -15 30 0 20 5 30 15 30 10
0 15 -10 15 -30z"/>
<path d="M2234 10325 c-5 -12 -10 -13 -20 -4 -7 6 -23 8 -34 4 -17 -5 -21 -13
-18 -43 3 -31 7 -37 28 -39 14 -1 17 1 8 3 -11 4 -16 15 -16 35 1 16 4 29 7
29 10 -1 36 -25 47 -45 18 -33 30 -27 26 12 -2 24 0 33 6 25 7 -10 14 -10 37
2 23 12 26 16 12 21 -9 4 -21 4 -26 0 -6 -3 -20 -1 -31 5 -16 9 -22 8 -26 -5z"/>
<path d="M5335 10332 c-7 -7 -6 -57 1 -76 12 -32 30 -17 26 20 -3 24 -1 34 6
30 5 -3 8 -15 5 -26 -3 -11 0 -20 6 -20 6 0 11 12 11 26 0 41 34 27 40 -16 5
-32 6 -33 17 -15 11 18 12 19 18 3 4 -10 18 -18 31 -18 16 0 24 6 24 18 0 13
-2 14 -9 3 -18 -28 -32 4 -22 49 1 3 8 -4 16 -14 15 -19 15 -19 15 2 0 29 -27
39 -48 19 -14 -15 -18 -15 -32 -2 -17 15 -94 27 -105 17z"/>
<path d="M7931 10297 c1 -31 3 -36 7 -19 10 33 26 32 34 -3 6 -27 6 -26 5 9
-2 30 -7 41 -24 47 -22 8 -23 6 -22 -34z"/>
<path d="M8488 10329 c-6 -19 4 -89 13 -89 5 0 9 23 9 50 0 45 -13 67 -22 39z"/>
<path d="M8793 10333 c-27 -5 -34 -23 -24 -60 6 -21 14 -28 32 -28 19 0 25 6
29 29 7 41 30 46 30 7 0 -33 15 -49 24 -26 7 20 26 19 26 -1 0 -10 7 -14 23
-12 19 3 22 9 22 43 0 34 -3 40 -22 43 -15 2 -23 -2 -23 -11 0 -8 8 -14 18
-13 12 1 16 -5 14 -23 -3 -34 -10 -38 -26 -15 -43 60 -72 76 -123 67z m14 -70
c-4 -17 -4 -17 -12 0 -4 9 -4 25 0 35 8 16 8 16 12 0 3 -10 3 -26 0 -35z"/>
<path d="M9003 10330 c-39 -16 -42 -90 -3 -90 40 0 50 11 50 56 0 46 -6 50
-47 34z m20 -34 c3 -8 -1 -22 -8 -33 -13 -17 -14 -16 -15 15 0 33 13 43 23 18z"/>
<path d="M9516 10315 c-19 -29 -21 -45 -4 -45 6 0 20 -7 30 -17 17 -15 18 -14
18 35 0 59 -17 69 -44 27z m24 -15 c0 -5 -4 -10 -10 -10 -5 0 -10 5 -10 10 0
6 5 10 10 10 6 0 10 -4 10 -10z"/>
<path d="M360 10310 c0 -10 7 -25 15 -34 19 -19 19 -23 -2 -30 -11 -3 -7 -4 7
-3 33 3 43 47 10 47 -12 0 -18 5 -15 10 3 6 17 10 31 10 20 0 24 -5 24 -29 0
-17 5 -33 10 -36 9 -5 15 52 8 72 -2 4 -22 8 -45 10 -36 2 -43 -1 -43 -17z"/>
<path d="M483 10323 c-7 -2 -13 -20 -13 -38 0 -25 5 -35 21 -40 11 -4 23 -4
26 -1 4 3 -1 6 -10 6 -12 0 -17 9 -17 30 0 24 4 30 21 30 11 0 17 5 14 10 -7
11 -22 12 -42 3z"/>
<path d="M625 10320 c-3 -5 2 -10 13 -10 14 0 19 -7 19 -30 0 -16 -4 -30 -9
-30 -4 0 -8 9 -8 20 0 11 -4 20 -10 20 -5 0 -10 -11 -10 -25 0 -23 3 -24 47
-22 47 2 48 2 54 42 8 45 6 50 -16 42 -9 -4 -15 -20 -16 -44 l-1 -38 -10 43
c-7 31 -14 42 -28 42 -10 0 -22 -4 -25 -10z"/>
<path d="M793 10313 c-4 -10 2 -23 17 -35 12 -10 20 -21 17 -25 -4 -3 -14 0
-23 8 -15 12 -17 12 -12 -1 7 -21 44 -25 52 -5 8 21 0 35 -20 35 -8 0 -14 5
-14 10 0 6 9 10 21 10 11 0 17 5 14 10 -10 16 -45 12 -52 -7z"/>
<path d="M942 10321 c-11 -6 -8 -14 12 -34 31 -31 31 -34 9 -40 -14 -4 -14 -5
3 -6 29 -1 41 39 13 46 -22 6 -26 23 -4 23 8 0 15 5 15 10 0 12 -30 13 -48 1z"/>
<path d="M1063 10315 c-7 -8 -13 -24 -13 -35 0 -13 5 -20 13 -17 6 2 11 14 10
26 -2 15 3 21 17 21 11 0 20 -7 20 -15 0 -8 5 -15 10 -15 14 0 13 23 -2 38
-16 16 -40 15 -55 -3z"/>
<path d="M1153 10323 c-15 -6 -18 -73 -3 -73 6 0 10 11 10 24 0 14 5 28 10 31
6 4 10 -6 10 -24 0 -16 5 -33 10 -36 6 -4 10 6 10 24 0 16 5 33 10 36 6 3 10
-2 10 -12 0 -10 5 -25 10 -33 8 -11 10 -5 8 25 -3 38 -5 40 -38 41 -19 1 -41
0 -47 -3z"/>
<path d="M1406 10321 c-8 -13 5 -71 15 -71 5 0 9 18 9 40 0 37 -11 52 -24 31z"/>
<path d="M1777 10324 c-11 -12 -8 -26 5 -18 6 4 17 -2 25 -12 14 -18 14 -18
11 6 -3 24 -27 38 -41 24z"/>
<path d="M2010 10320 c0 -5 7 -10 16 -10 12 0 15 -6 10 -22 -3 -13 -6 -26 -6
-30 0 -5 -5 -8 -11 -8 -6 0 -8 9 -4 20 5 14 2 20 -10 20 -11 0 -15 -7 -13 -22
6 -45 108 -27 108 19 0 13 5 23 10 23 6 0 10 -13 10 -30 0 -16 5 -30 11 -30 6
0 9 16 7 37 -3 42 -25 54 -51 29 -13 -13 -17 -13 -33 -1 -22 17 -44 19 -44 5z"/>
<path d="M2410 10321 c0 -6 7 -11 15 -11 10 0 15 -10 15 -30 0 -16 -5 -30 -11
-30 -6 0 -9 7 -6 15 8 19 -13 31 -24 14 -11 -19 8 -39 38 -39 22 0 24 3 21 43
-2 35 -7 43 -25 45 -13 2 -23 -1 -23 -7z"/>
<path d="M2487 10323 c-11 -11 -8 -85 3 -78 6 3 10 19 10 36 0 16 5 29 11 29
5 0 7 5 4 10 -7 12 -19 13 -28 3z"/>
<path d="M2910 10320 c0 -5 7 -10 16 -10 11 0 14 -5 10 -16 -3 -9 -6 -22 -6
-30 0 -8 -5 -14 -11 -14 -6 0 -8 9 -4 21 5 16 3 20 -6 17 -8 -3 -14 -13 -14
-24 0 -15 7 -19 33 -19 27 -1 32 3 32 23 0 31 -17 62 -35 62 -8 0 -15 -4 -15
-10z"/>
<path d="M3017 10323 c-4 -3 -3 -11 2 -17 5 -6 11 -24 14 -41 4 -27 4 -27 6 8
1 47 13 47 30 1 11 -30 11 -38 0 -45 -11 -7 -10 -9 4 -9 10 0 20 8 23 18 3 9
11 27 17 40 8 16 8 25 -1 34 -9 9 -12 7 -12 -10 0 -12 -4 -22 -10 -22 -5 0
-10 7 -10 15 0 22 -48 44 -63 28z"/>
<path d="M3143 10318 c-9 -15 -7 -88 3 -97 4 -3 9 0 11 7 3 6 11 12 18 12 7 0
15 5 17 11 3 9 10 9 27 0 12 -7 30 -10 39 -8 16 4 16 5 0 6 -10 0 -18 7 -18
15 0 8 -3 21 -6 30 -8 22 22 21 34 0 5 -10 12 -12 15 -7 4 6 -2 18 -13 28 -18
16 -23 17 -47 4 -20 -11 -27 -11 -30 -1 -3 6 -13 12 -23 12 -10 0 -22 -6 -27
-12z m42 -38 c0 -13 -6 -25 -12 -27 -9 -3 -13 6 -13 27 0 21 4 30 13 28 6 -3
12 -15 12 -28z"/>
<path d="M3512 10318 c-20 -20 -13 -28 13 -16 14 6 25 15 25 20 0 12 -24 10
-38 -4z"/>
<path d="M3576 10321 c-3 -5 1 -11 9 -15 15 -6 29 7 18 18 -9 9 -21 8 -27 -3z"/>
<path d="M3630 10321 c0 -6 7 -11 15 -11 10 0 15 -10 15 -30 0 -16 -5 -30 -11
-30 -6 0 -8 9 -4 20 6 20 -9 28 -19 11 -12 -19 6 -41 33 -39 25 2 27 4 21 42
-4 33 -10 42 -27 44 -13 2 -23 -1 -23 -7z"/>
<path d="M3707 10323 c-11 -11 -8 -85 3 -78 6 3 10 19 10 36 0 16 5 29 11 29
5 0 7 5 4 10 -7 12 -19 13 -28 3z"/>
<path d="M4117 10324 c-11 -11 -9 -62 3 -69 6 -3 13 1 16 9 7 19 -9 70 -19 60z"/>
<path d="M4157 10324 c-13 -13 -7 -26 8 -20 19 7 30 -17 20 -41 -5 -12 -9 -14
-12 -5 -8 21 -23 13 -23 -13 0 -21 5 -25 31 -25 l30 0 -3 53 c-3 44 -6 52 -23
55 -12 2 -24 0 -28 -4z"/>
<path d="M4295 10298 c-6 -24 -3 -35 11 -45 24 -17 39 -17 24 2 -7 9 -9 26 -5
45 5 23 3 30 -8 30 -9 0 -18 -13 -22 -32z"/>
<path d="M4477 10323 c-2 -5 -3 -24 -3 -43 1 -30 5 -35 26 -37 14 -1 18 0 8 3
-10 3 -18 14 -18 25 0 10 0 22 -1 26 -1 17 20 13 24 -4 3 -12 5 -8 6 10 1 20
-4 27 -18 27 -11 0 -22 -3 -24 -7z"/>
<path d="M4560 10324 c0 -4 6 -12 14 -18 9 -7 11 -19 6 -36 -8 -24 -8 -24 -9
-2 -1 13 -7 22 -17 22 -10 0 -14 -7 -12 -22 2 -19 10 -23 41 -25 32 -1 38 3
43 24 5 17 1 30 -14 44 -20 18 -52 26 -52 13z"/>
<path d="M4681 10321 c-11 -7 -9 -14 13 -35 31 -32 31 -33 9 -39 -14 -4 -12
-5 5 -6 17 -1 22 4 22 23 0 18 -7 26 -22 29 l-23 4 23 8 c12 4 22 11 22 16 0
12 -31 11 -49 0z"/>
<path d="M4810 10320 c0 -5 7 -10 15 -10 10 0 15 -10 15 -30 0 -21 -5 -30 -16
-30 -11 0 -14 6 -9 20 5 15 3 18 -10 14 -27 -11 -13 -39 22 -42 26 -3 33 1 41
25 10 26 10 26 11 5 1 -21 4 -23 31 -17 21 5 30 3 30 -6 0 -10 3 -10 11 -2 8
8 8 19 -2 42 -16 35 -21 37 -43 15 -15 -14 -17 -14 -22 1 -4 9 -13 14 -20 11
-7 -3 -16 -1 -19 4 -8 13 -35 13 -35 0z"/>
<path d="M4995 10320 c-3 -5 3 -10 14 -10 12 0 21 -7 21 -15 0 -9 -8 -14 -22
-12 -17 1 -23 -3 -23 -18 0 -15 8 -21 33 -23 28 -3 32 0 32 22 0 14 5 28 10
31 10 6 15 -20 12 -57 -1 -10 2 -18 6 -18 14 0 32 23 32 40 0 21 -45 64 -59
56 -5 -4 -12 -2 -16 4 -8 13 -32 13 -40 0z m25 -61 c0 -5 -4 -9 -10 -9 -5 0
-10 7 -10 16 0 8 5 12 10 9 6 -3 10 -10 10 -16z"/>
<path d="M5185 10308 c-9 -36 1 -66 17 -50 8 8 8 21 1 44 l-10 33 -8 -27z"/>
<path d="M5232 10318 c-6 -6 -12 -17 -12 -22 0 -6 5 -5 12 2 20 20 28 14 28
-20 0 -23 3 -29 11 -21 15 15 7 67 -11 71 -9 1 -21 -3 -28 -10z"/>
<path d="M5697 10323 c-11 -10 -8 -73 3 -73 6 0 10 11 10 24 0 14 5 28 10 31
6 4 8 11 5 16 -7 11 -19 12 -28 2z"/>
<path d="M5750 10320 c0 -5 7 -10 15 -10 10 0 15 -10 15 -30 0 -16 -5 -30 -11
-30 -6 0 -8 9 -4 20 7 23 -7 27 -24 6 -15 -18 9 -39 41 -34 27 4 35 36 18 67
-11 21 -50 29 -50 11z"/>
<path d="M5834 10317 c-2 -7 -6 -27 -7 -43 -2 -23 2 -30 21 -32 12 -2 22 1 22
7 0 6 -7 8 -15 5 -11 -5 -15 1 -15 25 0 21 5 31 15 31 8 0 15 5 15 10 0 15
-30 12 -36 -3z"/>
<path d="M5904 10316 c-3 -8 -4 -27 -2 -43 2 -22 8 -28 27 -28 34 0 49 27 31
59 -14 28 -47 35 -56 12z m41 -16 c8 -12 -3 -50 -15 -50 -10 0 -18 31 -13 48
6 15 19 16 28 2z"/>
<path d="M6028 10316 c-22 -16 -23 -42 -4 -62 18 -17 27 -17 61 -2 16 7 25 19
25 35 0 14 6 23 15 23 10 0 15 -10 15 -30 0 -21 -5 -30 -17 -30 -9 0 -14 -3
-10 -6 3 -3 15 -3 26 1 29 9 30 71 2 80 -24 7 -61 -14 -61 -35 0 -8 -4 -21 -9
-29 -8 -12 -12 -12 -25 -2 -22 18 -20 42 4 48 11 3 17 9 14 14 -7 12 -16 11
-36 -5z"/>
<path d="M6187 10324 c-11 -11 -8 -74 3 -74 6 0 10 14 10 31 0 17 4 28 10 24
6 -3 10 -18 10 -33 0 -18 3 -23 11 -15 18 18 7 68 -16 71 -12 2 -24 0 -28 -4z"/>
<path d="M6260 10315 c-10 -12 -8 -18 11 -34 13 -11 20 -23 16 -27 -4 -5 -12
-2 -17 6 -8 13 -10 12 -10 -2 0 -21 46 -25 53 -5 4 10 7 10 18 0 21 -20 24
-16 23 29 -1 49 -24 66 -24 19 0 -17 -4 -31 -10 -31 -5 0 -10 4 -10 9 0 5 -10
12 -22 14 l-23 4 23 8 c12 4 22 11 22 16 0 15 -37 10 -50 -6z"/>
<path d="M6382 10318 c-20 -20 -15 -66 9 -73 11 -4 23 -4 26 -1 4 3 0 6 -9 6
-10 0 -15 10 -16 30 0 20 4 30 14 30 8 0 14 -7 14 -15 0 -17 16 -20 25 -4 7
11 -22 38 -40 39 -6 0 -16 -5 -23 -12z"/>
<path d="M6535 10320 c-3 -5 3 -10 14 -10 12 0 21 5 21 10 0 6 -6 10 -14 10
-8 0 -18 -4 -21 -10z"/>
<path d="M6582 10301 c-12 -17 -22 -35 -22 -41 0 -5 -4 -10 -10 -10 -5 0 -10
9 -10 20 0 11 -4 20 -9 20 -15 0 -21 -28 -8 -38 16 -13 66 -12 73 0 4 6 10 5
15 -3 11 -19 17 -10 21 36 4 51 -19 58 -50 16z"/>
<path d="M6690 10319 c0 -6 -9 -9 -20 -6 -16 4 -20 0 -20 -19 0 -35 3 -39 23
-37 9 2 17 -2 17 -7 0 -14 37 -12 47 3 19 30 2 77 -27 77 -11 0 -20 -5 -20
-11z m34 -24 c7 -20 -4 -47 -18 -42 -17 6 -20 57 -3 57 8 0 17 -7 21 -15z"/>
<path d="M6767 10324 c-11 -11 -8 -74 3 -74 6 0 10 11 10 24 0 14 5 28 10 31
6 4 10 -7 10 -24 0 -17 5 -31 11 -31 6 0 9 16 7 38 -2 28 -8 38 -23 40 -12 2
-24 0 -28 -4z"/>
<path d="M7010 10291 c0 -24 3 -41 7 -37 12 11 14 47 3 64 -7 13 -9 6 -10 -27z"/>
<path d="M7045 10319 c-10 -15 -2 -19 23 -12 12 3 19 9 16 14 -7 12 -31 11
-39 -2z"/>
<path d="M7118 10311 c-8 -14 -24 -21 -43 -21 -27 -1 -28 -2 -12 -14 9 -7 17
-16 17 -19 0 -3 -8 -8 -17 -10 -15 -4 -14 -5 3 -6 11 0 26 5 33 12 11 10 14
10 18 0 6 -18 38 -16 53 2 8 9 8 15 2 15 -6 0 -13 -6 -15 -12 -4 -10 -8 -9
-16 2 -15 21 -8 45 12 44 22 -2 17 20 -6 24 -9 2 -22 -6 -29 -17z"/>
<path d="M7191 10307 c-10 -19 -10 -29 -1 -46 14 -28 53 -25 58 4 3 19 2 19
-11 3 -20 -25 -27 -22 -27 12 0 32 8 37 29 18 10 -11 12 -9 9 7 -5 30 -42 31
-57 2z"/>
<path d="M7352 10318 c-28 -28 -6 -79 33 -77 16 1 17 2 3 6 -12 3 -18 14 -18
34 0 39 23 38 44 -3 8 -18 16 -31 17 -28 0 3 3 16 5 30 3 14 9 27 14 28 6 2 8
8 4 13 -3 5 -14 5 -26 -2 -14 -8 -23 -8 -31 0 -14 14 -30 14 -45 -1z"/>
<path d="M7870 10304 c0 -29 16 -64 30 -64 6 0 5 9 -2 20 -10 15 -10 24 -1 39
13 20 8 31 -14 31 -7 0 -13 -11 -13 -26z"/>
<path d="M8012 10318 c-20 -20 -15 -66 9 -73 11 -4 23 -4 26 -1 4 3 0 6 -9 6
-10 0 -15 10 -15 30 0 22 5 30 19 30 10 0 18 -5 18 -12 0 -6 3 -8 6 -5 9 8
-15 37 -30 37 -7 0 -17 -5 -24 -12z"/>
<path d="M8123 10318 c2 -7 12 -13 23 -13 13 0 20 -8 22 -27 4 -38 22 -36 22
2 0 17 5 30 12 30 9 0 9 3 0 12 -8 8 -15 8 -26 -1 -10 -8 -16 -9 -21 -1 -9 14
-38 13 -32 -2z"/>
<path d="M8230 10320 c0 -5 7 -10 15 -10 10 0 15 -11 15 -35 0 -36 13 -47 24
-19 10 25 7 42 -10 58 -17 18 -44 21 -44 6z"/>
<path d="M8312 10318 c-14 -14 -16 -58 -2 -58 6 0 10 11 10 25 0 14 5 25 10
25 6 0 10 -13 10 -30 0 -16 5 -30 11 -30 6 0 9 16 7 37 -3 40 -23 54 -46 31z"/>
<path d="M8379 10314 c-11 -14 -9 -19 11 -34 14 -10 21 -22 17 -27 -5 -4 -12
-1 -17 7 -8 13 -10 12 -10 -2 0 -23 45 -24 54 -2 8 20 -1 34 -20 34 -8 0 -14
5 -14 10 0 6 7 10 15 10 8 0 15 5 15 10 0 16 -36 12 -51 -6z"/>
<path d="M8457 10323 c-11 -10 -8 -73 3 -73 6 0 10 18 10 40 0 41 -2 45 -13
33z"/>
<path d="M8588 10322 c-14 -3 -18 -13 -17 -40 1 -28 3 -31 6 -12 7 35 18 44
42 31 14 -8 21 -8 21 -1 0 5 5 10 10 10 6 0 10 -13 10 -30 0 -16 5 -30 11 -30
6 0 9 16 7 38 -3 35 -5 37 -38 38 -19 0 -43 -2 -52 -4z"/>
<path d="M8707 10324 c-4 -4 -7 -25 -7 -46 0 -35 2 -38 28 -37 16 1 20 3 10 6
-10 2 -18 13 -18 24 0 10 0 22 -1 26 -1 16 20 13 25 -4 3 -11 4 -9 3 7 -2 24
-26 38 -40 24z"/>
<path d="M9148 10323 c-10 -2 -18 -9 -18 -15 0 -5 -7 -8 -15 -4 -11 4 -15 -2
-15 -20 0 -14 4 -23 9 -19 5 3 13 0 18 -7 5 -9 9 -3 13 17 4 22 11 30 25 30
14 0 19 -6 17 -18 -2 -9 2 -25 8 -35 8 -13 10 -7 8 28 -3 46 -12 54 -50 43z"/>
<path d="M860 10306 c0 -8 5 -18 10 -21 6 -3 10 3 10 14 0 12 -4 21 -10 21 -5
0 -10 -6 -10 -14z"/>
<path d="M1300 10306 c0 -8 5 -27 11 -43 10 -26 11 -27 24 -10 8 12 15 14 20
8 3 -6 13 -11 21 -11 23 0 13 40 -13 58 -21 13 -23 13 -32 -9 -7 -17 -10 -19
-10 -7 -1 21 -21 35 -21 14z"/>
<path d="M1730 10304 c0 -11 -6 -14 -20 -9 -16 5 -20 2 -20 -19 0 -29 27 -36
36 -11 9 21 32 19 39 -5 4 -13 14 -20 28 -19 18 1 18 2 4 6 -12 3 -16 10 -12
24 5 15 2 19 -14 19 -12 0 -21 7 -21 15 0 8 -4 15 -10 15 -5 0 -10 -7 -10 -16z"/>
<path d="M4434 10301 c-7 -23 -8 -23 -22 -5 -13 17 -14 15 -8 -23 4 -29 2 -43
-7 -46 -7 -3 -5 -6 6 -6 10 -1 20 7 23 17 3 9 10 27 16 39 6 11 8 27 5 35 -4
8 -8 5 -13 -11z"/>
<path d="M4960 10304 c0 -8 5 -12 10 -9 6 3 10 10 10 16 0 5 -4 9 -10 9 -5 0
-10 -7 -10 -16z"/>
<path d="M5110 10305 c0 -8 5 -15 10 -15 6 0 10 7 10 15 0 8 -4 15 -10 15 -5
0 -10 -7 -10 -15z"/>
<path d="M7751 10302 c-9 -18 -9 -22 3 -22 19 0 29 -29 15 -46 -9 -11 -8 -14
3 -14 16 0 38 40 38 67 0 13 -3 14 -12 5 -10 -10 -15 -7 -24 10 l-11 21 -12
-21z"/>
<path d="M896 10293 c-22 -63 -24 -73 -12 -73 11 0 36 53 36 78 0 18 -17 14
-24 -5z"/>
<path d="M7267 10297 c-2 -7 4 -23 14 -35 l18 -23 16 25 c20 30 10 56 -11 29
-12 -17 -13 -17 -14 0 0 20 -16 23 -23 4z"/>
<path d="M2300 10281 c0 -5 8 -12 18 -16 15 -7 14 -9 -8 -15 -22 -7 -23 -8 -4
-9 29 -1 48 21 32 37 -14 14 -38 16 -38 3z"/>
<path d="M3533 10276 c23 -17 22 -24 -5 -29 -20 -4 -20 -4 -3 -5 11 -1 26 2
34 7 20 13 6 41 -21 41 -21 -1 -22 -2 -5 -14z"/>
<path d="M8213 10274 c-6 -15 11 -34 32 -34 6 0 4 4 -3 8 -7 5 -10 16 -6 25 3
10 1 17 -5 17 -7 0 -14 -7 -18 -16z"/>
<path d="M3590 10256 c0 -9 5 -16 10 -16 6 0 10 4 10 9 0 6 -4 13 -10 16 -5 3
-10 -1 -10 -9z"/>
<path d="M1078 10243 c6 -2 18 -2 25 0 6 3 1 5 -13 5 -14 0 -19 -2 -12 -5z"/>
<path d="M210 10060 c-3 -265 2 -10055 5 -10058 3 -3 7 -3 10 0 3 3 5 337 4
744 0 406 -1 746 -1 754 0 8 1 1935 1 4282 l1 4268 4656 0 c3329 0 4661 -3
4676 -11 14 -8 23 -8 31 0 8 8 169 11 534 11 l523 0 0 -5022 c0 -2762 2 -5024
5 -5026 3 -3 5 339 5 759 0 420 1 2684 3 5032 l2 4267 -540 0 c-297 0 -2649 1
-5228 3 -2578 1 -4687 0 -4687 -3z"/>
<path d="M1195 9969 c-11 -16 -1 -19 13 -3 7 8 8 14 3 14 -5 0 -13 -5 -16 -11z"/>
<path d="M7474 9872 c-54 -36 -36 -158 23 -147 10 2 21 4 26 4 4 1 7 8 7 16 0
8 5 15 10 15 6 0 10 14 10 31 0 46 -27 89 -55 89 -5 0 -15 -4 -21 -8z m42 -47
c15 -61 -24 -103 -47 -51 -9 19 -9 32 1 55 14 34 37 32 46 -4z"/>
<path d="M7635 9867 c-25 -19 -11 -41 15 -25 32 20 47 -5 20 -32 l-21 -21 20
-6 c12 -3 21 -12 21 -19 0 -17 -32 -18 -48 -2 -9 9 -13 7 -18 -6 -8 -22 -5
-25 38 -30 47 -6 56 6 54 72 -1 41 -6 57 -21 68 -24 17 -36 18 -60 1z"/>
<path d="M7767 9831 c-32 -48 -34 -71 -8 -71 10 0 25 -10 34 -22 l15 -23 10
25 c11 30 1 122 -14 127 -6 2 -23 -14 -37 -36z m19 -48 c-11 -11 -17 4 -9 23
7 18 8 18 11 1 2 -10 1 -21 -2 -24z"/>
<path d="M7938 9848 c-21 -33 -50 -110 -43 -116 2 -3 13 2 22 10 31 26 52 29
73 8 11 -11 22 -20 25 -20 8 0 6 29 -4 48 -5 9 -16 34 -25 55 -18 43 -28 46
-48 15z m33 -61 c-15 -15 -30 1 -24 24 6 21 7 21 20 4 8 -12 9 -23 4 -28z"/>
<path d="M8040 9812 c0 -44 4 -63 18 -75 24 -22 78 -16 97 9 17 23 20 110 4
120 -17 10 -29 -16 -29 -69 0 -47 -1 -48 -27 -45 -26 3 -28 7 -33 57 -7 78
-30 80 -30 3z"/>
<path d="M1041 9841 c-7 -5 -9 -11 -5 -14 5 -3 15 1 22 9 14 16 5 18 -17 5z"/>
<path d="M9837 9814 c6 -15 23 -19 23 -5 0 5 -7 11 -14 14 -10 4 -13 1 -9 -9z"/>
<path d="M7570 9740 c0 -5 5 -10 10 -10 6 0 10 5 10 10 0 6 -4 10 -10 10 -5 0
-10 -4 -10 -10z"/>
<path d="M905 9720 c-27 -30 -12 -34 15 -5 13 14 19 25 13 25 -5 0 -18 -9 -28
-20z"/>
<path d="M9960 9700 c0 -5 5 -10 11 -10 5 0 7 5 4 10 -3 6 -8 10 -11 10 -2 0
-4 -4 -4 -10z"/>
<path d="M7703 9672 l-2273 -2 0 -81 c0 -51 4 -78 10 -74 6 3 10 35 10 69 l0
64 1823 6 c1002 4 2063 6 2357 4 l535 -3 6 -70 6 -70 -1 75 -1 75 -100 5 c-55
3 -1123 4 -2372 2z"/>
<path d="M802 9615 c-7 -8 -9 -15 -4 -15 5 0 15 7 22 15 16 19 -1 19 -18 0z"/>
<path d="M10072 9599 c4 -12 48 -46 48 -37 0 2 -12 15 -26 27 -15 13 -24 17
-22 10z"/>
<path d="M10200 9472 c0 -5 7 -15 15 -22 8 -7 15 -8 15 -2 0 5 -7 15 -15 22
-8 7 -15 8 -15 2z"/>
<path d="M531 9343 c-12 -13 -21 -26 -19 -29 3 -2 15 7 28 21 13 14 22 27 19
29 -2 2 -15 -8 -28 -21z"/>
<path d="M10340 9315 c7 -8 17 -15 22 -15 6 0 5 7 -2 15 -7 8 -17 15 -22 15
-6 0 -5 -7 2 -15z"/>
<path d="M422 9217 c-12 -13 -22 -27 -22 -31 0 -8 15 6 39 37 20 25 8 21 -17
-6z"/>
<path d="M312 9090 c-7 -11 -8 -20 -3 -20 9 0 24 30 18 36 -1 2 -8 -6 -15 -16z"/>
<path d="M6360 8214 c-30 -2 -75 -7 -100 -11 -43 -6 -44 -7 -15 -14 45 -10
136 -10 172 0 53 15 262 16 373 2 113 -15 230 -8 180 11 -25 9 -510 19 -610
12z"/>
<path d="M6076 8181 c-3 -5 1 -12 10 -15 34 -13 114 -2 114 15 0 12 -117 12
-124 0z"/>
<path d="M7020 8181 c0 -11 77 -25 104 -19 40 8 16 23 -41 26 -37 2 -63 -1
-63 -7z"/>
<path d="M5957 8163 c-4 -4 -31 -10 -60 -15 -149 -24 -277 -57 -277 -70 0 -6
-10 -8 -22 -4 -22 5 -73 -6 -110 -25 -29 -15 -46 -10 -78 21 -30 30 -60 39
-60 20 0 -6 12 -15 26 -20 41 -16 54 -35 54 -83 0 -38 -5 -49 -30 -70 -20 -18
-26 -28 -18 -33 19 -12 68 55 68 93 0 27 5 35 28 44 41 16 133 41 170 46 19 3
36 11 38 17 3 7 17 11 33 8 16 -2 32 1 35 7 4 6 27 11 51 11 24 0 46 4 49 9 3
5 29 11 58 15 113 13 138 18 132 27 -6 10 -77 12 -87 2z"/>
<path d="M7176 8162 c-3 -5 16 -13 42 -17 26 -4 72 -12 102 -17 30 -5 72 -11
93 -14 20 -4 40 -10 43 -15 3 -5 23 -9 44 -9 21 0 42 -4 45 -10 3 -5 17 -10
31 -10 13 0 32 -4 42 -9 9 -5 46 -17 82 -26 36 -9 73 -21 82 -26 10 -5 29 -9
43 -9 14 0 25 -4 25 -10 0 -5 11 -10 25 -10 14 0 25 -4 25 -10 0 -5 9 -10 19
-10 11 0 23 -4 26 -10 3 -5 14 -10 25 -10 10 0 35 -9 57 -19 21 -11 56 -27 78
-36 135 -58 326 -158 442 -232 29 -18 57 -33 62 -33 5 0 11 -4 13 -9 2 -4 37
-30 78 -56 137 -87 354 -267 505 -419 117 -117 355 -402 355 -425 0 -5 4 -11
8 -13 5 -1 26 -30 47 -63 22 -33 43 -61 47 -63 5 -2 8 -7 8 -11 0 -4 22 -45
50 -90 27 -46 66 -117 87 -159 20 -43 41 -78 45 -80 4 -2 8 -12 8 -23 0 -10 5
-19 10 -19 6 0 10 -8 10 -18 0 -10 11 -42 25 -70 14 -29 25 -59 25 -67 0 -8 7
-15 16 -15 8 0 12 -5 8 -11 -3 -6 -2 -21 4 -32 5 -12 16 -42 23 -67 7 -25 16
-49 19 -55 4 -5 13 -31 21 -57 7 -27 17 -48 21 -48 12 0 10 48 -2 55 -5 3 -10
17 -10 31 0 13 -4 24 -10 24 -5 0 -10 13 -10 29 0 17 -4 32 -9 35 -4 3 -11 19
-14 35 -4 16 -16 51 -28 78 -12 26 -28 64 -36 83 -8 19 -33 72 -55 117 -21 45
-38 84 -36 85 2 2 -7 17 -20 35 -12 17 -22 34 -22 38 0 3 -13 26 -30 50 -16
24 -30 46 -30 50 0 17 -168 263 -240 351 -14 17 -34 42 -44 55 -89 111 -295
326 -376 393 -19 15 -53 45 -76 66 -90 84 -424 320 -453 320 -6 0 -11 5 -11
10 0 6 -5 10 -11 10 -6 0 -29 13 -52 29 -58 39 -414 211 -437 211 -6 0 -19 5
-30 10 -11 6 -29 15 -40 20 -11 6 -27 10 -35 10 -8 0 -23 4 -33 9 -47 25 -114
51 -131 51 -11 0 -23 5 -26 10 -3 6 -19 10 -35 10 -16 0 -32 5 -35 11 -4 5
-17 9 -28 7 -12 -1 -28 2 -36 6 -8 5 -42 15 -75 23 -225 52 -340 70 -350 55z"/>
<path d="M5268 8075 c-28 -24 -36 -45 -19 -45 5 0 11 7 15 15 3 8 17 20 31 25
15 6 23 14 20 20 -9 15 -17 12 -47 -15z"/>
<path d="M5332 8030 c-16 -26 -15 -40 2 -40 21 0 27 15 18 39 -7 21 -7 21 -20
1z"/>
<path d="M5218 7983 c-2 -29 -8 -38 -28 -43 -14 -4 -45 -17 -69 -29 -25 -11
-51 -21 -58 -21 -7 0 -13 -4 -13 -10 0 -5 -6 -10 -13 -10 -14 0 -134 -59 -242
-120 -38 -22 -78 -43 -87 -46 -10 -4 -18 -10 -18 -15 0 -5 -5 -9 -11 -9 -12 0
-183 -111 -187 -122 -2 -4 -9 -8 -15 -8 -7 0 -25 -12 -42 -28 -16 -15 -41 -33
-55 -40 -14 -7 -43 -30 -66 -50 -23 -20 -59 -50 -80 -67 -103 -79 -325 -301
-429 -429 -22 -27 -44 -54 -50 -60 -54 -60 -225 -307 -225 -325 0 -5 -4 -11
-9 -13 -11 -4 -50 -70 -93 -158 -17 -36 -35 -67 -38 -70 -10 -8 -94 -190 -125
-270 -9 -25 -21 -53 -26 -62 -5 -10 -9 -27 -9 -37 0 -11 -4 -23 -10 -26 -5 -3
-10 -15 -10 -26 0 -24 20 -26 21 -1 1 9 1 20 0 25 0 4 3 7 9 7 5 0 10 7 10 15
0 8 4 23 9 33 5 9 13 28 18 42 25 63 58 139 84 194 11 22 19 46 19 53 0 7 3
13 8 13 4 0 12 10 18 23 31 67 106 196 173 297 42 63 78 119 80 125 2 5 15 21
28 34 12 14 23 29 23 33 0 3 6 13 13 20 7 7 45 54 85 103 140 173 445 464 592
565 19 13 37 27 40 31 3 3 10 8 15 10 6 2 69 43 142 92 72 48 136 87 142 87 5
0 15 8 20 18 6 9 11 13 11 9 0 -5 17 1 38 13 90 55 126 74 177 95 22 10 69 31
105 47 138 63 138 63 172 32 15 -15 31 -24 35 -21 3 4 -8 21 -25 38 -24 23
-32 40 -32 65 0 46 -18 43 -22 -3z"/>
<path d="M5956 7073 c-4 -4 -33 -10 -64 -14 -120 -14 -162 -22 -162 -30 0 -12
63 -11 76 0 14 14 131 22 398 27 158 3 243 1 250 -6 5 -5 43 -10 82 -10 40 0
76 -4 79 -10 8 -12 95 -13 95 -1 0 5 -21 12 -47 15 -27 4 -82 11 -123 17 -89
13 -573 23 -584 12z"/>
<path d="M6730 7020 c-17 -10 -8 -15 45 -23 17 -3 62 -15 100 -27 39 -12 79
-23 91 -24 11 0 28 -7 37 -14 9 -8 21 -11 27 -7 5 3 17 -1 26 -9 8 -9 22 -16
30 -16 8 0 36 -9 62 -21 26 -12 63 -28 82 -36 19 -8 43 -19 53 -25 11 -5 21
-7 24 -4 4 3 11 0 17 -8 6 -8 45 -31 86 -52 41 -22 77 -42 80 -45 3 -4 39 -29
80 -56 132 -86 150 -101 362 -292 46 -41 60 -73 38 -86 -19 -12 -12 -99 10
-123 44 -46 91 -59 140 -38 17 7 87 -82 137 -174 15 -28 31 -50 35 -50 4 0 8
-9 8 -19 0 -11 3 -21 8 -23 8 -3 82 -154 82 -168 0 -5 9 -25 20 -45 11 -20 20
-42 20 -50 0 -9 5 -25 12 -38 24 -47 28 -57 28 -72 0 -8 5 -15 10 -15 12 0 13
25 1 48 -5 9 -15 37 -22 62 -13 44 -40 110 -82 200 -49 102 -162 291 -179 298
-4 2 -8 9 -8 15 0 6 -8 19 -17 29 -17 19 -17 21 0 50 27 47 22 89 -16 133 -25
29 -38 37 -52 31 -17 -6 -16 -8 10 -22 67 -35 75 -98 19 -150 -34 -33 -94 -48
-94 -24 0 6 -6 10 -14 10 -21 0 -46 45 -46 85 0 37 32 85 57 85 8 0 11 5 8 10
-4 6 -14 8 -24 5 -12 -3 -39 16 -87 62 -123 120 -280 247 -294 238 -5 -3 -10
0 -10 7 0 11 -80 68 -96 68 -3 0 -13 8 -24 18 -10 9 -49 33 -87 52 -37 19 -69
38 -71 43 -2 4 -8 7 -12 7 -8 0 -137 58 -182 81 -10 5 -27 9 -38 9 -11 0 -20
5 -20 10 0 6 -9 10 -20 10 -11 0 -28 4 -38 10 -36 21 -203 69 -218 63 -9 -3
-19 -1 -23 4 -9 15 -54 23 -71 13z"/>
<path d="M5635 7010 c3 -5 19 -10 35 -10 16 0 32 5 35 10 4 6 -10 10 -35 10
-25 0 -39 -4 -35 -10z"/>
<path d="M5564 6994 c-14 -8 -34 -14 -44 -14 -23 0 -122 -31 -134 -42 -6 -4 1
-8 16 -8 15 0 29 4 32 9 3 5 18 11 33 14 66 13 154 35 159 40 12 12 -38 13
-62 1z"/>
<path d="M5330 6922 c0 -14 11 -21 26 -15 21 8 17 23 -6 23 -11 0 -20 -4 -20
-8z"/>
<path d="M5280 6900 c0 -5 -8 -10 -18 -10 -10 0 -36 -8 -58 -19 -21 -10 -60
-28 -86 -40 -25 -11 -48 -24 -50 -28 -1 -5 -30 -21 -63 -38 -33 -16 -69 -38
-79 -47 -11 -10 -24 -18 -29 -18 -9 0 -114 -67 -133 -85 -6 -5 -23 -19 -39
-30 -15 -11 -38 -29 -50 -40 -13 -11 -41 -34 -62 -52 -80 -66 -215 -205 -293
-303 -57 -71 -130 -177 -130 -189 0 -6 -4 -11 -10 -11 -5 0 -10 -6 -10 -14 0
-7 -6 -19 -14 -25 -18 -16 -56 -87 -56 -106 0 -8 -4 -15 -9 -15 -5 0 -11 -7
-15 -15 -3 -8 -1 -15 5 -15 6 0 16 14 22 30 6 17 15 30 19 30 4 0 8 9 8 20 0
11 5 20 10 20 6 0 10 7 10 15 0 8 5 15 10 15 6 0 10 5 10 11 0 7 16 34 35 60
19 27 36 55 38 62 1 6 10 18 20 25 9 7 17 18 17 23 0 5 17 28 38 50 20 23 41
48 46 57 29 53 277 286 390 366 22 17 43 34 44 38 2 4 10 8 17 8 7 0 15 3 17
8 4 10 86 62 98 62 5 0 10 4 10 9 0 5 47 32 105 61 58 29 105 57 105 62 0 5 4
7 9 3 5 -3 39 8 76 25 36 16 70 30 75 30 6 0 10 5 10 10 0 6 -9 10 -20 10 -11
0 -20 -4 -20 -10z"/>
<path d="M5740 6390 c-8 -5 -33 -10 -55 -10 -37 -1 -38 -2 -15 -11 18 -7 36
-7 65 3 28 9 102 13 245 13 143 0 217 -4 245 -13 29 -10 47 -10 65 -3 22 9 20
10 -22 10 -26 1 -50 6 -53 11 -8 13 -455 13 -475 0z"/>
<path d="M5571 6361 c-10 -6 -10 -10 -1 -16 15 -10 62 3 55 15 -8 12 -35 13
-54 1z"/>
<path d="M6336 6361 c-8 -13 23 -23 48 -15 21 7 21 7 1 15 -28 11 -43 11 -49
0z"/>
<path d="M5495 6341 c-3 -5 -1 -12 4 -15 13 -8 42 4 35 15 -7 12 -31 12 -39 0z"/>
<path d="M6416 6341 c-7 -10 33 -23 46 -15 5 3 6 10 3 15 -8 12 -42 12 -49 0z"/>
<path d="M5420 6321 c-51 -27 -61 -31 -75 -31 -8 0 -15 -4 -15 -10 0 -5 9 -10
20 -10 11 0 20 5 20 10 0 6 11 10 25 10 14 0 25 5 25 10 0 6 12 10 26 10 14 0
23 4 19 10 -7 12 -24 12 -45 1z"/>
<path d="M6495 6320 c-3 -5 1 -10 10 -10 8 0 23 -4 33 -9 9 -5 31 -14 47 -21
17 -7 38 -16 47 -21 23 -12 38 -11 38 1 0 6 -5 10 -10 10 -6 0 -30 9 -52 20
-23 11 -50 20 -59 20 -10 0 -21 5 -24 10 -3 6 -10 10 -15 10 -5 0 -12 -4 -15
-10z"/>
<path d="M5280 6260 c0 -5 -9 -10 -20 -10 -11 0 -20 -4 -20 -10 0 -5 6 -10 14
-10 8 0 18 5 21 10 3 6 15 10 26 10 10 0 19 5 19 10 0 6 -9 10 -20 10 -11 0
-20 -4 -20 -10z"/>
<path d="M8073 6257 c11 -9 14 -18 8 -21 -5 -4 -12 -2 -16 4 -13 21 -25 9 -25
-25 0 -34 1 -35 38 -34 30 2 32 3 10 6 -35 5 -37 23 -4 23 44 0 42 27 -4 49
-23 11 -23 11 -7 -2z"/>
<path d="M6686 6242 c5 -5 29 -17 54 -27 25 -10 57 -27 72 -37 14 -10 31 -18
37 -18 6 0 11 -4 11 -8 0 -5 20 -19 45 -32 25 -13 45 -27 45 -31 0 -4 9 -11
20 -14 11 -4 31 -16 44 -28 12 -12 55 -51 95 -86 62 -55 111 -108 212 -229 11
-12 19 -25 19 -27 0 -3 9 -15 20 -27 11 -12 20 -28 20 -35 0 -7 5 -13 10 -13
6 0 10 -7 10 -15 0 -8 5 -15 10 -15 6 0 10 -7 10 -15 0 -8 5 -15 10 -15 6 0
10 -7 10 -15 0 -9 8 -27 17 -42 10 -14 18 -31 19 -37 1 -6 13 -35 28 -65 14
-30 26 -63 26 -73 0 -10 5 -18 10 -18 6 0 10 -13 10 -29 0 -17 5 -33 10 -36 6
-3 10 -19 10 -34 0 -15 3 -31 8 -35 4 -4 14 -58 23 -119 l15 -112 8 56 c5 37
4 64 -3 77 -6 11 -11 36 -11 56 0 19 -4 38 -10 41 -5 3 -10 16 -10 28 0 24
-22 93 -33 103 -4 4 -7 18 -7 31 0 13 -4 23 -10 23 -5 0 -10 7 -10 15 0 8 -4
23 -9 33 -5 9 -17 35 -26 57 -9 22 -23 51 -31 65 -8 14 -18 33 -21 43 -3 9 -9
17 -14 17 -5 0 -9 5 -9 10 0 14 -65 114 -114 175 -86 106 -247 256 -323 301
-18 10 -33 22 -33 26 0 4 -7 8 -15 8 -8 0 -15 4 -15 8 0 5 -12 15 -27 23 -16
7 -45 24 -65 36 -21 13 -44 23 -53 23 -8 0 -15 5 -15 10 0 6 -9 10 -20 10 -11
0 -20 5 -20 10 0 6 -10 10 -22 10 -12 0 -18 -4 -12 -8z"/>
<path d="M5200 6220 c0 -5 -6 -10 -14 -10 -23 0 -91 -43 -76 -48 7 -3 15 0 19
5 3 5 25 17 49 28 47 20 62 35 38 35 -9 0 -16 -4 -16 -10z"/>
<path d="M5070 6150 c0 -5 5 -10 10 -10 6 0 10 5 10 10 0 6 -4 10 -10 10 -5 0
-10 -4 -10 -10z"/>
<path d="M4988 6098 c-32 -22 -55 -44 -52 -49 2 -4 28 10 57 31 29 22 55 40
60 40 4 0 7 5 7 10 0 17 -12 11 -72 -32z"/>
<path d="M4799 5937 c-118 -117 -159 -163 -159 -177 0 -6 -3 -10 -7 -10 -5 0
-19 -17 -33 -38 -14 -20 -27 -39 -30 -42 -15 -14 -40 -61 -40 -75 0 -8 -4 -15
-10 -15 -5 0 -10 -7 -10 -15 0 -8 -3 -15 -7 -15 -8 0 -33 -47 -33 -62 0 -19
16 -5 29 25 22 52 158 255 204 305 69 75 99 104 166 165 36 31 57 57 49 57 -8
0 -62 -46 -119 -103z"/>
<path d="M5738 5883 c34 -2 88 -2 120 0 31 2 3 3 -63 3 -66 0 -92 -1 -57 -3z"/>
<path d="M5572 5871 c-11 -6 -9 -9 6 -13 27 -7 73 2 66 13 -7 11 -55 11 -72 0z"/>
<path d="M5956 5871 c-8 -12 26 -20 59 -13 19 3 23 7 13 13 -17 11 -65 11 -72
0z"/>
<path d="M3190 5832 c0 -15 -4 -32 -9 -37 -11 -14 -41 -126 -41 -158 0 -14 -4
-29 -10 -32 -5 -3 -10 -22 -10 -42 0 -20 2 -34 5 -31 8 7 46 157 48 186 1 12
5 22 10 22 4 0 7 13 7 29 0 17 5 33 10 36 6 3 10 17 10 31 0 13 -4 24 -10 24
-5 0 -10 -13 -10 -28z"/>
<path d="M5485 5850 c-4 -6 7 -10 25 -10 18 0 29 4 25 10 -3 6 -15 10 -25 10
-10 0 -22 -4 -25 -10z"/>
<path d="M6065 5850 c-4 -6 7 -10 25 -10 18 0 29 4 25 10 -3 6 -15 10 -25 10
-10 0 -22 -4 -25 -10z"/>
<path d="M5425 5830 c-3 -5 -14 -10 -24 -10 -21 0 -71 -22 -71 -32 0 -11 17
-10 40 2 11 6 29 15 40 20 11 6 27 10 35 10 8 0 15 5 15 10 0 6 -6 10 -14 10
-8 0 -18 -4 -21 -10z"/>
<path d="M6135 5830 c-3 -5 3 -10 15 -10 11 0 29 -4 40 -10 11 -5 29 -15 40
-20 12 -6 25 -8 31 -4 13 7 -35 34 -62 34 -10 0 -21 5 -24 10 -3 6 -12 10 -20
10 -8 0 -17 -4 -20 -10z"/>
<path d="M4056 5781 c-4 -5 -2 -12 3 -15 5 -4 12 -2 15 3 4 5 2 12 -3 15 -5 4
-12 2 -15 -3z"/>
<path d="M5288 5768 c9 -9 15 -9 24 0 9 9 7 12 -12 12 -19 0 -21 -3 -12 -12z"/>
<path d="M6285 5770 c3 -5 10 -10 16 -10 5 0 9 5 9 10 0 6 -7 10 -16 10 -8 0
-12 -4 -9 -10z"/>
<path d="M5192 5723 c-33 -21 -76 -49 -94 -63 -49 -37 -181 -170 -175 -176 3
-3 42 30 87 73 45 43 89 82 98 87 9 5 24 17 32 25 8 9 40 29 70 45 65 34 80
46 59 46 -9 0 -43 -17 -77 -37z"/>
<path d="M6324 5752 c3 -5 23 -17 45 -28 23 -10 41 -22 41 -26 0 -5 7 -8 15
-8 8 0 15 -4 15 -10 0 -5 6 -10 13 -10 11 0 35 -20 127 -103 63 -57 180 -209
180 -234 0 -7 3 -13 8 -13 8 0 32 -49 32 -67 0 -7 5 -13 10 -13 6 0 10 -10 10
-22 0 -15 3 -19 10 -12 8 8 1 31 -22 75 -18 35 -35 66 -38 69 -3 3 -12 17 -20
31 -8 15 -24 40 -35 55 -26 37 -217 233 -228 234 -5 0 -23 11 -41 25 -18 14
-38 25 -44 25 -7 0 -12 5 -12 10 0 6 -9 10 -20 10 -11 0 -20 5 -20 10 0 6 -7
10 -16 10 -8 0 -13 -4 -10 -8z"/>
<path d="M4023 5702 c-13 -26 -23 -55 -23 -64 0 -9 -5 -18 -12 -20 -7 -3 -9
-11 -4 -24 7 -15 9 -16 13 -4 8 26 20 54 42 98 22 46 26 62 14 62 -5 0 -18
-22 -30 -48z"/>
<path d="M10050 5710 c0 -16 4 -38 9 -48 12 -22 61 -259 61 -294 0 -31 15 -45
24 -22 11 28 6 64 -8 70 -10 4 -15 20 -14 47 0 41 -10 94 -32 172 -6 22 -14
52 -17 68 -8 39 -23 44 -23 7z"/>
<path d="M3960 5550 c0 -11 5 -20 10 -20 6 0 10 9 10 20 0 11 -4 20 -10 20 -5
0 -10 -9 -10 -20z"/>
<path d="M5560 5529 c-14 -6 -41 -8 -60 -5 -25 4 -41 0 -57 -14 -13 -10 -23
-21 -23 -24 0 -10 38 -7 45 4 3 6 21 10 39 10 17 0 37 5 43 11 11 11 217 7
287 -6 25 -5 37 -4 32 3 -14 22 -262 40 -306 21z"/>
<path d="M3100 5479 c0 -24 4 -38 10 -34 6 3 10 22 10 41 0 19 -4 34 -10 34
-5 0 -10 -18 -10 -41z"/>
<path d="M3942 5485 c-7 -22 -12 -47 -12 -55 0 -9 -5 -21 -11 -27 -6 -6 -9
-26 -7 -44 3 -30 4 -28 17 26 7 33 18 70 23 81 5 12 8 30 6 40 -3 13 -8 7 -16
-21z"/>
<path d="M5620 5490 c0 -5 5 -10 10 -10 6 0 10 5 10 10 0 6 -4 10 -10 10 -5 0
-10 -4 -10 -10z"/>
<path d="M5885 5490 c3 -5 15 -10 26 -10 10 0 19 5 19 10 0 6 -12 10 -26 10
-14 0 -23 -4 -19 -10z"/>
<path d="M5370 5470 c0 -5 6 -10 14 -10 8 0 18 5 21 10 3 6 -3 10 -14 10 -12
0 -21 -4 -21 -10z"/>
<path d="M5675 5470 c3 -5 8 -10 11 -10 2 0 4 5 4 10 0 6 -5 10 -11 10 -5 0
-7 -4 -4 -10z"/>
<path d="M5950 5470 c0 -5 7 -10 15 -10 8 0 15 5 15 10 0 6 -7 10 -15 10 -8 0
-15 -4 -15 -10z"/>
<path d="M4450 5455 c0 -8 5 -15 10 -15 6 0 10 7 10 15 0 8 -4 15 -10 15 -5 0
-10 -7 -10 -15z"/>
<path d="M4886 5443 c-15 -15 -29 -38 -32 -50 -4 -13 -10 -23 -15 -23 -5 0 -9
-6 -9 -14 0 -8 -3 -16 -7 -18 -13 -5 -57 -98 -50 -105 4 -3 8 -4 10 -2 1 2 20
40 42 84 22 44 45 85 50 91 34 39 46 56 42 61 -3 2 -17 -8 -31 -24z"/>
<path d="M5125 5450 c4 -6 11 -8 16 -5 14 9 11 15 -7 15 -8 0 -12 -5 -9 -10z"/>
<path d="M5276 5427 c-26 -17 -43 -33 -36 -35 7 -3 15 0 19 5 3 5 27 20 54 32
26 13 47 25 47 27 0 12 -41 -2 -84 -29z"/>
<path d="M5990 5455 c0 -2 17 -13 38 -23 20 -10 48 -25 62 -33 36 -20 200
-189 200 -205 0 -8 5 -14 10 -14 6 0 10 3 10 6 0 24 -147 181 -202 217 -74 47
-118 66 -118 52z"/>
<path d="M8485 5432 c2 -9 4 -25 4 -34 1 -10 6 -18 11 -18 15 0 12 57 -4 63
-9 4 -13 0 -11 -11z"/>
<path d="M4435 5415 c-4 -11 -14 -35 -21 -54 -8 -18 -14 -44 -14 -56 0 -13 -5
-25 -11 -27 -6 -2 -9 -15 -7 -28 3 -21 6 -18 17 20 7 25 17 53 22 62 5 10 9
26 9 37 0 11 5 21 11 23 6 2 9 13 7 23 -5 20 -5 20 -13 0z"/>
<path d="M5788 5413 c7 -3 16 -2 19 1 4 3 -2 6 -13 5 -11 0 -14 -3 -6 -6z"/>
<path d="M3075 5363 c-28 -187 -33 -272 -33 -523 0 -200 5 -323 16 -400 6 -41
14 -96 18 -122 4 -27 11 -48 15 -48 12 0 11 73 0 85 -11 11 -18 98 -29 328 -9
210 9 621 29 642 11 12 12 85 0 85 -4 0 -12 -21 -16 -47z"/>
<path d="M5138 5315 c-70 -70 -108 -92 -108 -63 0 6 -3 8 -7 5 -3 -4 2 -16 12
-28 16 -16 17 -22 6 -28 -8 -5 -10 -14 -6 -21 6 -9 10 -8 17 5 9 15 13 14 39
-11 33 -32 39 -28 9 6 -11 13 -20 29 -20 37 0 19 109 133 127 133 7 0 13 -9
13 -20 0 -11 5 -20 10 -20 6 0 10 9 10 20 0 11 -5 20 -11 20 -6 0 -9 7 -6 15
15 36 -16 18 -85 -50z"/>
<path d="M5527 5363 c-11 -10 -8 -51 3 -58 6 -4 10 8 10 29 0 37 -2 41 -13 29z"/>
<path d="M8510 5340 c0 -17 4 -38 9 -48 38 -70 55 -571 25 -747 -8 -49 -14
-104 -14 -122 0 -17 -4 -34 -10 -38 -5 -3 -10 -24 -10 -45 0 -21 -4 -40 -9
-42 -14 -5 -18 -51 -5 -55 7 -2 14 10 17 29 5 37 32 146 47 194 6 17 10 51 9
75 -1 24 3 56 9 70 14 35 14 436 1 461 -6 11 -12 45 -13 76 -2 31 -9 77 -15
102 -6 25 -14 62 -18 83 -7 44 -23 49 -23 7z"/>
<path d="M4952 5332 c-10 -3 -7 -11 9 -28 26 -27 50 -33 27 -6 -9 9 -17 22
-19 28 -2 6 -10 9 -17 6z"/>
<path d="M3890 5289 c0 -17 4 -28 10 -24 6 3 10 17 10 31 0 13 -4 24 -10 24
-5 0 -10 -14 -10 -31z"/>
<path d="M5335 5300 c-3 -11 -2 -28 4 -37 8 -15 10 -11 11 20 0 41 -5 47 -15
17z"/>
<path d="M5240 5280 c0 -11 5 -20 10 -20 6 0 10 -7 10 -15 0 -8 4 -23 9 -33 5
-9 16 -32 24 -51 8 -18 17 -29 21 -23 5 8 -17 65 -44 114 -6 10 -10 25 -10 33
0 8 -4 15 -10 15 -5 0 -10 -9 -10 -20z"/>
<path d="M10147 5294 c-11 -11 -8 -114 3 -114 6 0 10 -118 10 -334 0 -213 -4
-337 -10 -341 -12 -8 -13 -95 -1 -114 13 -20 19 27 32 252 15 261 -6 678 -34
651z"/>
<path d="M5506 5264 c-9 -25 -7 -64 4 -64 6 0 10 18 10 40 0 43 -4 50 -14 24z"/>
<path d="M5600 5260 c0 -19 3 -21 12 -12 9 9 9 15 0 24 -9 9 -12 7 -12 -12z"/>
<path d="M5150 5257 c0 -9 3 -17 8 -17 4 0 16 -18 26 -40 11 -22 23 -40 28
-40 4 0 8 -7 8 -15 0 -8 4 -15 8 -15 5 0 15 -12 23 -27 14 -29 33 -54 59 -81
8 -9 14 -18 12 -21 -2 -3 1 -7 7 -9 18 -6 12 8 -19 48 -16 21 -30 42 -30 47 0
6 -9 18 -20 28 -11 10 -20 24 -20 31 0 8 -9 19 -20 26 -11 7 -20 16 -20 21 0
4 -11 25 -25 45 -16 24 -25 31 -25 19z"/>
<path d="M4850 5216 c0 -19 4 -23 20 -19 10 3 26 -2 34 -10 9 -8 32 -25 52
-37 32 -20 35 -26 30 -53 -3 -16 -6 -34 -6 -40 0 -5 -14 -7 -35 -4 -31 5 -33
4 -21 -9 8 -8 19 -14 25 -14 6 0 11 -9 11 -20 0 -18 2 -19 20 -8 16 10 24 10
41 0 15 -10 24 -11 32 -3 8 8 5 11 -11 11 -12 0 -22 5 -22 10 0 6 -7 10 -15
10 -8 0 -15 9 -15 19 0 21 39 74 40 54 0 -7 5 -13 11 -13 6 0 28 -13 49 -30
21 -16 43 -30 49 -30 6 0 11 -3 11 -8 0 -4 8 -12 18 -17 60 -33 141 -92 139
-100 -2 -5 -16 -16 -31 -24 -22 -10 -25 -15 -15 -22 8 -5 11 -9 7 -10 -5 -1
-12 -3 -18 -4 -5 -1 -22 -4 -37 -5 l-28 -3 30 -6 c56 -13 95 -33 95 -49 0 -12
-3 -13 -12 -4 -17 17 -38 15 -38 -3 0 -9 6 -12 15 -9 30 12 14 -12 -25 -36
-22 -14 -40 -28 -40 -32 0 -5 -7 -8 -15 -8 -8 0 -15 -4 -15 -10 0 -5 -5 -10
-11 -10 -6 0 -25 -11 -43 -25 -18 -14 -36 -25 -40 -25 -4 0 -16 -9 -28 -20
-35 -32 -59 -23 -65 26 -3 17 6 25 39 40 33 13 39 18 23 22 -10 2 -21 -1 -23
-7 -6 -18 -52 -13 -59 7 -6 14 -8 13 -13 -8 -3 -14 -19 -31 -35 -40 -25 -12
-27 -15 -11 -18 10 -2 22 1 26 7 12 21 38 0 45 -37 6 -30 3 -38 -17 -54 -13
-9 -27 -18 -31 -18 -5 0 -5 -4 -2 -10 4 -6 18 -1 35 12 25 18 31 19 46 7 16
-12 17 -12 12 6 -5 22 3 33 44 54 15 8 37 22 47 33 11 10 23 18 27 18 4 0 22
11 40 25 18 14 35 25 39 25 3 0 14 8 25 18 10 9 32 25 49 35 29 17 30 17 24 1
-5 -13 -3 -16 10 -11 14 5 15 3 5 -18 -6 -14 -15 -25 -20 -25 -4 0 -8 -5 -8
-11 0 -6 -11 -25 -25 -43 -14 -18 -25 -38 -25 -44 0 -6 -4 -12 -9 -14 -14 -5
-83 -118 -79 -129 2 -6 10 2 18 18 8 15 23 35 32 44 10 9 18 19 18 22 0 9 64
101 73 105 4 2 7 9 7 17 0 7 6 18 14 24 19 16 28 -20 9 -37 -7 -7 -11 -18 -7
-23 3 -6 -2 -16 -12 -24 -14 -10 -16 -17 -8 -25 8 -8 14 -2 23 22 7 18 17 41
22 51 6 10 8 31 6 45 -2 15 -2 21 0 15 3 -7 9 -13 15 -13 10 0 9 -16 -8 -107
-4 -21 -2 -33 5 -33 6 0 11 17 11 40 0 22 5 40 10 40 13 0 13 63 -1 77 -8 8
-8 13 0 17 27 17 31 -12 31 -216 0 -116 3 -209 6 -205 4 3 8 88 9 188 1 113 6
183 12 187 6 4 13 16 16 27 2 11 3 -11 1 -50 -1 -38 -1 -59 2 -45 8 39 26 83
42 102 13 15 17 14 50 -15 19 -18 49 -47 65 -65 17 -17 33 -30 36 -27 3 3 -23
32 -57 65 -65 61 -84 97 -31 60 35 -26 52 -19 21 9 -26 22 -28 31 -7 31 8 0
15 -4 15 -10 0 -5 7 -10 15 -10 8 0 24 -4 35 -10 11 -5 29 -15 41 -21 12 -6
24 -8 27 -5 7 7 7 7 -53 35 -27 13 -58 28 -69 33 -12 6 -22 6 -29 -1 -16 -16
-27 -14 -21 4 3 7 26 22 50 31 46 17 50 39 6 31 -25 -5 -25 -4 -8 9 18 13 18
14 -5 23 -14 5 -31 17 -39 27 -8 10 -10 15 -5 12 6 -4 26 7 45 23 24 19 30 29
19 29 -9 0 -22 -7 -29 -15 -7 -8 -19 -15 -26 -15 -8 0 -11 6 -8 15 4 8 2 15
-4 15 -6 0 -12 -5 -14 -12 -3 -9 -6 -9 -12 0 -4 7 -2 12 3 12 6 0 11 6 11 13
0 7 8 22 18 33 9 11 22 27 27 36 6 8 27 41 48 72 20 31 37 61 37 66 0 6 5 10
12 10 6 0 8 3 5 7 -9 9 -47 -27 -47 -44 0 -7 -7 -16 -15 -19 -8 -4 -13 -10
-10 -14 2 -4 -4 -15 -15 -25 -11 -10 -20 -23 -20 -30 0 -6 -8 -20 -17 -31 -10
-11 -23 -29 -29 -39 -6 -10 -15 -20 -21 -22 -9 -3 -29 48 -36 97 -3 14 -5 4
-6 -22 -1 -54 -20 -76 -23 -26 0 18 0 40 0 48 1 8 -2 26 -5 40 -5 17 -9 -7
-13 -69 -3 -65 -9 -96 -18 -99 -10 -3 -11 7 -6 47 4 35 3 51 -5 51 -7 0 -11
19 -11 49 0 28 -4 53 -10 56 -5 3 -10 23 -11 43 0 34 -1 35 -10 13 -6 -15 -6
-35 0 -55 29 -97 38 -166 22 -166 -5 0 -11 -6 -14 -12 -2 -7 -2 -2 0 13 4 29
-22 99 -29 78 -3 -8 -1 -22 4 -32 13 -25 1 -70 -22 -85 -22 -14 -63 4 -114 50
-17 16 -37 28 -43 28 -7 0 -13 4 -13 8 0 5 -12 15 -27 23 -16 8 -32 17 -38 22
-5 4 -22 16 -37 27 -18 14 -25 27 -22 42 4 21 4 21 -8 6 -11 -16 -15 -15 -53
5 -22 12 -52 34 -68 49 -34 34 -47 35 -47 4z m627 -238 c-3 -8 -6 -5 -6 6 -1
11 2 17 5 13 3 -3 4 -12 1 -19z m-5 -70 c46 -22 51 -86 11 -124 -72 -66 -168
42 -98 111 27 28 49 31 87 13z"/>
<path d="M5390 4870 c-19 -26 -20 -33 -8 -48 20 -26 31 -32 60 -32 46 0 62 50
29 88 -26 31 -56 27 -81 -8z"/>
<path d="M5571 5197 c-27 -68 -34 -83 -42 -99 -12 -23 -11 -38 1 -38 6 0 10 6
10 14 0 12 17 51 52 120 5 10 6 22 1 27 -5 5 -14 -6 -22 -24z"/>
<path d="M3870 5185 c0 -19 5 -35 10 -35 6 0 10 16 10 35 0 19 -4 35 -10 35
-5 0 -10 -16 -10 -35z"/>
<path d="M4750 5206 c0 -8 5 -18 10 -21 6 -3 10 3 10 14 0 12 -4 21 -10 21 -5
0 -10 -6 -10 -14z"/>
<path d="M4360 5179 c0 -17 4 -28 10 -24 6 3 10 17 10 31 0 13 -4 24 -10 24
-5 0 -10 -14 -10 -31z"/>
<path d="M6840 5173 c0 -21 3 -24 9 -14 5 8 7 20 4 28 -8 21 -13 15 -13 -14z"/>
<path d="M5486 5158 c-5 -16 -5 -36 0 -45 7 -16 8 -15 11 5 3 12 3 32 0 45 -3
21 -4 20 -11 -5z"/>
<path d="M4733 5154 c-3 -8 -1 -20 6 -27 8 -8 11 -4 11 16 0 30 -7 35 -17 11z"/>
<path d="M6310 5165 c0 -2 9 -20 20 -40 11 -20 20 -43 20 -52 0 -12 3 -14 11
-6 7 7 7 17 1 29 -5 11 -15 31 -23 47 -10 23 -29 37 -29 22z"/>
<path d="M5130 5144 c0 -5 16 -24 35 -43 19 -19 35 -30 35 -24 0 5 -16 24 -35
43 -19 19 -35 30 -35 24z"/>
<path d="M6856 5131 c-4 -6 -4 -21 0 -33 6 -19 7 -19 16 -5 11 20 -5 57 -16
38z"/>
<path d="M4340 5073 c0 -35 3 -44 10 -33 13 20 13 67 0 75 -6 4 -10 -12 -10
-42z"/>
<path d="M5315 5110 c-4 -6 -3 -16 3 -22 6 -6 12 -6 17 2 4 6 3 16 -3 22 -6 6
-12 6 -17 -2z"/>
<path d="M4717 5103 c-11 -10 -8 -53 3 -53 6 0 10 14 10 30 0 31 -2 35 -13 23z"/>
<path d="M3851 4993 c1 -83 3 -91 10 -53 11 65 11 150 -1 150 -6 0 -10 -38 -9
-97z"/>
<path d="M5245 5018 c22 -24 41 -45 43 -47 1 -2 2 1 2 8 0 13 -65 81 -77 81
-4 0 11 -19 32 -42z"/>
<path d="M6876 5051 c-12 -18 2 -67 16 -53 7 7 7 20 1 38 -6 19 -12 24 -17 15z"/>
<path d="M5504 5039 c-3 -6 -1 -16 5 -22 8 -8 11 -5 11 11 0 24 -5 28 -16 11z"/>
<path d="M6365 5033 c2 -10 4 -22 4 -27 1 -6 6 -5 12 1 13 13 5 43 -10 43 -5
0 -8 -8 -6 -17z"/>
<path d="M4695 4968 c-11 -107 -11 -162 2 -270 13 -105 32 -163 33 -96 0 20
-5 38 -11 40 -8 3 -11 64 -11 201 0 108 -1 197 -3 197 -1 0 -6 -33 -10 -72z"/>
<path d="M5592 5010 c-18 -16 -28 -30 -24 -30 5 0 21 14 37 30 16 17 26 30 23
30 -3 0 -19 -13 -36 -30z"/>
<path d="M6092 4990 c0 -19 2 -27 5 -17 2 9 2 25 0 35 -3 9 -5 1 -5 -18z"/>
<path d="M5766 4993 c-11 -11 -6 -23 8 -23 8 0 17 4 20 9 7 10 -19 23 -28 14z"/>
<path d="M5075 4980 c3 -5 13 -10 21 -10 8 0 14 5 14 10 0 6 -9 10 -21 10 -11
0 -17 -4 -14 -10z"/>
<path d="M4320 4846 c0 -84 4 -136 10 -136 6 0 10 50 10 129 0 76 -4 132 -10
136 -6 4 -10 -42 -10 -129z"/>
<path d="M6897 4903 c-4 -43 -2 -107 2 -143 7 -57 8 -47 10 78 0 78 -1 142 -3
142 -2 0 -6 -35 -9 -77z"/>
<path d="M5125 4960 c3 -5 21 -12 40 -16 19 -3 35 -10 35 -15 0 -5 11 -9 25
-9 14 0 25 -4 25 -10 0 -5 9 -10 20 -10 11 0 20 5 20 10 0 6 -9 10 -19 10 -11
0 -22 4 -25 9 -4 5 -24 12 -46 16 -22 4 -42 11 -46 16 -3 5 -12 9 -20 9 -8 0
-13 -4 -9 -10z"/>
<path d="M5710 4961 c0 -5 -12 -11 -27 -14 -76 -15 -132 -47 -83 -47 11 0 20
5 20 10 0 6 7 10 15 10 8 0 23 4 33 9 9 5 33 16 52 24 29 13 31 16 13 16 -13
1 -23 -3 -23 -8z"/>
<path d="M6389 4959 c-9 -29 -4 -234 6 -237 13 -3 19 213 7 234 -7 13 -10 13
-13 3z"/>
<path d="M4924 4952 c-30 -9 -74 -44 -74 -58 0 -7 14 1 31 17 38 35 76 37 123
7 31 -20 33 -25 31 -70 -3 -67 -32 -98 -92 -98 -33 0 -50 6 -68 25 -31 30 -33
13 -2 -19 28 -29 91 -41 111 -20 8 8 26 14 41 14 23 0 24 2 15 20 -7 14 -7 20
0 20 6 0 10 24 10 55 l0 55 36 0 c21 0 33 4 29 10 -9 14 -62 12 -68 -2 -4 -9
-6 -8 -6 3 -1 8 -18 23 -39 32 -41 18 -45 19 -78 9z"/>
<path d="M5160 4890 c0 -5 14 -10 30 -10 17 0 30 5 30 10 0 6 -13 10 -30 10
-16 0 -30 -4 -30 -10z"/>
<path d="M5650 4890 c0 -5 14 -10 30 -10 17 0 30 5 30 10 0 6 -13 10 -30 10
-16 0 -30 -4 -30 -10z"/>
<path d="M7633 4850 c0 -30 2 -43 4 -27 2 15 2 39 0 55 -2 15 -4 2 -4 -28z"/>
<path d="M4920 4859 c0 -18 2 -19 15 -5 8 8 15 17 15 20 0 3 -7 6 -15 6 -9 0
-15 -9 -15 -21z"/>
<path d="M4832 4840 c0 -19 2 -27 5 -17 2 9 2 25 0 35 -3 9 -5 1 -5 -18z"/>
<path d="M4920 4821 c0 -6 5 -13 10 -16 6 -3 10 1 10 9 0 9 -4 16 -10 16 -5 0
-10 -4 -10 -9z"/>
<path d="M6112 4795 c0 -16 2 -22 5 -12 2 9 2 23 0 30 -3 6 -5 -1 -5 -18z"/>
<path d="M5175 4800 c-8 -12 17 -23 41 -18 10 1 19 9 22 16 5 15 -54 17 -63 2z"/>
<path d="M5630 4801 c0 -6 5 -13 11 -16 15 -10 61 4 54 15 -8 13 -65 13 -65 1z"/>
<path d="M5070 4780 c-11 -7 -3 -10 30 -10 33 0 41 3 30 10 -8 5 -22 10 -30
10 -8 0 -22 -5 -30 -10z"/>
<path d="M3851 4688 c-1 -60 3 -98 9 -98 12 0 12 98 1 155 -7 32 -9 21 -10
-57z"/>
<path d="M5210 4761 c-49 -27 -104 -51 -116 -51 -8 0 -14 -4 -14 -10 0 -12 15
-13 38 -1 16 8 31 15 100 43 17 7 32 16 32 20 0 10 -21 9 -40 -1z"/>
<path d="M4755 4740 c-3 -5 -1 -18 4 -27 9 -16 10 -14 11 10 0 28 -5 34 -15
17z"/>
<path d="M7600 4617 c-7 -59 -17 -110 -21 -113 -5 -3 -9 -20 -9 -39 0 -19 -4
-37 -10 -40 -12 -7 -13 -55 -2 -55 11 0 49 144 68 255 3 17 2 46 -4 65 -8 31
-10 24 -22 -73z"/>
<path d="M5262 4684 c-17 -18 -19 -24 -8 -24 9 0 20 9 26 21 16 29 9 30 -18 3z"/>
<path d="M5520 4696 c0 -8 4 -16 9 -18 4 -1 47 -63 95 -137 48 -73 90 -131 93
-128 6 7 -102 180 -123 198 -8 6 -14 16 -14 21 0 5 -9 18 -20 30 -11 12 -20
28 -20 35 0 7 -4 13 -10 13 -5 0 -10 -6 -10 -14z"/>
<path d="M5630 4700 c0 -5 4 -10 9 -10 6 0 13 5 16 10 3 6 -1 10 -9 10 -9 0
-16 -4 -16 -10z"/>
<path d="M6875 4680 c-4 -6 -4 -23 0 -38 l7 -27 10 28 c11 31 -3 60 -17 37z"/>
<path d="M6366 4664 c-7 -19 2 -37 15 -29 12 8 12 45 0 45 -5 0 -12 -7 -15
-16z"/>
<path d="M5500 4656 c0 -8 5 -18 10 -21 6 -3 10 3 10 14 0 12 -4 21 -10 21 -5
0 -10 -6 -10 -14z"/>
<path d="M4340 4607 c0 -30 4 -46 10 -42 13 8 13 55 0 75 -7 11 -10 2 -10 -33z"/>
<path d="M6072 4620 c0 -14 2 -19 5 -12 2 6 2 18 0 25 -3 6 -5 1 -5 -13z"/>
<path d="M4850 4610 c0 -5 9 -10 20 -10 11 0 20 5 20 10 0 6 -9 10 -20 10 -11
0 -20 -4 -20 -10z"/>
<path d="M5522 4603 c2 -9 8 -18 15 -20 7 -3 9 3 6 16 -6 25 -26 28 -21 4z"/>
<path d="M6340 4580 c-7 -22 -17 -40 -22 -40 -4 0 -8 -5 -8 -11 0 -19 -63
-103 -116 -154 -67 -65 -76 -72 -140 -110 -29 -18 -51 -35 -48 -38 6 -6 55 19
109 56 43 29 175 167 175 183 0 8 5 14 10 14 6 0 10 6 10 14 0 8 3 16 8 18 15
6 53 91 44 100 -5 5 -14 -9 -22 -32z"/>
<path d="M4808 4595 c-3 -3 -3 -17 0 -31 l4 -25 14 27 c8 14 14 28 14 30 0 6
-26 5 -32 -1z"/>
<path d="M6855 4580 c-7 -23 2 -43 16 -35 12 8 12 42 0 50 -5 3 -12 -4 -16
-15z"/>
<path d="M5480 4553 c0 -16 5 -35 10 -43 7 -11 10 -4 10 28 0 23 -4 42 -10 42
-5 0 -10 -12 -10 -27z"/>
<path d="M4730 4541 c0 -11 5 -23 10 -26 6 -4 10 5 10 19 0 14 -4 26 -10 26
-5 0 -10 -9 -10 -19z"/>
<path d="M5291 4519 c-19 -43 -8 -57 11 -15 10 19 14 37 10 40 -4 2 -14 -9
-21 -25z"/>
<path d="M3870 4501 c0 -23 5 -41 10 -41 6 0 10 15 10 34 0 19 -4 38 -10 41
-6 4 -10 -10 -10 -34z"/>
<path d="M4360 4500 c0 -18 4 -29 10 -25 6 3 10 15 10 25 0 10 -4 22 -10 25
-6 4 -10 -7 -10 -25z"/>
<path d="M6837 4511 c-3 -12 -2 -23 3 -26 12 -7 22 27 12 37 -6 6 -12 1 -15
-11z"/>
<path d="M4903 4498 c-4 -7 -21 -20 -37 -28 -16 -8 -31 -21 -34 -28 -2 -7 19
2 47 19 28 18 48 36 45 40 -7 12 -12 11 -21 -3z"/>
<path d="M5030 4500 c0 -6 7 -13 15 -16 8 -4 15 -12 15 -19 0 -6 9 -23 21 -36
37 -43 86 -94 110 -114 36 -30 138 -95 149 -95 17 0 11 17 -7 23 -24 8 -76 40
-85 52 -4 6 -8 6 -8 1 0 -15 -158 152 -175 184 -15 29 -35 40 -35 20z"/>
<path d="M4755 4487 c-4 -10 -5 -21 -1 -24 10 -10 18 4 13 24 -4 17 -4 17 -12
0z"/>
<path d="M5500 4453 c0 -16 5 -35 10 -43 7 -11 10 -4 10 28 0 23 -4 42 -10 42
-5 0 -10 -12 -10 -27z"/>
<path d="M6820 4462 c0 -12 -4 -22 -10 -22 -5 0 -10 -6 -10 -13 0 -18 -24 -67
-32 -67 -5 0 -8 -5 -8 -10 0 -16 -49 -88 -107 -158 -50 -59 -59 -72 -48 -72
17 0 155 175 155 198 0 6 3 12 8 14 4 2 22 32 40 67 22 44 29 68 22 75 -7 7
-10 3 -10 -12z"/>
<path d="M4380 4426 c0 -22 3 -27 11 -19 8 8 8 16 0 30 -9 16 -10 14 -11 -11z"/>
<path d="M4770 4441 c0 -16 43 -91 53 -91 5 0 7 3 5 8 -2 4 -12 26 -23 50 -18
39 -35 55 -35 33z"/>
<path d="M3890 4391 c0 -17 5 -31 10 -31 6 0 10 11 10 24 0 14 -4 28 -10 31
-6 4 -10 -7 -10 -24z"/>
<path d="M4401 4379 c-1 -32 42 -144 86 -219 8 -14 17 -33 20 -42 3 -10 9 -18
13 -18 4 0 11 -12 14 -26 4 -14 29 -54 56 -89 28 -36 50 -67 50 -70 0 -3 10
-16 23 -29 12 -13 30 -33 40 -46 10 -12 21 -19 24 -16 3 3 -11 25 -31 48 -83
96 -246 364 -246 404 0 8 -4 14 -10 14 -5 0 -10 10 -10 23 0 13 -4 27 -9 33
-5 5 -11 20 -14 34 l-4 25 -2 -26z"/>
<path d="M5527 4373 c-11 -10 -8 -51 3 -58 6 -4 10 8 10 29 0 37 -2 41 -13 29z"/>
<path d="M7516 4307 c-10 -28 -23 -67 -30 -84 -6 -18 -14 -33 -18 -33 -5 0 -8
-9 -8 -20 0 -11 -4 -20 -10 -20 -5 0 -10 -5 -10 -10 0 -6 -10 -26 -22 -44 -20
-30 -26 -33 -55 -29 -45 7 -75 -2 -106 -33 -25 -25 -39 -83 -17 -69 6 3 10 14
10 24 0 28 55 71 91 71 22 0 40 -10 65 -36 33 -36 46 -33 22 5 -10 16 -4 35
37 118 27 54 53 109 58 123 5 14 13 33 18 42 5 10 9 25 9 33 0 31 -16 13 -34
-38z"/>
<path d="M3911 4318 c-1 -20 3 -39 8 -42 5 -3 12 -25 15 -48 9 -58 26 -84 26
-40 0 17 -4 32 -10 32 -5 0 -10 10 -10 23 0 12 -7 42 -14 67 l-15 45 0 -37z"/>
<path d="M10126 4338 c-3 -7 -7 -29 -9 -48 -8 -64 -48 -255 -58 -272 -11 -22
-12 -68 0 -68 5 0 11 12 14 28 3 15 11 45 17 67 22 76 32 130 32 169 0 22 6
46 14 53 16 17 19 69 4 78 -6 3 -12 0 -14 -7z"/>
<path d="M4826 4325 c4 -8 10 -15 15 -15 5 0 9 -5 9 -11 0 -17 94 -138 113
-145 9 -3 17 -10 17 -16 0 -14 111 -117 127 -118 6 0 13 -4 15 -8 4 -12 95
-72 107 -72 6 0 11 -4 11 -10 0 -5 6 -10 13 -10 31 0 97 -41 97 -60 0 -25 20
-70 42 -94 24 -27 22 -7 -2 24 -11 14 -20 35 -20 46 0 28 22 71 46 89 13 10
15 14 5 15 -7 0 -23 -10 -35 -23 -12 -13 -28 -22 -36 -19 -34 9 -109 49 -168
89 -35 24 -65 43 -68 43 -16 0 -184 176 -227 238 -47 67 -74 93 -61 57z"/>
<path d="M5845 4310 c-3 -5 -1 -10 4 -10 6 0 11 5 11 10 0 6 -2 10 -4 10 -3 0
-8 -4 -11 -10z"/>
<path d="M3100 4206 c0 -19 5 -38 10 -41 6 -4 10 10 10 34 0 23 -4 41 -10 41
-5 0 -10 -15 -10 -34z"/>
<path d="M5365 4220 c-8 -13 15 -24 27 -12 6 6 4 11 -6 15 -8 3 -18 2 -21 -3z"/>
<path d="M8461 4183 c-8 -27 -17 -52 -20 -58 -13 -19 -33 -87 -28 -92 11 -11
26 9 33 42 3 20 10 38 15 41 5 3 9 16 9 29 0 13 5 27 10 30 12 7 14 55 2 55
-4 0 -14 -21 -21 -47z"/>
<path d="M5950 4210 c0 -5 -13 -10 -30 -10 -16 0 -30 -4 -30 -8 0 -13 -202
-35 -246 -28 -21 4 -73 8 -114 10 -41 3 -61 2 -45 -1 17 -2 34 -9 39 -14 14
-12 283 -12 291 1 3 6 17 10 31 10 14 0 52 8 84 18 60 17 78 32 40 32 -11 0
-20 -4 -20 -10z"/>
<path d="M5218 4193 c6 -2 18 -2 25 0 6 3 1 5 -13 5 -14 0 -19 -2 -12 -5z"/>
<path d="M5410 4190 c20 -13 40 -13 40 0 0 6 -12 10 -27 10 -22 0 -25 -2 -13
-10z"/>
<path d="M5398 4153 c7 -3 16 -2 19 1 4 3 -2 6 -13 5 -11 0 -14 -3 -6 -6z"/>
<path d="M3120 4116 c0 -20 5 -36 10 -36 6 0 10 -14 10 -31 0 -34 25 -133 40
-161 6 -10 10 -29 10 -43 0 -14 5 -25 10 -25 6 0 10 14 10 30 0 17 -4 30 -10
30 -5 0 -10 13 -10 28 0 16 -3 32 -7 36 -4 3 -8 14 -9 24 -1 9 -9 42 -18 72
-9 30 -16 65 -16 77 0 12 -4 25 -10 28 -6 4 -10 -8 -10 -29z"/>
<path d="M3960 4136 c0 -8 5 -18 10 -21 6 -3 10 3 10 14 0 12 -4 21 -10 21 -5
0 -10 -6 -10 -14z"/>
<path d="M6534 4075 c-44 -39 -42 -38 -106 -82 -25 -18 -51 -33 -57 -33 -6 0
-11 -4 -11 -10 0 -5 -9 -10 -20 -10 -11 0 -20 -4 -20 -10 0 -5 -7 -10 -15 -10
-8 0 -15 -5 -15 -11 0 -6 3 -9 8 -7 4 2 26 12 50 23 23 11 42 23 42 27 0 5 5
8 11 8 25 0 208 149 183 150 -5 0 -28 -16 -50 -35z"/>
<path d="M3984 4086 c-5 -13 -3 -21 4 -24 7 -2 12 -11 12 -21 0 -22 23 -71 33
-71 4 0 7 -10 7 -22 0 -15 3 -19 10 -12 8 8 4 24 -11 55 -22 45 -34 73 -42 99
-4 12 -6 11 -13 -4z"/>
<path d="M8390 4005 c0 -18 -32 -89 -42 -93 -5 -2 -8 -9 -8 -16 0 -18 -24 -66
-32 -66 -5 0 -8 -4 -8 -9 0 -23 -144 -240 -219 -331 -103 -124 -136 -159 -244
-255 -110 -98 -121 -107 -161 -135 -38 -27 -45 -40 -21 -40 8 0 15 4 15 9 0 5
8 12 18 15 9 3 31 19 47 34 17 15 40 35 53 44 67 46 269 258 348 364 36 49 72
97 80 107 8 9 14 19 14 21 0 2 15 27 34 55 18 29 53 91 77 139 24 48 47 89 51
90 5 2 8 12 8 22 0 10 5 22 10 25 15 10 12 35 -5 35 -8 0 -15 -7 -15 -15z"/>
<path d="M7337 3982 c-34 -4 -52 -34 -37 -62 16 -29 33 -25 26 5 -9 36 2 50
24 30 16 -15 18 -15 24 1 9 23 -3 30 -37 26z"/>
<path d="M7440 3955 c1 -26 2 -28 11 -12 8 14 8 22 0 30 -8 8 -11 3 -11 -18z"/>
<path d="M5445 3950 c3 -5 17 -10 31 -10 13 0 24 5 24 10 0 6 -14 10 -31 10
-17 0 -28 -4 -24 -10z"/>
<path d="M7230 3925 c0 -14 5 -25 10 -25 6 0 10 -10 10 -22 0 -29 -177 -201
-275 -268 -27 -18 -52 -37 -55 -40 -3 -4 -15 -10 -27 -14 -24 -8 -30 -21 -14
-31 6 -3 13 0 18 7 4 7 15 18 24 23 60 37 104 69 107 76 2 5 9 9 16 9 7 0 61
48 122 107 l109 108 55 -3 c46 -3 59 1 83 21 27 24 36 47 17 47 -5 0 -10 -6
-10 -14 0 -15 -58 -46 -86 -46 -30 0 -84 43 -84 68 0 12 -4 22 -10 22 -5 0
-10 -11 -10 -25z"/>
<path d="M5533 3919 c15 -11 27 -29 27 -40 0 -10 5 -19 10 -19 6 0 10 6 10 13
0 18 -45 67 -61 67 -8 0 -2 -10 14 -21z"/>
<path d="M4057 3923 c-3 -5 -2 -15 2 -22 7 -10 10 -10 16 -1 4 6 3 16 -3 22
-5 5 -12 6 -15 1z"/>
<path d="M7347 3923 c-12 -11 -8 -23 7 -23 8 0 16 7 20 15 5 15 -14 21 -27 8z"/>
<path d="M10020 3879 c-8 -27 -18 -52 -22 -55 -4 -3 -8 -16 -8 -30 0 -13 -4
-24 -10 -24 -5 0 -10 -9 -10 -20 0 -11 -5 -30 -12 -43 -23 -44 -28 -57 -28
-67 0 -6 -11 -33 -25 -62 -14 -28 -25 -60 -25 -69 0 -10 -3 -19 -8 -21 -4 -1
-23 -34 -42 -73 -19 -38 -54 -103 -77 -143 -24 -41 -43 -75 -43 -77 0 -6 -152
-239 -159 -245 -3 -3 -18 -21 -32 -40 -15 -19 -36 -46 -48 -59 -11 -13 -21
-27 -21 -30 0 -3 -15 -22 -33 -43 -19 -20 -51 -57 -73 -83 -49 -60 -221 -232
-293 -294 -30 -25 -64 -56 -77 -67 -12 -12 -37 -32 -56 -45 -18 -13 -35 -26
-38 -29 -3 -3 -23 -19 -45 -35 -22 -17 -42 -32 -45 -36 -12 -13 -237 -160
-307 -200 -86 -50 -350 -185 -390 -200 -38 -15 -65 -26 -131 -53 -35 -14 -70
-26 -78 -26 -8 0 -22 -4 -32 -9 -45 -23 -191 -71 -216 -71 -9 0 -16 -4 -16 -8
0 -5 -14 -9 -32 -10 -17 0 -34 -6 -38 -12 -4 -7 -18 -11 -31 -9 -13 1 -35 -1
-47 -5 -13 -4 -34 -9 -45 -11 -12 -2 -55 -10 -95 -19 -40 -9 -86 -16 -102 -16
-35 0 -51 -19 -18 -22 37 -2 72 3 83 12 6 5 26 9 45 8 19 0 73 9 120 22 47 12
100 24 118 27 18 3 35 9 38 14 3 5 18 9 35 9 16 0 29 5 29 10 0 6 15 10 34 10
19 0 38 4 41 10 3 5 16 10 29 10 12 0 26 4 32 8 5 5 28 14 52 21 23 6 42 16
42 22 0 6 5 7 11 3 6 -3 21 -2 32 3 25 12 73 32 102 44 93 37 349 161 353 171
2 5 7 8 12 8 5 0 43 20 84 45 42 25 81 45 85 45 5 0 11 4 13 8 2 5 46 37 98
72 94 63 196 138 235 174 11 10 36 30 55 44 42 32 176 158 283 267 67 68 279
325 312 376 6 9 36 55 68 102 31 47 57 90 57 96 0 6 4 11 8 11 5 0 14 16 22
35 8 19 16 35 20 35 3 0 23 35 44 78 21 42 44 88 52 102 16 29 62 125 75 158
20 50 32 78 39 92 4 8 15 42 24 75 10 33 22 68 27 77 5 10 9 27 9 38 0 11 5
20 10 20 6 0 10 11 10 25 0 41 -16 28 -30 -26z"/>
<path d="M5430 3845 l0 -55 35 0 c34 0 35 1 35 40 0 34 -4 41 -25 46 -14 3
-25 10 -25 15 0 5 -4 9 -10 9 -5 0 -10 -25 -10 -55z m60 -22 c0 -16 -26 -17
-35 -3 -4 6 -1 18 6 26 10 12 14 12 20 2 5 -7 9 -19 9 -25z"/>
<path d="M6235 3892 c-6 -5 -30 -15 -55 -22 -30 -9 -39 -15 -26 -18 10 -2 28
0 40 6 11 5 37 16 56 25 26 12 30 16 15 16 -12 1 -25 -3 -30 -7z"/>
<path d="M4080 3878 c0 -9 16 -44 35 -78 19 -34 35 -66 35 -71 0 -5 5 -9 10
-9 6 0 10 -7 10 -15 0 -8 5 -15 10 -15 6 0 10 -7 10 -15 0 -8 5 -15 10 -15 6
0 10 -6 10 -12 0 -7 16 -33 35 -58 19 -25 51 -67 72 -94 94 -123 403 -416 438
-416 6 0 17 -9 25 -20 8 -11 20 -20 26 -20 7 0 14 -4 16 -9 6 -17 138 -95 138
-82 0 7 -46 40 -145 103 -11 7 -22 15 -25 18 -3 3 -29 22 -58 43 -105 74 -293
258 -391 382 -40 50 -78 98 -86 108 -8 9 -15 20 -15 23 0 3 -11 20 -24 37 -24
32 -41 60 -99 167 -36 66 -37 67 -37 48z"/>
<path d="M6075 3840 c-4 -6 7 -10 24 -10 17 0 31 5 31 10 0 6 -11 10 -24 10
-14 0 -28 -4 -31 -10z"/>
<path d="M5565 3832 c-3 -3 -5 -12 -5 -19 0 -8 -11 -25 -25 -38 -18 -19 -35
-25 -70 -25 -25 0 -44 -4 -41 -9 3 -4 24 -8 46 -8 34 0 47 6 79 38 21 22 46
39 55 39 9 0 16 4 16 9 0 10 -47 21 -55 13z"/>
<path d="M5980 3820 c0 -5 16 -10 35 -10 19 0 35 5 35 10 0 6 -16 10 -35 10
-19 0 -35 -4 -35 -10z"/>
<path d="M4740 3806 c0 -7 17 -28 38 -45 20 -18 57 -51 82 -74 46 -43 145
-117 156 -117 4 0 12 -7 19 -17 8 -10 14 -12 19 -5 3 6 -11 20 -34 33 -22 13
-40 26 -40 31 0 4 -5 8 -11 8 -13 0 -91 65 -170 142 -33 32 -59 51 -59 44z"/>
<path d="M3210 3791 c0 -11 5 -23 10 -26 6 -3 10 -17 10 -31 0 -13 5 -24 10
-24 6 0 10 -8 10 -19 0 -33 66 -179 165 -366 33 -60 64 -120 69 -132 6 -13 14
-23 19 -23 4 0 7 -4 7 -9 0 -12 131 -211 154 -233 9 -9 16 -21 16 -26 0 -6 3
-12 8 -14 4 -1 26 -28 50 -58 107 -139 168 -206 349 -381 215 -208 533 -434
803 -570 52 -26 82 -39 158 -70 17 -8 32 -17 32 -21 0 -5 5 -8 10 -8 6 0 32
-9 58 -21 26 -12 57 -25 70 -30 12 -5 33 -14 46 -20 13 -6 29 -8 35 -5 6 4 11
3 11 -3 0 -5 33 -19 73 -31 39 -12 80 -26 89 -31 10 -5 27 -9 37 -9 11 0 23
-5 26 -10 8 -13 65 -13 65 0 0 6 -8 10 -17 10 -21 0 -90 23 -99 33 -4 4 -18 7
-31 7 -22 0 -32 3 -80 28 -13 7 -31 12 -41 12 -10 0 -22 4 -27 8 -6 5 -32 17
-60 26 -55 19 -91 34 -117 47 -10 5 -25 9 -33 9 -8 0 -15 5 -15 10 0 6 -4 10
-10 10 -11 0 -143 61 -150 70 -3 3 -34 20 -70 38 -80 40 -107 55 -192 110 -37
23 -72 42 -77 42 -5 0 -11 3 -13 8 -1 4 -46 37 -98 74 -84 60 -136 99 -174
133 -6 6 -45 38 -86 72 -108 88 -378 369 -439 457 -8 12 -17 23 -20 26 -4 3
-18 21 -33 42 -15 20 -34 42 -41 50 -8 7 -16 18 -18 23 -2 6 -29 48 -60 95
-31 47 -69 105 -84 130 -42 67 -127 229 -173 333 -12 26 -27 47 -32 47 -6 0
-8 5 -4 11 3 6 1 22 -5 35 -11 23 -24 56 -42 99 -4 11 -13 37 -20 58 -14 40
-29 49 -29 18z"/>
<path d="M5690 3800 c0 -6 43 -10 110 -10 67 0 110 4 110 10 0 6 -43 10 -110
10 -67 0 -110 -4 -110 -10z"/>
<path d="M5066 3542 c-3 -5 12 -18 32 -29 20 -11 54 -30 75 -42 21 -12 43 -19
48 -15 8 5 -19 22 -108 68 -13 6 -23 14 -23 19 0 10 -18 9 -24 -1z"/>
<path d="M6834 3520 c-5 -5 -31 -20 -57 -34 -33 -16 -44 -27 -36 -32 7 -4 15
-2 17 4 2 7 12 12 23 12 10 0 19 3 19 8 0 4 14 13 30 20 17 8 30 18 30 23 0
12 -13 12 -26 -1z"/>
<path d="M5236 3442 c5 -5 29 -16 54 -26 25 -10 53 -22 62 -27 10 -5 26 -9 36
-9 10 0 23 -5 29 -11 6 -6 19 -9 29 -7 16 4 13 7 -11 17 -16 7 -51 18 -77 24
-27 7 -48 15 -48 19 0 5 -9 8 -20 8 -11 0 -20 5 -20 10 0 6 -10 10 -22 10 -12
0 -18 -4 -12 -8z"/>
<path d="M6690 3440 c0 -5 6 -10 14 -10 8 0 18 5 21 10 3 6 -3 10 -14 10 -12
0 -21 -4 -21 -10z"/>
<path d="M6648 3418 c9 -9 15 -9 24 0 9 9 7 12 -12 12 -19 0 -21 -3 -12 -12z"/>
<path d="M6548 3390 c-59 -20 -70 -30 -35 -30 15 0 27 5 27 10 0 6 10 10 23
10 13 0 27 4 33 9 5 5 18 11 29 14 16 4 15 5 -5 5 -14 -1 -46 -8 -72 -18z"/>
<path d="M5480 3350 c0 -5 12 -10 26 -10 14 0 23 4 19 10 -3 6 -15 10 -26 10
-10 0 -19 -4 -19 -10z"/>
<path d="M6430 3350 c0 -5 12 -10 26 -10 14 0 23 4 19 10 -3 6 -15 10 -26 10
-10 0 -19 -4 -19 -10z"/>
<path d="M5550 3330 c0 -5 14 -10 31 -10 17 0 28 4 24 10 -3 6 -17 10 -31 10
-13 0 -24 -4 -24 -10z"/>
<path d="M6345 3330 c-4 -6 6 -10 24 -10 16 0 33 5 36 10 4 6 -6 10 -24 10
-16 0 -33 -4 -36 -10z"/>
<path d="M5645 3310 c3 -5 19 -10 35 -10 16 0 39 -4 52 -9 14 -5 68 -6 123 -1
l100 7 -117 2 c-65 0 -120 5 -123 11 -3 6 -22 10 -41 10 -21 0 -33 -4 -29 -10z"/>
<path d="M6240 3310 c0 -6 -45 -11 -112 -12 l-113 -1 80 -8 c76 -7 174 3 220
21 15 6 7 9 -27 9 -27 1 -48 -3 -48 -9z"/>
<path d="M5980 3279 c0 -5 5 -7 10 -4 6 3 10 8 10 11 0 2 -4 4 -10 4 -5 0 -10
-5 -10 -11z"/>
<path d="M7605 3051 c-15 -15 -217 -136 -253 -152 -18 -8 -32 -17 -32 -21 0
-5 -9 -8 -20 -8 -11 0 -20 -4 -20 -10 0 -5 -6 -10 -14 -10 -7 0 -40 -12 -72
-26 -76 -33 -95 -41 -116 -48 -19 -6 -25 -26 -8 -26 5 0 22 5 37 11 15 6 37
15 48 20 41 16 252 120 303 149 81 46 172 110 172 120 0 13 -13 13 -25 1z"/>
<path d="M4976 2941 c-3 -4 16 -19 42 -32 26 -13 49 -26 52 -29 8 -9 159 -82
174 -84 8 -1 21 -8 30 -15 9 -8 19 -11 23 -8 3 4 15 0 27 -8 26 -19 36 -19 36
0 0 8 -7 15 -15 15 -8 0 -23 4 -33 9 -37 20 -144 61 -158 61 -8 0 -14 5 -14
10 0 6 -9 10 -20 10 -11 0 -20 4 -20 9 0 5 -8 11 -17 14 -10 4 -37 17 -60 31
-23 14 -45 22 -47 17z"/>
<path d="M5370 2752 c0 -5 23 -15 51 -22 27 -8 52 -18 55 -22 3 -4 15 -8 26
-8 12 0 37 -5 55 -12 26 -9 36 -9 45 0 9 9 8 12 -7 12 -20 0 -80 17 -107 31
-10 5 -29 9 -43 9 -14 0 -25 5 -25 10 0 6 -11 10 -25 10 -14 0 -25 -4 -25 -8z"/>
<path d="M7005 2750 c-3 -5 -17 -10 -30 -10 -13 0 -27 -4 -30 -10 -3 -5 -17
-10 -30 -10 -13 0 -34 -4 -47 -9 -49 -20 -63 -24 -72 -22 -17 4 -66 -11 -66
-20 0 -12 67 -12 75 1 3 6 21 10 40 10 19 0 37 5 40 10 3 6 19 10 34 10 15 0
31 4 37 8 5 5 28 14 52 21 23 6 42 16 42 21 0 13 -37 13 -45 0z"/>
<path d="M5627 2684 c-12 -12 4 -24 34 -24 34 0 39 15 7 24 -29 7 -33 7 -41 0z"/>
<path d="M5720 2660 c-13 -8 -13 -10 0 -14 56 -19 215 -30 465 -33 238 -3 311
0 409 14 66 10 120 23 120 28 1 16 -50 18 -76 3 -13 -7 -45 -14 -73 -15 -27
-1 -117 -7 -199 -14 -119 -10 -180 -10 -305 0 -86 7 -178 12 -204 12 -28 -1
-58 5 -70 14 -24 17 -45 19 -67 5z"/>
<path d="M5622 1613 c-19 -8 -4 -23 24 -23 13 0 32 -4 42 -10 27 -15 154 -43
192 -42 19 1 39 -3 45 -8 11 -9 37 -13 78 -11 36 1 25 21 -11 21 -15 0 -59 7
-97 16 -39 9 -83 17 -100 18 -16 1 -40 8 -52 14 -12 7 -28 9 -37 6 -8 -3 -25
1 -38 10 -24 17 -26 17 -46 9z"/>
<path d="M6050 1512 c0 -11 74 -24 105 -18 42 7 17 21 -42 24 -35 2 -63 -1
-63 -6z"/>
<path d="M7045 1511 c-3 -5 4 -13 16 -16 27 -9 109 3 109 16 0 12 -117 12
-125 0z"/>
<path d="M6206 1492 c-14 -23 514 -36 712 -18 124 12 120 29 -5 21 -133 -8
-486 -8 -604 0 -60 4 -99 3 -103 -3z"/>
<path d="M10576 633 c-6 -14 -5 -15 5 -6 7 7 10 15 7 18 -3 3 -9 -2 -12 -12z"/>
<path d="M340 560 c0 -5 5 -10 11 -10 5 0 7 5 4 10 -3 6 -8 10 -11 10 -2 0 -4
-4 -4 -10z"/>
<path d="M10465 500 c-3 -5 -1 -10 4 -10 6 0 11 5 11 10 0 6 -2 10 -4 10 -3 0
-8 -4 -11 -10z"/>
<path d="M10367 396 c-4 -10 -1 -13 8 -9 8 3 12 9 9 14 -7 12 -11 11 -17 -5z"/>
<path d="M536 318 c-10 -6 -28 -8 -41 -6 -13 3 -30 1 -37 -3 -8 -5 11 -9 48
-9 33 0 65 -5 72 -12 8 -8 15 -8 27 2 19 15 17 18 -22 29 -18 5 -37 5 -47 -1z"/>
<path d="M1070 285 c0 -25 5 -45 10 -45 6 0 10 20 10 45 0 25 -4 45 -10 45 -5
0 -10 -20 -10 -45z"/>
<path d="M1354 317 c-3 -9 -4 -28 -2 -44 3 -24 7 -28 33 -28 28 0 30 2 30 40
0 36 -3 40 -28 43 -17 2 -29 -2 -33 -11z m56 -26 c0 -16 -6 -31 -14 -34 -19
-8 -26 1 -26 35 0 21 5 28 20 28 15 0 20 -7 20 -29z"/>
<path d="M1514 305 c4 -14 2 -25 -4 -25 -5 0 -10 5 -10 11 0 5 -4 7 -10 4 -15
-10 -12 -25 8 -32 9 -4 20 -11 25 -17 9 -14 29 14 22 32 -3 8 -5 22 -5 33 0
11 -7 19 -16 19 -12 0 -15 -6 -10 -25z"/>
<path d="M1588 323 c14 -6 17 -63 2 -63 -5 0 -10 -4 -10 -10 0 -21 17 -8 33
25 23 48 22 55 -10 54 -16 0 -22 -3 -15 -6z"/>
<path d="M1650 310 c0 -13 10 -24 25 -30 16 -6 23 -14 19 -25 -3 -8 -1 -15 5
-15 17 0 13 50 -4 56 -12 5 -13 10 -4 20 9 11 6 14 -15 14 -19 0 -26 -5 -26
-20z"/>
<path d="M1793 303 c-20 -42 -17 -54 13 -47 17 4 29 2 35 -7 13 -22 23 -1 12
24 -6 12 -14 30 -17 40 -8 25 -29 21 -43 -10z"/>
<path d="M1928 288 c-5 -48 -4 -53 11 -43 13 8 15 85 2 85 -5 0 -11 -19 -13
-42z"/>
<path d="M400 310 c0 -5 10 -10 23 -10 18 0 19 2 7 10 -19 13 -30 13 -30 0z"/>
<path d="M1232 300 c-11 -19 -17 -50 -8 -50 2 0 12 -3 22 -7 14 -5 16 -2 12
20 -6 33 7 36 16 5 7 -22 7 -22 15 -3 6 13 4 26 -7 38 -20 22 -34 22 -50 -3z"/>
<path d="M700 296 c0 -30 13 -46 36 -46 32 0 31 16 -2 24 -21 6 -24 9 -14 21
10 12 9 15 -4 15 -9 0 -16 -6 -16 -14z"/>
<path d="M766 295 c-6 -17 9 -21 19 -5 10 17 25 1 25 -28 0 -19 3 -23 11 -15
20 20 2 63 -25 63 -13 0 -26 -7 -30 -15z"/>
<path d="M847 289 c-7 -24 1 -49 15 -49 5 0 7 9 3 20 -9 28 3 44 21 29 11 -9
14 -8 14 5 0 25 -46 21 -53 -5z"/>
<path d="M955 294 c-5 -12 -9 -15 -12 -6 -7 18 -23 15 -23 -6 0 -19 18 -42 32
-42 4 0 8 8 8 17 0 15 2 14 15 -3 13 -16 16 -17 25 -4 5 8 10 26 10 40 -1 22
-2 23 -11 7 -10 -17 -12 -17 -23 -1 -12 16 -13 16 -21 -2z"/>
<path d="M1110 277 c0 -23 4 -36 10 -32 13 8 13 35 0 55 -7 11 -10 5 -10 -23z"/>
<path d="M1151 273 l1 -38 9 33 c7 23 15 32 25 28 7 -3 14 -1 14 4 0 6 -11 10
-25 10 -22 0 -25 -4 -24 -37z"/>
<path d="M1880 263 c0 -13 5 -23 10 -23 13 0 13 11 0 30 -8 12 -10 11 -10 -7z"/>
<path d="M5430 141 c0 -87 4 -141 10 -141 6 0 10 51 10 134 0 79 -4 137 -10
141 -6 4 -10 -43 -10 -134z"/>
<path d="M880 250 c0 -5 5 -10 10 -10 6 0 10 5 10 10 0 6 -4 10 -10 10 -5 0
-10 -4 -10 -10z"/>
<path d="M10231 243 c-7 -8 -11 -16 -8 -19 2 -2 10 2 17 11 17 20 9 27 -9 8z"/>
<path d="M10122 138 c-7 -7 -12 -16 -12 -21 0 -5 7 -1 16 8 9 9 14 18 12 20
-2 3 -10 -1 -16 -7z"/>
<path d="M1657 70 c3 -11 7 -20 9 -20 2 0 4 9 4 20 0 11 -4 20 -9 20 -5 0 -7
-9 -4 -20z"/>
<path d="M1761 73 c-16 -17 -11 -25 8 -14 7 5 12 13 10 19 -2 6 -10 4 -18 -5z"/>
<path d="M1857 83 c-4 -3 -4 -17 0 -31 5 -21 3 -24 -11 -19 -9 4 -16 2 -16 -3
0 -6 7 -10 15 -10 8 0 15 -5 15 -11 0 -5 5 -7 10 -4 6 3 10 21 10 40 0 33 -11
51 -23 38z"/>
<path d="M1959 88 c-5 -18 -2 -78 4 -78 4 0 7 18 7 40 0 22 -2 40 -5 40 -3 0
-5 -1 -6 -2z"/>
<path d="M2062 78 c-7 -7 -12 -23 -12 -37 1 -24 2 -24 16 8 16 37 14 47 -4 29z"/>
<path d="M697 72 c-7 -11 4 -72 13 -72 5 0 6 9 3 20 -3 11 0 26 6 34 9 10 8
15 -3 19 -9 4 -17 3 -19 -1z"/>
<path d="M790 70 c0 -5 9 -14 20 -20 27 -14 25 -38 -2 -43 -21 -4 -20 -4 3 -6
30 -1 41 16 31 51 -7 22 -52 39 -52 18z"/>
<path d="M1343 45 c0 -22 2 -30 4 -17 2 12 2 30 0 40 -3 9 -5 -1 -4 -23z"/>
<path d="M1503 73 c-8 -3 -12 -20 -12 -41 1 -24 3 -29 6 -14 4 18 11 22 40 22
35 0 36 0 18 20 -18 20 -29 23 -52 13z"/>
<path d="M408 63 c7 -3 16 -2 19 1 4 3 -2 6 -13 5 -11 0 -14 -3 -6 -6z"/>
<path d="M468 63 c7 -3 16 -2 19 1 4 3 -2 6 -13 5 -11 0 -14 -3 -6 -6z"/>
<path d="M528 63 c7 -3 16 -2 19 1 4 3 -2 6 -13 5 -11 0 -14 -3 -6 -6z"/>
<path d="M588 63 c7 -3 16 -2 19 1 4 3 -2 6 -13 5 -11 0 -14 -3 -6 -6z"/>
<path d="M870 60 c0 -5 9 -14 20 -20 11 -6 17 -16 14 -25 -4 -8 -1 -15 5 -15
6 0 11 16 11 35 0 31 -3 35 -25 35 -14 0 -25 -4 -25 -10z"/>
<path d="M1078 63 c6 -2 18 -2 25 0 6 3 1 5 -13 5 -14 0 -19 -2 -12 -5z"/>
<path d="M1150 59 c0 -5 5 -7 10 -4 6 3 10 8 10 11 0 2 -4 4 -10 4 -5 0 -10
-5 -10 -11z"/>
<path d="M1410 60 c0 -6 8 -10 17 -8 12 2 19 -6 24 -27 6 -29 7 -29 8 8 1 33
-2 37 -24 37 -14 0 -25 -5 -25 -10z"/>
<path d="M1210 40 c0 -11 7 -20 15 -20 8 0 15 6 15 14 0 8 -7 16 -15 20 -10 4
-15 -1 -15 -14z"/>
<path d="M1056 41 c-4 -7 -5 -15 -2 -18 9 -9 19 4 14 18 -4 11 -6 11 -12 0z"/>
<path d="M1110 36 c0 -9 7 -16 16 -16 17 0 14 22 -4 28 -7 2 -12 -3 -12 -12z"/>
<path d="M2086 35 c-3 -8 -1 -15 4 -15 6 0 10 7 10 15 0 8 -2 15 -4 15 -2 0
-6 -7 -10 -15z"/>
<path d="M1656 24 c-3 -9 -12 -14 -21 -10 -8 3 -15 1 -15 -4 0 -16 40 -11 47
5 3 9 3 18 0 21 -2 3 -7 -3 -11 -12z"/>
<path d="M866 15 c4 -8 10 -15 15 -15 4 0 6 7 3 15 -4 8 -10 15 -15 15 -4 0
-6 -7 -3 -15z"/>
<path d="M1753 23 c9 -2 25 -2 35 0 9 3 1 5 -18 5 -19 0 -27 -2 -17 -5z"/>
<path d="M10000 15 c-7 -9 -8 -15 -2 -15 5 0 12 7 16 15 7 19 2 19 -14 0z"/>
<path d="M1920 10 c0 -5 5 -10 11 -10 5 0 7 5 4 10 -3 6 -8 10 -11 10 -2 0 -4
-4 -4 -10z"/>
<path d="M1088 3 c7 -3 16 -2 19 1 4 3 -2 6 -13 5 -11 0 -14 -3 -6 -6z"/>
<path d="M2158 3 c6 -2 18 -2 25 0 6 3 1 5 -13 5 -14 0 -19 -2 -12 -5z"/>
</g>
</svg>
