<?xml version="1.0" standalone="no"?>
<!DOCTYPE svg PUBLIC "-//W3C//DTD SVG 20010904//EN"
 "http://www.w3.org/TR/2001/REC-SVG-20010904/DTD/svg10.dtd">
<svg version="1.0" xmlns="http://www.w3.org/2000/svg"
 width="380px" height="400px" viewBox="0 0 1366.000000 768.000000"
 preserveAspectRatio="xMidYMid meet">

<g transform="translate(0.000000,768.000000) scale(0.100000,-0.100000)"
fill="#000000" stroke="none">
<path d="M0 3840 l0 -3840 6830 0 6830 0 0 2423 c0 2397 0 2422 -20 2455 -27
44 -35 43 -75 -13 -13 -19 -14 -17 -12 20 2 38 1 40 -30 43 -37 4 -40 9 -15
28 16 12 16 14 -3 28 -20 15 -20 15 1 16 47 0 51 54 7 102 -8 10 -13 24 -10
32 9 23 37 8 37 -20 0 -12 11 -36 24 -51 l24 -28 25 23 c18 17 27 20 32 12 4
-7 2 -16 -4 -20 -9 -5 -8 -10 4 -20 13 -11 15 -3 15 75 0 73 -2 86 -15 81 -8
-3 -15 -1 -15 4 0 5 -6 10 -14 12 -22 5 -1 48 24 48 20 0 20 0 20 1215 l0
1215 -6830 0 -6830 0 0 -3840z m140 3785 c0 -7 -7 -18 -15 -25 -22 -19 -48 5
-33 30 12 19 48 16 48 -5z m364 -76 c-3 -5 -10 -7 -15 -3 -5 3 -7 10 -3 15 3
5 10 7 15 3 5 -3 7 -10 3 -15z m1343 -5 c4 -10 -1 -22 -12 -30 -14 -11 -20
-11 -32 2 -12 12 -12 18 -3 29 16 20 39 19 47 -1z m1619 -25 c8 -14 -5 -47
-19 -45 -38 8 -46 18 -35 41 10 22 41 25 54 4z m4414 -15 c0 -17 -22 -14 -28
4 -2 7 3 12 12 12 9 0 16 -7 16 -16z m-7511 -33 c11 -7 9 -13 -8 -30 -20 -20
-23 -20 -37 -6 -27 27 11 58 45 36z m3921 -31 c0 -5 -4 -10 -10 -10 -5 0 -10
5 -10 10 0 6 5 10 10 10 6 0 10 -4 10 -10z m-3530 -4 c0 -11 -19 -15 -25 -6
-3 5 1 10 9 10 9 0 16 -2 16 -4z m-307 -88 c3 -10 9 -10 26 0 17 10 21 10 21
-2 0 -8 5 -16 11 -18 15 -5 21 -58 7 -58 -6 0 -8 -12 -4 -32 l6 -32 -23 23
-24 22 -16 -23 -16 -23 0 28 c-1 20 -6 27 -20 27 -15 0 -19 6 -17 28 2 16 10
28 20 30 12 3 15 10 11 23 -7 21 10 27 18 7z m-148 -98 c10 -16 -4 -48 -20
-46 -28 4 -40 24 -25 41 14 17 36 20 45 5z m4255 -51 c0 -12 -29 -24 -37 -16
-3 4 -3 13 0 21 6 16 37 11 37 -5z m-4009 -62 c-1 -12 -15 -9 -19 4 -3 6 1 10
8 8 6 -3 11 -8 11 -12z m4489 -72 c0 -8 -7 -15 -15 -15 -16 0 -20 12 -8 23 11
12 23 8 23 -8z m-740 -4 c0 -14 -18 -23 -30 -16 -6 4 -8 11 -5 16 8 12 35 12
35 0z m-3800 -5 c0 -3 -4 -8 -10 -11 -5 -3 -10 -1 -10 4 0 6 5 11 10 11 6 0
10 -2 10 -4z m300 -6 c0 -5 -4 -10 -10 -10 -5 0 -10 5 -10 10 0 6 5 10 10 10
6 0 10 -4 10 -10z m450 -70 c0 -5 -4 -10 -10 -10 -5 0 -10 5 -10 10 0 6 5 10
10 10 6 0 10 -4 10 -10z m-1100 -10 c0 -5 -4 -10 -10 -10 -5 0 -10 5 -10 10 0
6 5 10 10 10 6 0 10 -4 10 -10z m6320 -21 c0 -5 -4 -9 -10 -9 -5 0 -10 7 -10
16 0 8 5 12 10 9 6 -3 10 -10 10 -16z m-1170 7 c0 -3 -4 -8 -10 -11 -5 -3 -10
-1 -10 4 0 6 5 11 10 11 6 0 10 -2 10 -4z m-4790 -10 c0 -11 -19 -15 -25 -6
-3 5 1 10 9 10 9 0 16 -2 16 -4z m430 -26 c0 -5 -7 -10 -16 -10 -8 0 -12 5 -9
10 3 6 10 10 16 10 5 0 9 -4 9 -10z m4560 -10 c0 -13 -5 -18 -15 -14 -16 7
-19 17 -8 27 12 13 23 7 23 -13z m-2394 -55 c12 -10 13 -30 2 -41 -4 -3 -4
-13 0 -22 5 -14 3 -15 -9 -5 -12 10 -18 10 -27 1 -9 -9 -12 -8 -12 4 0 9 -6
18 -12 21 -10 3 -10 9 1 29 13 26 37 31 57 13z m3524 -40 c0 -8 -4 -15 -9 -15
-13 0 -22 16 -14 24 11 11 23 6 23 -9z m810 -30 c0 -8 -4 -15 -10 -15 -5 0
-10 7 -10 15 0 8 5 15 10 15 6 0 10 -7 10 -15z m-94 -22 c-10 -10 -19 5 -10
18 6 11 8 11 12 0 2 -7 1 -15 -2 -18z m235 -16 c-1 -12 -15 -9 -19 4 -3 6 1
10 8 8 6 -3 11 -8 11 -12z m-621 -23 c0 -16 -16 -19 -25 -4 -8 13 4 32 16 25
5 -4 9 -13 9 -21z m-135 6 c3 -5 1 -10 -4 -10 -6 0 -11 5 -11 10 0 6 2 10 4
10 3 0 8 -4 11 -10z m-957 -34 c-2 -13 -12 -22 -25 -24 -19 -3 -23 1 -23 21 0
14 6 27 13 30 22 7 38 -5 35 -27z m-4764 3 c-3 -5 -10 -7 -15 -3 -5 3 -7 10
-3 15 3 5 10 7 15 3 5 -3 7 -10 3 -15z m136 -15 c0 -8 -4 -12 -10 -9 -5 3 -10
10 -10 16 0 5 5 9 10 9 6 0 10 -7 10 -16z m6670 -4 c0 -5 -4 -10 -10 -10 -5 0
-10 5 -10 10 0 6 5 10 10 10 6 0 10 -4 10 -10z m-770 -15 c0 -8 -7 -15 -15
-15 -16 0 -20 12 -8 23 11 12 23 8 23 -8z m-5776 -26 c-3 -5 -10 -7 -15 -3 -5
3 -7 10 -3 15 3 5 10 7 15 3 5 -3 7 -10 3 -15z m-76 -81 c7 -7 12 -19 12 -27
0 -11 -4 -10 -20 4 -21 19 -26 35 -12 35 4 0 13 -5 20 -12z m6047 3 c7 -12
-12 -24 -25 -16 -11 7 -4 25 10 25 5 0 11 -4 15 -9z m-6165 -46 c0 -8 -7 -15
-15 -15 -8 0 -15 7 -15 15 0 8 7 15 15 15 8 0 15 -7 15 -15z m210 -11 c0 -8
-4 -12 -10 -9 -5 3 -10 10 -10 16 0 5 5 9 10 9 6 0 10 -7 10 -16z m4775 -4 c3
-5 4 -14 0 -20 -8 -13 -35 -1 -35 16 0 16 26 19 35 4z m215 -13 c0 -19 -10
-27 -25 -20 -17 6 -8 33 11 33 8 0 14 -6 14 -13z m-5200 -28 c0 -5 -7 -9 -15
-9 -15 0 -20 12 -9 23 8 8 24 -1 24 -14z m250 -4 c0 -8 -7 -15 -15 -15 -8 0
-15 7 -15 15 0 8 7 15 15 15 8 0 15 -7 15 -15z m6800 5 c0 -5 -4 -10 -10 -10
-5 0 -10 5 -10 10 0 6 5 10 10 10 6 0 10 -4 10 -10z m100 -10 c0 -5 -4 -10
-10 -10 -5 0 -10 5 -10 10 0 6 5 10 10 10 6 0 10 -4 10 -10z m-7650 -45 c0 -8
-4 -15 -10 -15 -5 0 -10 7 -10 15 0 8 5 15 10 15 6 0 10 -7 10 -15z m5856 -12
c15 15 32 -23 31 -66 -2 -40 -4 -44 -16 -32 -13 13 -17 12 -33 -2 -17 -15 -18
-15 -18 5 0 12 -6 25 -12 29 -18 11 -19 43 -2 43 8 0 14 10 14 21 0 18 2 19
15 9 9 -7 18 -10 21 -7z m1884 -13 c0 -5 -7 -10 -15 -10 -8 0 -15 5 -15 10 0
6 7 10 15 10 8 0 15 -4 15 -10z m-1104 -31 c1 -21 -3 -25 -18 -21 -24 6 -30
16 -22 37 10 25 39 14 40 -16z m79 11 c0 -8 -8 -16 -17 -18 -13 -2 -18 3 -18
18 0 15 5 20 18 18 9 -2 17 -10 17 -18z m-185 -15 c0 -8 -7 -15 -15 -15 -8 0
-15 7 -15 15 0 8 7 15 15 15 8 0 15 -7 15 -15z m-6345 -35 c-3 -5 -10 -10 -16
-10 -5 0 -9 5 -9 10 0 6 7 10 16 10 8 0 12 -4 9 -10z m2763 -43 c2 -11 -3 -17
-16 -17 -24 0 -32 8 -25 26 7 20 37 13 41 -9z m2306 2 c-3 -5 -10 -7 -15 -3
-5 3 -7 10 -3 15 3 5 10 7 15 3 5 -3 7 -10 3 -15z m-5524 -4 c0 -8 -4 -15 -10
-15 -5 0 -10 7 -10 15 0 8 5 15 10 15 6 0 10 -7 10 -15z m8390 5 c0 -5 -4 -10
-10 -10 -5 0 -10 5 -10 10 0 6 5 10 10 10 6 0 10 -4 10 -10z m-2800 -40 c0 -5
-2 -10 -4 -10 -3 0 -8 5 -11 10 -3 6 -1 10 4 10 6 0 11 -4 11 -10z m-1136 -8
c8 -13 -11 -35 -23 -28 -16 10 -14 36 3 36 8 0 17 -4 20 -8z m2446 -7 c0 -8
-7 -15 -15 -15 -8 0 -15 7 -15 15 0 8 7 15 15 15 8 0 15 -7 15 -15z m-830 1
c0 -3 -4 -8 -10 -11 -5 -3 -10 -1 -10 4 0 6 5 11 10 11 6 0 10 -2 10 -4z
m1038 -47 c-2 -6 -8 -10 -13 -10 -5 0 -11 4 -13 10 -2 6 4 11 13 11 9 0 15 -5
13 -11z m42 -39 c0 -5 -7 -10 -15 -10 -8 0 -15 5 -15 10 0 6 7 10 15 10 8 0
15 -4 15 -10z m-880 -20 c0 -5 -7 -10 -15 -10 -8 0 -15 5 -15 10 0 6 7 10 15
10 8 0 15 -4 15 -10z m-4899 -18 c22 7 42 -19 31 -39 -6 -10 -7 -27 -1 -42 l9
-26 -19 24 c-18 23 -19 23 -29 5 -11 -18 -11 -17 -12 5 0 15 -5 21 -13 18 -8
-3 -13 3 -13 14 0 11 6 19 14 19 9 0 11 7 7 23 -4 15 -4 18 3 8 5 -7 16 -11
23 -9z m7010 -35 c-1 -12 -15 -9 -19 4 -3 6 1 10 8 8 6 -3 11 -8 11 -12z
m-1821 -32 c0 -8 -4 -15 -9 -15 -13 0 -22 16 -14 24 11 11 23 6 23 -9z m-5889
-38 c-13 -13 -26 -3 -16 12 3 6 11 8 17 5 6 -4 6 -10 -1 -17z m4779 -12 c0 -8
-7 -15 -15 -15 -16 0 -20 12 -8 23 11 12 23 8 23 -8z m1820 -20 c0 -8 -4 -15
-9 -15 -13 0 -22 16 -14 24 11 11 23 6 23 -9z m-2170 -24 c0 -6 -4 -13 -10
-16 -5 -3 -10 1 -10 9 0 9 5 16 10 16 6 0 10 -4 10 -9z m1100 -6 c0 -8 -4 -15
-10 -15 -5 0 -10 7 -10 15 0 8 5 15 10 15 6 0 10 -7 10 -15z m-1040 -15 c0 -5
-4 -10 -10 -10 -5 0 -10 5 -10 10 0 6 5 10 10 10 6 0 10 -4 10 -10z m-410 -20
c0 -5 -4 -10 -10 -10 -5 0 -10 5 -10 10 0 6 5 10 10 10 6 0 10 -4 10 -10z
m1860 -36 c0 -17 -22 -14 -28 4 -2 7 3 12 12 12 9 0 16 -7 16 -16z m1640 6 c0
-5 -5 -10 -11 -10 -5 0 -7 5 -4 10 3 6 8 10 11 10 2 0 4 -4 4 -10z m-7020 -15
c5 3 16 0 23 -7 15 -16 18 -48 5 -48 -6 0 -8 -6 -5 -12 19 -47 19 -53 -2 -28
l-21 25 -20 -25 -20 -25 10 28 c9 25 6 31 -12 28 -4 0 -6 8 -5 19 1 11 5 20
10 20 5 0 7 9 4 21 -4 16 -3 18 8 9 8 -7 19 -9 25 -5z m5039 -9 c9 -11 9 -16
0 -21 -10 -7 -28 10 -29 28 0 12 17 8 29 -7z m-367 -60 c5 -6 5 -23 2 -38 -3
-17 -1 -28 5 -28 6 0 11 -9 11 -21 0 -11 -4 -17 -10 -14 -5 3 -10 1 -10 -5 0
-6 10 -15 23 -20 20 -8 19 -9 -10 -9 -43 -1 -42 -14 2 -102 40 -81 32 -85 -13
-6 -58 100 -57 100 -86 35 -14 -32 -28 -58 -30 -58 -2 0 2 23 9 52 8 28 12 55
9 60 -3 5 -20 7 -37 3 -32 -5 -32 -5 -9 11 25 19 29 34 8 34 -8 0 -18 5 -22
12 -5 7 0 9 14 6 27 -8 43 11 35 43 -5 20 -4 22 8 12 19 -15 36 -5 44 28 5 21
11 26 28 21 12 -3 25 -10 29 -16z m-722 -26 c0 -5 -4 -10 -10 -10 -5 0 -10 5
-10 10 0 6 5 10 10 10 6 0 10 -4 10 -10z m2206 -27 c-10 -10 -19 5 -10 18 6
11 8 11 12 0 2 -7 1 -15 -2 -18z m-4581 -3 c8 -12 -6 -40 -19 -40 -22 0 -35
16 -30 37 4 15 11 19 25 16 11 -3 22 -9 24 -13z m-1525 -40 c0 -5 -2 -10 -4
-10 -3 0 -8 5 -11 10 -3 6 -1 10 4 10 6 0 11 -4 11 -10z m3860 -10 c0 -5 -4
-10 -10 -10 -5 0 -10 5 -10 10 0 6 5 10 10 10 6 0 10 -4 10 -10z m-5278 -45
c0 -5 -5 -11 -11 -13 -6 -2 -11 4 -11 13 0 9 5 15 11 13 6 -2 11 -8 11 -13z
m6463 6 c7 -12 -12 -24 -25 -16 -11 7 -4 25 10 25 5 0 11 -4 15 -9z m-3360
-11 c11 -18 -6 -50 -25 -50 -24 0 -33 15 -25 40 7 21 39 27 50 10z m3435 -20
c0 -5 -2 -10 -4 -10 -3 0 -8 5 -11 10 -3 6 -1 10 4 10 6 0 11 -4 11 -10z
m-202 -23 c2 -12 -3 -17 -17 -17 -12 0 -21 6 -21 13 0 31 32 34 38 4z m-832
-18 c9 -15 -11 -33 -30 -26 -9 4 -13 13 -10 22 7 17 30 20 40 4z m-3603 -61
c6 -19 -3 -38 -18 -38 -18 0 -28 17 -21 35 7 18 33 20 39 3z m3667 -8 c0 -5
-4 -10 -10 -10 -5 0 -10 5 -10 10 0 6 5 10 10 10 6 0 10 -4 10 -10z m93 -32
c-5 -24 -7 -26 -29 -16 -13 6 -24 14 -24 17 1 21 39 44 52 32 3 -3 4 -18 1
-33z m1847 26 c0 -17 -22 -14 -28 4 -2 7 3 12 12 12 9 0 16 -7 16 -16z m2190
-14 c13 -20 13 -60 -1 -60 -6 0 -8 -9 -3 -22 6 -21 5 -21 -10 -9 -14 12 -18
12 -30 -4 -9 -13 -15 -15 -20 -7 -4 7 -4 17 -1 22 3 6 0 10 -8 10 -9 0 -14 10
-14 25 0 14 3 25 8 25 5 0 9 8 9 18 0 22 56 24 70 2z m-1060 0 c0 -5 -4 -10
-10 -10 -5 0 -10 5 -10 10 0 6 5 10 10 10 6 0 10 -4 10 -10z m-3280 -46 c0
-14 -21 -19 -33 -7 -9 9 13 34 24 27 5 -3 9 -12 9 -20z m670 -25 c0 -11 4 -18
9 -15 5 3 14 -1 21 -9 10 -12 9 -15 -4 -15 -12 0 -16 -5 -11 -19 6 -21 -20
-37 -31 -19 -4 7 -3 8 4 4 7 -4 12 -3 12 3 0 17 -12 41 -21 41 -4 0 -6 -6 -3
-14 4 -9 -3 -13 -20 -13 -14 0 -26 3 -26 8 0 5 7 9 15 9 8 0 15 5 15 11 0 5
-4 8 -10 4 -11 -7 -50 16 -50 29 0 4 6 3 14 -3 17 -14 32 3 28 31 -3 16 -1 16
27 2 19 -10 31 -23 31 -35z m-3678 -19 c2 -7 26 -16 52 -21 51 -9 76 0 76 27
0 8 5 14 10 14 6 0 10 9 10 20 0 24 15 26 24 4 4 -9 9 -14 12 -11 12 12 35
-23 29 -43 -6 -19 10 -61 23 -59 23 3 52 -16 52 -33 0 -24 37 -88 51 -88 5 0
17 16 26 35 9 19 21 35 26 35 5 0 5 -6 -1 -13 -6 -7 -12 -26 -14 -42 -3 -28
-1 -30 27 -27 29 3 29 3 11 -17 -17 -19 -17 -20 11 -36 l28 -16 -32 6 c-17 4
-34 2 -37 -4 -9 -14 25 -81 41 -81 7 0 12 -10 12 -22 -1 -13 2 -32 6 -43 14
-37 -38 27 -64 78 -22 43 -39 59 -42 40 -7 -45 -6 -63 2 -58 21 14 7 -15 -26
-51 -38 -41 -44 -68 -19 -78 9 -3 14 -13 10 -21 -3 -8 -1 -17 4 -20 5 -3 7
-12 3 -20 -3 -9 2 -26 11 -40 9 -13 16 -29 16 -35 0 -20 -26 -10 -43 18 l-17
27 6 -32 c4 -22 3 -33 -5 -33 -6 0 -11 -9 -11 -21 0 -19 -1 -19 -16 -5 -21 21
-27 20 -19 -4 4 -12 1 -28 -6 -36 -10 -12 -9 -16 9 -21 17 -4 20 -10 15 -34
-4 -22 -2 -29 11 -29 17 0 56 34 56 50 0 6 8 6 23 -1 17 -8 23 -19 23 -44 0
-28 -3 -32 -14 -23 -10 9 -16 8 -23 -3 -7 -11 -9 -11 -9 4 0 9 -7 17 -15 17
-8 0 -15 -4 -15 -10 0 -5 -7 -10 -15 -10 -8 0 -15 -5 -15 -11 0 -5 4 -8 9 -4
16 9 21 -11 11 -46 -9 -31 -8 -32 5 -15 8 11 15 26 15 34 0 7 5 10 10 7 6 -3
10 -13 10 -21 0 -8 -4 -12 -10 -9 -5 3 -10 1 -10 -5 0 -10 40 -30 60 -30 6 0
5 11 -1 26 -13 36 -4 41 16 10 14 -21 20 -24 31 -15 11 9 14 8 14 -5 0 -12 5
-16 19 -11 14 4 20 0 23 -20 4 -17 1 -25 -8 -25 -8 0 -14 5 -14 12 0 9 -3 9
-12 0 -9 -9 -9 -15 0 -24 7 -7 12 -20 12 -30 0 -10 4 -18 9 -18 5 0 13 -9 16
-20 3 -11 13 -20 21 -20 16 0 19 26 4 35 -5 3 -10 14 -10 23 1 15 3 14 18 -4
9 -11 25 -31 34 -45 l17 -24 20 25 21 25 0 -27 c0 -23 4 -28 25 -28 25 0 33
-14 15 -25 -17 -11 -11 -23 15 -29 37 -10 30 -23 -10 -18 -19 2 -35 1 -35 -3
0 -13 43 -105 49 -105 3 0 7 -12 8 -27 l1 -28 -19 23 c-25 32 -89 41 -124 18
-24 -16 -25 -16 -25 9 0 15 -6 25 -14 25 -22 0 -28 -17 -16 -40 10 -18 9 -19
-14 -9 -14 7 -22 17 -19 25 3 8 1 14 -4 14 -6 0 -16 -19 -23 -42 -17 -56 -29
-68 -41 -45 -6 9 -16 17 -23 17 -7 0 -26 14 -44 31 -17 17 -35 28 -39 26 -5
-3 -17 1 -28 9 -18 14 -18 14 0 28 18 13 18 14 -4 21 -15 4 -26 3 -31 -4 -12
-21 -60 8 -60 36 0 17 -6 23 -21 23 -11 0 -17 5 -14 10 3 6 0 10 -8 10 -8 0
-22 12 -32 26 -13 20 -22 24 -38 19 -12 -3 -28 -7 -35 -7 -6 -1 -11 -8 -10
-16 2 -12 -8 -16 -39 -17 -23 -1 -45 -4 -49 -7 -14 -14 10 -28 49 -29 l42 -1
-33 -9 c-24 -7 -41 -6 -61 4 -26 13 -29 12 -41 -7 -9 -14 -15 -17 -17 -8 -5
14 -39 16 -48 2 -3 -5 2 -10 12 -10 12 0 14 -3 6 -8 -6 -4 -15 -19 -18 -35 -4
-15 -11 -24 -17 -21 -5 3 -16 -2 -23 -12 -14 -18 -14 -18 -15 2 0 15 -6 21
-17 20 -12 0 -17 5 -15 16 3 17 -30 34 -47 23 -5 -3 -7 -21 -4 -40 5 -31 4
-33 -16 -28 -12 3 -25 13 -30 22 -10 20 2 61 13 43 4 -7 12 -10 17 -6 6 3 3
11 -7 18 -14 11 -9 13 34 11 27 -2 56 -6 62 -10 7 -4 4 5 -6 21 -25 41 -27 42
-20 14 l7 -25 -23 26 c-13 14 -29 24 -35 22 -12 -4 -24 33 -16 53 3 8 15 14
27 13 41 -4 56 1 56 19 0 10 5 23 12 30 9 9 8 12 -5 12 -24 0 -21 17 4 23 16
4 19 11 14 26 -5 18 -2 21 20 21 15 0 24 4 20 10 -3 6 -1 10 5 10 7 0 10 6 7
14 -4 10 0 13 11 11 24 -5 69 -24 58 -24 -5 -1 3 -10 17 -21 29 -23 82 -27 90
-6 6 16 -21 59 -32 51 -5 -2 -11 14 -14 37 -3 24 -11 44 -16 46 -6 2 -11 11
-11 19 0 11 -6 14 -21 10 -12 -3 -19 -3 -16 -1 3 3 1 19 -3 36 -7 24 -6 29 5
24 8 -3 17 -1 20 4 4 6 -1 10 -10 10 -10 0 -15 7 -13 18 2 10 11 16 24 14 14
-2 20 4 21 17 1 14 -3 18 -13 14 -11 -4 -13 2 -9 29 6 36 -8 57 -38 62 -24 3
-47 32 -36 43 7 7 -3 24 -33 52 -24 23 -44 52 -45 64 0 12 -4 33 -9 46 -5 18
-4 23 7 19 8 -3 13 -12 11 -21 -2 -12 2 -15 14 -10 12 4 15 3 10 -5 -10 -16
-5 -15 44 7 40 18 41 20 21 30 -11 6 -32 9 -46 5 -19 -5 -25 -2 -25 10 0 9 5
16 11 16 6 0 9 7 6 15 -7 17 11 31 36 27 18 -3 34 10 55 47 11 19 11 26 -3 47
-8 13 -21 24 -28 24 -7 0 -4 7 7 15 11 8 16 21 13 30 -9 23 20 19 33 -5 14
-26 57 -27 65 -1 3 11 15 23 26 26 23 8 25 43 4 71 -8 10 -14 28 -14 39 0 18
2 17 23 -7 13 -15 26 -32 28 -38z m3553 50 c3 -5 1 -10 -4 -10 -6 0 -11 5 -11
10 0 6 2 10 4 10 3 0 8 -4 11 -10z m-5981 -21 c-3 -5 -10 -7 -15 -3 -5 3 -7
10 -3 15 3 5 10 7 15 3 5 -3 7 -10 3 -15z m6386 7 c0 -20 -19 -31 -32 -18 -6
6 -7 15 -4 21 10 16 36 13 36 -3z m1240 4 c0 -5 -7 -10 -15 -10 -8 0 -15 5
-15 10 0 6 7 10 15 10 8 0 15 -4 15 -10z m-695 -19 c7 -12 -12 -24 -25 -16
-11 7 -4 25 10 25 5 0 11 -4 15 -9z m-935 -41 c0 -5 -4 -10 -10 -10 -5 0 -10
5 -10 10 0 6 5 10 10 10 6 0 10 -4 10 -10z m2400 -10 c0 -5 -4 -10 -10 -10 -5
0 -10 5 -10 10 0 6 5 10 10 10 6 0 10 -4 10 -10z m-2601 -25 c11 6 13 0 15
-45 1 -19 -3 -26 -16 -26 -10 0 -18 4 -18 8 0 4 -7 8 -15 8 -13 0 -14 4 -5 20
6 12 8 31 5 43 -6 21 -5 21 9 3 8 -10 19 -15 25 -11z m2399 4 c-2 -6 -8 -10
-13 -10 -5 0 -11 4 -13 10 -2 6 4 11 13 11 9 0 15 -5 13 -11z m1471 -6 c8 -14
12 -15 25 -4 14 11 16 11 16 -3 0 -9 5 -16 10 -16 13 0 13 -37 -1 -45 -6 -4
-8 -14 -4 -22 4 -13 3 -14 -10 -3 -13 11 -18 10 -30 -6 -14 -18 -14 -18 -15 4
0 13 -6 22 -15 22 -19 0 -16 30 5 47 10 9 11 12 3 13 -15 0 -18 30 -3 30 5 0
13 -8 19 -17z m-3609 -3 c0 -5 -4 -10 -10 -10 -5 0 -10 5 -10 10 0 6 5 10 10
10 6 0 10 -4 10 -10z m140 -20 c0 -5 -4 -10 -10 -10 -5 0 -10 5 -10 10 0 6 5
10 10 10 6 0 10 -4 10 -10z m500 -15 c0 -8 -4 -15 -10 -15 -5 0 -10 7 -10 15
0 8 5 15 10 15 6 0 10 -7 10 -15z m6665 -30 c14 -15 17 -35 5 -35 -5 0 -10 -7
-10 -15 0 -9 -6 -12 -15 -9 -9 4 -18 -2 -25 -17 l-10 -24 3 25 c1 16 -3 25
-13 25 -16 1 -16 18 1 51 12 22 43 22 64 -1z m-13430 -15 c-3 -5 -10 -10 -16
-10 -5 0 -9 5 -9 10 0 6 7 10 16 10 8 0 12 -4 9 -10z m3647 -15 c0 -5 -5 -11
-11 -13 -6 -2 -11 4 -11 13 0 9 5 15 11 13 6 -2 11 -8 11 -13z m2656 -38 c3
-21 0 -25 -18 -20 -25 7 -32 17 -24 36 9 24 39 13 42 -16z m2817 13 c3 -5 1
-10 -4 -10 -6 0 -11 5 -11 10 0 6 2 10 4 10 3 0 8 -4 11 -10z m-5911 -74 c-7
-28 -28 -31 -51 -9 -18 16 -16 23 9 45 18 16 24 16 35 5 9 -9 12 -23 7 -41z
m3371 34 c0 -22 -29 -18 -33 3 -3 14 1 18 15 15 10 -2 18 -10 18 -18z m-148
-16 c3 -8 1 -20 -5 -26 -15 -15 -43 8 -35 28 7 19 32 18 40 -2z m433 -29 c0
-8 -4 -15 -9 -15 -13 0 -22 16 -14 24 11 11 23 6 23 -9z m760 -33 c0 -14 -11
-21 -26 -15 -8 3 -11 9 -8 14 7 11 34 12 34 1z m5858 -13 c-2 -6 -8 -10 -13
-10 -5 0 -11 4 -13 10 -2 6 4 11 13 11 9 0 15 -5 13 -11z m-5988 -9 c0 -5 -4
-10 -10 -10 -5 0 -10 5 -10 10 0 6 5 10 10 10 6 0 10 -4 10 -10z m-780 -56 c0
-17 -22 -14 -28 4 -2 7 3 12 12 12 9 0 16 -7 16 -16z m-2942 -41 c2 -25 -1
-31 -15 -29 -10 0 -24 9 -31 18 -11 15 -11 20 0 32 21 22 43 12 46 -21z m-868
-13 c0 -20 -23 -32 -44 -24 -10 4 -11 10 -3 28 13 27 47 24 47 -4z m-1844 -5
c6 -6 10 -27 10 -48 -1 -33 -3 -35 -14 -20 -11 16 -14 16 -22 3 -8 -13 -10
-12 -10 3 0 9 -6 17 -13 17 -8 0 -14 7 -14 15 0 8 4 15 9 15 4 0 8 6 8 14 0
16 29 16 46 1z m214 -50 c0 -18 -4 -22 -20 -18 -29 8 -36 24 -15 39 23 17 35
9 35 -21z m11836 -37 c1 -22 -3 -27 -19 -24 -30 4 -46 34 -27 46 25 16 45 7
46 -22z m-5411 12 c-3 -5 -10 -10 -16 -10 -5 0 -9 5 -9 10 0 6 7 10 16 10 8 0
12 -4 9 -10z m-5415 -40 c0 -5 -4 -10 -10 -10 -5 0 -10 5 -10 10 0 6 5 10 10
10 6 0 10 -4 10 -10z m5720 -28 c0 -13 -12 -22 -22 -16 -10 6 -1 24 13 24 5 0
9 -4 9 -8z m-780 -47 c0 -8 -6 -15 -14 -15 -17 0 -28 14 -19 24 12 12 33 6 33
-9z m-6562 -23 c2 -14 -2 -22 -12 -22 -19 0 -29 17 -22 36 8 22 30 12 34 -14z
m7065 -8 c9 -10 -4 -34 -18 -34 -17 0 -28 17 -20 30 7 11 28 13 38 4z m-5457
-30 c-4 -9 -9 -15 -11 -12 -3 3 -3 13 1 22 4 9 9 15 11 12 3 -3 3 -13 -1 -22z
m6974 11 c0 -8 -4 -15 -10 -15 -5 0 -10 7 -10 15 0 8 5 15 10 15 6 0 10 -7 10
-15z m-1796 -58 c-2 -7 -12 -17 -22 -24 -16 -9 -18 -7 -16 16 2 41 3 42 24 31
10 -6 17 -16 14 -23z m-6467 -13 c-9 -9 -28 6 -21 18 4 6 10 6 17 -1 6 -6 8
-13 4 -17z m698 -19 c1 -22 0 -32 -2 -22 -2 9 -13 17 -23 17 -10 0 -22 5 -25
10 -12 19 4 42 26 38 17 -2 22 -11 24 -43z m3995 27 c0 -13 -12 -22 -22 -16
-10 6 -1 24 13 24 5 0 9 -4 9 -8z m226 -69 c-10 -10 -19 5 -10 18 6 11 8 11
12 0 2 -7 1 -15 -2 -18z m-3606 -17 c0 -3 -4 -8 -10 -11 -5 -3 -10 -1 -10 4 0
6 5 11 10 11 6 0 10 -2 10 -4z m3590 -6 c0 -5 -4 -10 -10 -10 -5 0 -10 5 -10
10 0 6 5 10 10 10 6 0 10 -4 10 -10z m-3515 -10 c3 -6 -1 -13 -10 -16 -19 -8
-30 0 -20 15 8 14 22 14 30 1z m-1210 -20 c0 -7 -6 -15 -12 -17 -8 -3 -13 4
-13 17 0 13 5 20 13 18 6 -3 12 -11 12 -18z m4905 -10 c0 -5 -7 -10 -15 -10
-8 0 -15 5 -15 10 0 6 7 10 15 10 8 0 15 -4 15 -10z m-3674 -27 c-7 -7 -26 7
-26 19 0 6 6 6 15 -2 9 -7 13 -15 11 -17z m4809 -13 c-5 -8 -11 -8 -17 -2 -6
6 -7 16 -3 22 5 8 11 8 17 2 6 -6 7 -16 3 -22z m2101 -17 c-10 -10 -19 5 -10
18 6 11 8 11 12 0 2 -7 1 -15 -2 -18z m-3756 -73 c0 -5 -7 -10 -15 -10 -8 0
-15 5 -15 10 0 6 7 10 15 10 8 0 15 -4 15 -10z m-4506 -9 c9 -14 -4 -41 -19
-41 -18 0 -28 17 -21 35 6 17 32 20 40 6z m4130 -12 c-3 -5 -10 -7 -15 -3 -5
3 -7 10 -3 15 3 5 10 7 15 3 5 -3 7 -10 3 -15z m-1344 1 c0 -5 -4 -10 -10 -10
-5 0 -10 5 -10 10 0 6 5 10 10 10 6 0 10 -4 10 -10z m-2590 -26 c0 -16 -16
-19 -25 -4 -8 13 4 32 16 25 5 -4 9 -13 9 -21z m5678 3 c2 -10 -3 -17 -12 -17
-10 0 -16 9 -16 21 0 24 23 21 28 -4z m-4960 -25 c3 -23 -5 -27 -32 -16 -12 5
-13 10 -5 26 13 24 33 19 37 -10z m3432 8 c0 -5 -4 -10 -10 -10 -5 0 -10 5
-10 10 0 6 5 10 10 10 6 0 10 -4 10 -10z m2700 -25 c0 -8 -4 -15 -10 -15 -5 0
-10 7 -10 15 0 8 5 15 10 15 6 0 10 -7 10 -15z m-6322 -13 c9 9 12 8 12 -5 0
-9 6 -17 13 -17 7 0 13 -9 13 -20 0 -11 -4 -20 -9 -20 -5 0 -7 -15 -3 -32 6
-33 6 -33 -10 -10 -16 23 -17 23 -36 5 -20 -18 -20 -17 -14 5 6 18 3 22 -12
22 -22 0 -25 30 -4 43 8 5 10 17 6 30 -6 21 -6 21 13 5 15 -14 22 -15 31 -6z
m3322 -22 c0 -5 -7 -10 -16 -10 -8 0 -12 5 -9 10 3 6 10 10 16 10 5 0 9 -4 9
-10z m-2640 -10 c0 -5 -5 -10 -11 -10 -5 0 -7 5 -4 10 3 6 8 10 11 10 2 0 4
-4 4 -10z m80 -5 c0 -8 -7 -15 -15 -15 -8 0 -15 7 -15 15 0 8 7 15 15 15 8 0
15 -7 15 -15z m5150 -15 c0 -18 -3 -19 -20 -10 -22 12 -18 30 6 30 8 0 14 -9
14 -20z m-4130 -18 c-1 -20 -19 -34 -39 -27 -23 7 -27 25 -9 43 11 11 48 -1
48 -16z m-193 0 c4 2 16 -4 25 -12 12 -11 13 -21 6 -39 -5 -14 -6 -32 -3 -40
5 -13 3 -13 -11 1 -16 16 -18 16 -30 0 -13 -16 -13 -16 -14 1 0 11 -8 17 -21
17 -18 0 -19 2 -9 15 10 12 10 15 -1 15 -10 1 -9 4 4 14 9 7 17 21 17 31 0 14
3 15 14 6 8 -6 18 -10 23 -9z m2153 -2 c0 -5 -4 -10 -10 -10 -5 0 -10 5 -10
10 0 6 5 10 10 10 6 0 10 -4 10 -10z m-4275 -9 c7 -12 -12 -24 -25 -16 -11 7
-4 25 10 25 5 0 11 -4 15 -9z m4521 -18 c-10 -10 -19 5 -10 18 6 11 8 11 12 0
2 -7 1 -15 -2 -18z m-2569 11 c-3 -3 -12 -4 -19 -1 -8 3 -5 6 6 6 11 1 17 -2
13 -5z m4168 -43 c3 -35 19 -53 42 -44 15 6 17 -9 3 -23 -6 -6 -3 -10 11 -11
11 -1 36 -14 55 -28 19 -14 34 -22 34 -18 0 5 15 7 33 5 29 -3 35 -10 49 -47
12 -30 13 -46 5 -54 -7 -7 -2 -13 17 -21 38 -14 54 -13 65 7 5 10 12 15 16 11
4 -3 -5 -31 -19 -61 -18 -40 -31 -56 -50 -61 -31 -8 -34 -26 -6 -33 30 -8 25
-18 -25 -44 -37 -20 -43 -26 -30 -35 13 -10 12 -13 -4 -28 -10 -10 -17 -25
-14 -35 3 -12 -2 -20 -16 -24 -12 -3 -19 -11 -17 -19 2 -7 7 -26 11 -42 5 -26
4 -28 -9 -17 -8 7 -20 10 -26 6 -5 -3 -10 -1 -10 4 0 6 -6 11 -14 11 -20 0 -8
38 14 45 14 5 26 21 48 68 3 5 -5 4 -16 -2 -17 -9 -22 -8 -27 10 -5 15 -10 18
-15 10 -5 -9 -17 1 -37 28 -23 31 -32 38 -41 29 -9 -9 -12 -9 -12 2 0 17 -40
-23 -41 -42 0 -7 -5 0 -9 15 -5 16 -6 35 -3 43 3 8 -12 29 -34 50 -23 23 -33
39 -26 41 9 3 10 10 3 23 -7 13 -7 21 1 26 6 3 9 19 5 35 -3 15 -1 31 4 34 18
11 10 26 -9 20 -16 -5 -18 -2 -14 15 3 12 16 28 30 37 15 10 22 22 18 33 -3
10 -1 21 5 25 5 3 10 -1 10 -9 0 -10 9 -16 25 -16 28 0 33 23 11 52 -10 13
-15 15 -24 6 -9 -9 -12 -8 -12 5 0 9 -4 17 -10 17 -6 0 -5 9 1 24 17 36 51 21
54 -23z m-5341 4 c-22 -17 -34 -19 -34 -6 0 5 8 12 18 14 32 9 36 7 16 -8z
m603 -24 c10 9 13 7 13 -5 0 -13 5 -16 23 -11 22 7 22 7 2 -9 -11 -8 -15 -16
-10 -16 6 0 4 -4 -3 -8 -10 -7 -10 -16 -2 -38 l10 -29 -20 25 c-17 21 -21 23
-30 10 -8 -13 -10 -12 -10 3 0 9 -7 17 -15 17 -13 0 -14 4 -3 23 7 12 11 29 9
37 -2 12 0 12 10 3 9 -9 16 -10 26 -2z m3319 -28 c-10 -10 -19 5 -10 18 6 11
8 11 12 0 2 -7 1 -15 -2 -18z m2336 12 c0 -5 -5 -11 -11 -13 -6 -2 -11 4 -11
13 0 9 5 15 11 13 6 -2 11 -8 11 -13z m-3002 -15 c0 -5 -4 -10 -10 -10 -5 0
-10 5 -10 10 0 6 5 10 10 10 6 0 10 -4 10 -10z m120 -18 c0 -13 -12 -22 -22
-16 -10 6 -1 24 13 24 5 0 9 -4 9 -8z m2112 -17 c0 -5 -5 -11 -11 -13 -6 -2
-11 4 -11 13 0 9 5 15 11 13 6 -2 11 -8 11 -13z m-2302 -11 c0 -8 -4 -12 -10
-9 -5 3 -10 10 -10 16 0 5 5 9 10 9 6 0 10 -7 10 -16z m1958 -2 c2 -7 -3 -12
-12 -12 -9 0 -16 7 -16 16 0 17 22 14 28 -4z m476 -3 c-31 -12 -39 -10 -19 5
11 8 24 12 29 8 5 -3 1 -9 -10 -13z m1076 11 c0 -5 -4 -10 -10 -10 -5 0 -10 5
-10 10 0 6 5 10 10 10 6 0 10 -4 10 -10z m-1130 -10 c0 -5 -9 -10 -21 -10 -11
0 -17 5 -14 10 3 6 13 10 21 10 8 0 14 -4 14 -10z m148 -37 c2 -24 -1 -31 -14
-29 -11 0 -20 -9 -25 -24 -6 -23 -7 -23 -8 8 -1 17 -5 32 -11 32 -17 0 -11 38
8 43 34 10 47 2 50 -30z m-4728 -23 c0 -6 -6 -10 -14 -10 -8 0 -16 -5 -18 -12
-6 -16 -38 -2 -38 17 0 8 7 15 15 15 8 0 15 5 15 10 0 7 6 7 20 0 11 -6 20
-15 20 -20z m4878 2 c-4 -19 -19 -24 -37 -13 -12 8 -12 12 -2 25 15 18 43 10
39 -12z m1342 -12 c0 -13 -19 -22 -30 -15 -14 9 0 34 16 28 8 -3 14 -9 14 -13z
m-3910 -30 c0 -5 -7 -10 -15 -10 -8 0 -15 5 -15 10 0 6 7 10 15 10 8 0 15 -4
15 -10z m-4782 -53 c3 -21 -1 -27 -17 -27 -25 0 -34 14 -26 39 9 28 39 19 43
-12z m2612 8 c0 -8 -4 -15 -9 -15 -13 0 -22 16 -14 24 11 11 23 6 23 -9z
m1944 -6 c-3 -5 -10 -7 -15 -3 -5 3 -7 10 -3 15 3 5 10 7 15 3 5 -3 7 -10 3
-15z m2641 -8 c3 -5 1 -12 -5 -16 -5 -3 -10 1 -10 9 0 18 6 21 15 7z m-1405
-32 c0 -5 -7 -9 -15 -9 -15 0 -20 12 -9 23 8 8 24 -1 24 -14z m1990 11 c0 -5
-7 -10 -15 -10 -8 0 -15 5 -15 10 0 6 7 10 15 10 8 0 15 -4 15 -10z m-60 -15
c0 -8 -4 -15 -9 -15 -13 0 -22 16 -14 24 11 11 23 6 23 -9z m-6225 -44 c6 8
11 6 19 -7 13 -24 14 -37 3 -45 -5 -4 -1 -21 8 -39 21 -42 12 -51 -11 -11 -10
17 -21 31 -24 31 -3 0 -11 -14 -18 -32 -15 -41 -25 -32 -12 11 9 32 8 33 -15
28 -28 -5 -34 7 -9 17 8 3 12 10 9 16 -3 5 -1 10 6 10 7 0 9 8 6 21 -5 20 -5
20 13 4 13 -12 20 -13 25 -4z m6895 -16 c0 -8 -7 -15 -15 -15 -8 0 -15 7 -15
15 0 8 7 15 15 15 8 0 15 -7 15 -15z m-2450 -16 c0 -5 -7 -9 -15 -9 -15 0 -20
12 -9 23 8 8 24 -1 24 -14z m-3075 -9 c-3 -5 -10 -10 -16 -10 -5 0 -9 5 -9 10
0 6 7 10 16 10 8 0 12 -4 9 -10z m225 -55 c0 -8 -4 -15 -10 -15 -5 0 -10 7
-10 15 0 8 5 15 10 15 6 0 10 -7 10 -15z m3780 -26 c0 -5 -7 -9 -15 -9 -9 0
-15 9 -15 21 0 18 2 19 15 9 8 -7 15 -16 15 -21z m-890 -35 c0 -21 -37 -37
-44 -19 -3 8 -3 21 0 29 7 17 44 9 44 -10z m360 -30 c0 -27 -21 -32 -39 -10
-16 20 -4 45 20 39 12 -3 19 -14 19 -29z m1550 26 c0 -5 -5 -10 -11 -10 -5 0
-7 5 -4 10 3 6 8 10 11 10 2 0 4 -4 4 -10z m-6246 -9 c9 -14 -4 -41 -19 -41
-18 0 -26 15 -19 34 7 17 29 21 38 7z m4837 -4 c-1 -12 -15 -9 -19 4 -3 6 1
10 8 8 6 -3 11 -8 11 -12z m149 -7 c0 -5 -7 -10 -16 -10 -8 0 -12 5 -9 10 3 6
10 10 16 10 5 0 9 -4 9 -10z m65 -10 c3 -5 1 -10 -4 -10 -6 0 -11 5 -11 10 0
6 2 10 4 10 3 0 8 -4 11 -10z m4555 -15 c0 -8 -7 -15 -15 -15 -8 0 -15 7 -15
15 0 8 7 15 15 15 8 0 15 -7 15 -15z m-5090 -115 c0 -22 -7 -25 -29 -11 -16
10 -6 31 15 31 8 0 14 -9 14 -20z m1333 -6 c9 -10 -4 -34 -18 -34 -17 0 -28
17 -20 30 7 11 28 13 38 4z m327 -58 c0 -11 -19 -15 -25 -6 -3 5 1 10 9 10 9
0 16 -2 16 -4z m-1062 -24 c16 -10 5 -42 -14 -42 -8 0 -14 4 -14 10 0 5 -6 7
-14 4 -8 -3 -17 -1 -21 5 -3 7 2 11 14 11 12 0 21 5 21 10 0 12 10 13 28 2z
m1658 -13 c9 -16 -12 -33 -31 -25 -14 5 -15 9 -5 21 15 18 26 19 36 4z m2983
-27 c31 -31 41 -61 25 -76 -8 -8 -14 -20 -14 -26 0 -7 -6 -8 -19 -1 -14 8 -22
7 -31 -4 -7 -8 -19 -15 -27 -15 -11 0 -11 4 -3 20 9 16 8 20 -5 20 -14 0 -20
12 -16 34 1 4 -4 14 -10 22 -9 11 -7 14 10 14 11 0 21 6 21 14 0 19 50 17 69
-2z m-4669 -32 c0 -5 -4 -10 -10 -10 -5 0 -10 5 -10 10 0 6 5 10 10 10 6 0 10
-4 10 -10z m4745 0 c3 -5 -1 -10 -10 -10 -9 0 -13 5 -10 10 3 6 8 10 10 10 2
0 7 -4 10 -10z m-10449 -51 c1 -17 -5 -25 -17 -26 -23 -2 -32 12 -24 36 8 28
40 20 41 -10z m6049 0 c1 -24 -1 -26 -22 -16 -34 15 -28 51 7 45 9 -2 15 -14
15 -29z m158 -25 c9 -10 -4 -34 -18 -34 -17 0 -28 17 -20 30 7 11 28 13 38 4z
m4604 -59 c7 -20 -2 -29 -21 -22 -9 4 -13 13 -10 22 8 19 23 19 31 0z m-4902
-25 c3 -5 1 -10 -4 -10 -6 0 -11 5 -11 10 0 6 2 10 4 10 3 0 8 -4 11 -10z
m4255 -40 c0 -5 -5 -10 -11 -10 -5 0 -7 5 -4 10 3 6 8 10 11 10 2 0 4 -4 4
-10z m-9962 -40 c-1 -16 -5 -27 -9 -24 -4 2 -10 -3 -13 -12 -8 -21 -19 -11
-22 19 -4 38 5 55 26 50 15 -4 20 -13 18 -33z m2252 -80 c0 -10 -6 -20 -13
-23 -22 -8 -40 8 -33 31 8 25 46 18 46 -8z m-2260 -10 c0 -5 -7 -10 -16 -10
-8 0 -12 5 -9 10 3 6 10 10 16 10 5 0 9 -4 9 -10z m62 -27 c16 -14 23 -15 39
-5 16 11 19 9 19 -8 0 -13 7 -20 19 -20 26 0 37 -18 17 -26 -22 -8 -20 -21 4
-27 11 -3 20 -10 20 -17 0 -7 -8 -9 -20 -5 -27 8 -35 -15 -21 -57 l11 -33 -33
39 -33 38 -12 -26 c-15 -33 -35 -35 -22 -2 11 30 5 36 -39 37 -33 0 -34 1 -12
10 22 9 23 11 7 27 -21 24 -20 31 3 25 21 -5 35 20 26 48 -8 24 3 24 27 2z
m-402 -64 c0 -23 -15 -32 -40 -24 -16 5 -17 10 -8 29 12 28 48 24 48 -5z
m2740 27 c0 -16 -14 -36 -25 -36 -17 0 -28 17 -20 30 6 10 45 15 45 6z m1040
-76 c0 -5 -2 -10 -4 -10 -3 0 -8 5 -11 10 -3 6 -1 10 4 10 6 0 11 -4 11 -10z
m1920 -29 c0 -5 -6 -13 -13 -19 -15 -13 -42 1 -33 17 8 13 46 15 46 2z m-1680
-25 c0 -3 -4 -8 -10 -11 -5 -3 -10 -1 -10 4 0 6 5 11 10 11 6 0 10 -2 10 -4z
m1770 -190 c0 -16 -14 -36 -25 -36 -17 0 -28 17 -20 30 6 10 45 15 45 6z
m4000 -11 c0 -8 -4 -15 -10 -15 -5 0 -10 7 -10 15 0 8 5 15 10 15 6 0 10 -7
10 -15z m-5210 -45 c0 -5 -4 -10 -10 -10 -5 0 -10 5 -10 10 0 6 5 10 10 10 6
0 10 -4 10 -10z m1512 -45 c0 -5 -5 -11 -11 -13 -6 -2 -11 4 -11 13 0 9 5 15
11 13 6 -2 11 -8 11 -13z m-1772 -75 c0 -5 -7 -10 -16 -10 -8 0 -12 5 -9 10 3
6 10 10 16 10 5 0 9 -4 9 -10z m1480 -8 c0 -13 -12 -22 -22 -16 -10 6 -1 24
13 24 5 0 9 -4 9 -8z m646 -13 c9 -15 -11 -33 -30 -26 -9 4 -13 13 -10 22 7
17 30 20 40 4z m-826 -8 c0 -6 -4 -13 -10 -16 -5 -3 -10 1 -10 9 0 9 5 16 10
16 6 0 10 -4 10 -9z m-115 -51 c-3 -5 -10 -10 -16 -10 -5 0 -9 5 -9 10 0 6 7
10 16 10 8 0 12 -4 9 -10z m-75 -50 c0 -5 -4 -10 -10 -10 -5 0 -10 5 -10 10 0
6 5 10 10 10 6 0 10 -4 10 -10z m1390 -15 c0 -8 -4 -15 -10 -15 -5 0 -10 7
-10 15 0 8 5 15 10 15 6 0 10 -7 10 -15z m-812 -6 c-2 -6 -8 -10 -13 -10 -5 0
-11 4 -13 10 -2 6 4 11 13 11 9 0 15 -5 13 -11z m-608 -57 c0 -13 -12 -22 -22
-16 -10 6 -1 24 13 24 5 0 9 -4 9 -8z m40 -46 c0 -11 -19 -15 -25 -6 -3 5 1
10 9 10 9 0 16 -2 16 -4z m360 -11 c0 -8 -4 -15 -10 -15 -5 0 -10 7 -10 15 0
8 5 15 10 15 6 0 10 -7 10 -15z m-6935 -15 c10 -16 -4 -48 -20 -46 -23 3 -36
21 -29 39 7 19 39 23 49 7z m8125 -25 c0 -8 -9 -15 -20 -15 -20 0 -26 11 -13
23 12 13 33 7 33 -8z m-2600 -5 c0 -5 -4 -10 -10 -10 -5 0 -10 5 -10 10 0 6 5
10 10 10 6 0 10 -4 10 -10z m1000 0 c0 -5 -4 -10 -10 -10 -5 0 -10 5 -10 10 0
6 5 10 10 10 6 0 10 -4 10 -10z m2270 -28 c0 -13 -12 -22 -22 -16 -10 6 -1 24
13 24 5 0 9 -4 9 -8z m-1630 -42 c0 -5 -7 -10 -16 -10 -8 0 -12 5 -9 10 3 6
10 10 16 10 5 0 9 -4 9 -10z m6055 -9 c3 -5 -2 -17 -12 -26 -15 -15 -17 -15
-25 -1 -5 9 -6 21 -3 26 8 13 32 13 40 1z m-5850 -91 c-3 -5 -10 -10 -16 -10
-5 0 -9 5 -9 10 0 6 7 10 16 10 8 0 12 -4 9 -10z m-775 -15 c0 -8 -6 -15 -14
-15 -17 0 -28 14 -19 24 12 12 33 6 33 -9z m-1090 -5 c0 -5 -5 -10 -11 -10 -5
0 -7 5 -4 10 3 6 8 10 11 10 2 0 4 -4 4 -10z m1260 -20 c0 -5 -4 -10 -10 -10
-5 0 -10 5 -10 10 0 6 5 10 10 10 6 0 10 -4 10 -10z m1944 -11 c-3 -5 -10 -7
-15 -3 -5 3 -7 10 -3 15 3 5 10 7 15 3 5 -3 7 -10 3 -15z m1099 6 c1 -5 -6
-11 -15 -13 -11 -2 -18 3 -18 13 0 17 30 18 33 0z m-2318 -66 c0 -24 -38 -16
-40 8 -1 17 2 20 19 13 12 -4 21 -14 21 -21z m1321 -6 c-10 -10 -19 5 -10 18
6 11 8 11 12 0 2 -7 1 -15 -2 -18z m-5185 -20 c16 -16 1 -59 -22 -59 -10 0
-19 4 -19 8 0 4 -7 8 -14 8 -12 0 -13 6 -5 28 10 29 38 37 60 15z m2914 -53
c-3 -5 -10 -10 -16 -10 -5 0 -9 5 -9 10 0 6 7 10 16 10 8 0 12 -4 9 -10z
m-915 -30 c0 -5 -5 -10 -11 -10 -5 0 -7 5 -4 10 3 6 8 10 11 10 2 0 4 -4 4
-10z m-5600 -31 c0 -5 -7 -9 -15 -9 -15 0 -20 12 -9 23 8 8 24 -1 24 -14z
m6490 11 c0 -5 -4 -10 -10 -10 -5 0 -10 5 -10 10 0 6 5 10 10 10 6 0 10 -4 10
-10z m280 -30 c0 -5 -5 -10 -11 -10 -5 0 -7 5 -4 10 3 6 8 10 11 10 2 0 4 -4
4 -10z m6290 -95 c0 -8 -7 -15 -15 -15 -8 0 -15 7 -15 15 0 8 7 15 15 15 8 0
15 -7 15 -15z m-12680 -24 c0 -12 -20 -25 -27 -18 -7 7 6 27 18 27 5 0 9 -4 9
-9z m6100 -11 c0 -5 -5 -10 -11 -10 -5 0 -7 5 -4 10 3 6 8 10 11 10 2 0 4 -4
4 -10z m-780 -14 c0 -3 -4 -8 -10 -11 -5 -3 -10 -1 -10 4 0 6 5 11 10 11 6 0
10 -2 10 -4z m1040 -26 c0 -11 -6 -20 -14 -20 -18 0 -29 16 -21 30 11 18 35
11 35 -10z m2390 -10 c0 -13 -7 -20 -20 -20 -22 0 -23 1 -14 24 9 23 34 20 34
-4z m-3635 -60 c-5 -8 -11 -8 -17 -2 -6 6 -7 16 -3 22 5 8 11 8 17 2 6 -6 7
-16 3 -22z m3195 -6 c0 -8 -5 -12 -10 -9 -6 4 -8 11 -5 16 9 14 15 11 15 -7z
m-2380 -24 c0 -5 -4 -10 -10 -10 -5 0 -10 5 -10 10 0 6 5 10 10 10 6 0 10 -4
10 -10z m-670 -20 c0 -5 -5 -10 -11 -10 -5 0 -7 5 -4 10 3 6 8 10 11 10 2 0 4
-4 4 -10z m1810 -26 c0 -2 -9 -4 -21 -4 -11 0 -18 4 -14 10 5 8 35 3 35 -6z
m240 6 c0 -5 -4 -10 -10 -10 -5 0 -10 5 -10 10 0 6 5 10 10 10 6 0 10 -4 10
-10z m-75 -87 c-25 -35 -27 -36 -21 -10 4 17 2 27 -5 27 -8 0 -7 6 3 18 9 9
13 23 10 31 -3 8 5 6 18 -6 l22 -21 -27 -39z m655 -3 c0 -5 -4 -10 -10 -10 -5
0 -10 5 -10 10 0 6 5 10 10 10 6 0 10 -4 10 -10z m-6930 -80 c0 -5 -7 -10 -15
-10 -8 0 -15 5 -15 10 0 6 7 10 15 10 8 0 15 -4 15 -10z m6705 -9 c3 -5 1 -12
-5 -16 -5 -3 -10 1 -10 9 0 18 6 21 15 7z m-375 -67 c0 -16 -16 -19 -25 -4 -8
13 4 32 16 25 5 -4 9 -13 9 -21z m320 6 c0 -5 -4 -10 -10 -10 -5 0 -10 5 -10
10 0 6 5 10 10 10 6 0 10 -4 10 -10z m-1600 -84 c0 -3 -4 -8 -10 -11 -5 -3
-10 -1 -10 4 0 6 5 11 10 11 6 0 10 -2 10 -4z m2155 -15 c3 -5 1 -12 -5 -16
-5 -3 -10 1 -10 9 0 18 6 21 15 7z m-225 -11 c0 -5 -4 -10 -10 -10 -5 0 -10 5
-10 10 0 6 5 10 10 10 6 0 10 -4 10 -10z m-6990 -10 c0 -5 -7 -10 -16 -10 -8
0 -12 5 -9 10 3 6 10 10 16 10 5 0 9 -4 9 -10z m5130 -40 c0 -5 -2 -10 -4 -10
-3 0 -8 5 -11 10 -3 6 -1 10 4 10 6 0 11 -4 11 -10z m900 -410 c0 -5 -4 -10
-10 -10 -5 0 -10 5 -10 10 0 6 5 10 10 10 6 0 10 -4 10 -10z m2280 -70 c0 -5
-5 -10 -11 -10 -5 0 -7 5 -4 10 3 6 8 10 11 10 2 0 4 -4 4 -10z m-7720 -35 c0
-8 -7 -15 -15 -15 -8 0 -15 7 -15 15 0 8 7 15 15 15 8 0 15 -7 15 -15z m-800
-30 c0 -8 -4 -15 -10 -15 -5 0 -10 7 -10 15 0 8 5 15 10 15 6 0 10 -7 10 -15z
m8108 -32 c5 -17 -26 -29 -40 -15 -6 6 -7 15 -3 22 9 14 37 9 43 -7z m512
-263 c0 -5 -4 -10 -10 -10 -5 0 -10 5 -10 10 0 6 5 10 10 10 6 0 10 -4 10 -10z
m-9300 -8 c0 -13 -12 -22 -22 -16 -10 6 -1 24 13 24 5 0 9 -4 9 -8z"/>
<path d="M2763 5345 c-3 -9 -3 -18 -1 -21 3 -3 8 4 11 16 6 23 -1 27 -10 5z"/>
<path d="M2784 5324 c-7 -26 7 -44 34 -44 16 0 15 30 -2 53 -18 23 -24 22 -32
-9z"/>
<path d="M2837 5243 c-24 -24 8 -63 52 -63 25 0 25 3 6 40 -14 28 -43 39 -58
23z"/>
<path d="M2813 5133 c-23 -4 -30 -17 -14 -27 10 -6 61 16 61 27 0 7 -9 7 -47
0z"/>
<path d="M2845 5085 c-22 -8 -41 -15 -42 -15 -12 -1 1 -32 18 -44 12 -8 19
-18 16 -23 -3 -5 -2 -15 3 -23 8 -12 12 -12 22 -2 10 10 10 14 0 21 -9 6 -8
12 8 26 11 10 20 14 20 9 1 -5 8 3 16 19 25 47 8 56 -61 32z"/>
<path d="M2703 4992 c-29 -25 -30 -29 -18 -53 8 -14 25 -30 39 -37 21 -10 26
-8 31 8 4 12 12 17 22 13 13 -5 15 -2 9 18 -4 13 -8 32 -9 42 -2 16 -23 36
-38 37 -3 0 -19 -12 -36 -28z"/>
<path d="M2408 4971 c-25 -5 -27 -8 -15 -30 6 -13 19 -27 27 -31 8 -4 25 -12
38 -19 18 -9 26 -9 36 1 15 15 10 38 -8 38 -7 0 -19 11 -26 25 -7 14 -16 24
-19 24 -3 -1 -18 -4 -33 -8z"/>
<path d="M2795 4950 c3 -5 8 -10 11 -10 2 0 4 5 4 10 0 6 -5 10 -11 10 -5 0
-7 -4 -4 -10z"/>
<path d="M2861 4744 c0 -11 3 -14 6 -6 3 7 2 16 -1 19 -3 4 -6 -2 -5 -13z"/>
<path d="M2810 4620 c0 -5 9 -24 20 -42 18 -29 20 -30 20 -10 0 12 -9 31 -20
42 -11 11 -20 16 -20 10z"/>
<path d="M2790 4576 c0 -2 7 -9 15 -16 13 -11 14 -10 9 4 -5 14 -24 23 -24 12z"/>
<path d="M3010 4396 c0 -9 5 -16 10 -16 6 0 10 4 10 9 0 6 -4 13 -10 16 -5 3
-10 -1 -10 -9z"/>
<path d="M2660 4355 c0 -8 8 -23 18 -32 9 -10 17 -24 17 -32 0 -20 21 -25 28
-8 6 15 -40 87 -55 87 -4 0 -8 -7 -8 -15z"/>
<path d="M2615 4330 c-3 -5 -2 -10 4 -10 5 0 13 5 16 10 3 6 2 10 -4 10 -5 0
-13 -4 -16 -10z"/>
<path d="M3099 4183 c-13 -16 -12 -17 4 -4 16 13 21 21 13 21 -2 0 -10 -8 -17
-17z"/>
<path d="M2966 4128 c3 -5 10 -6 15 -3 13 9 11 12 -6 12 -8 0 -12 -4 -9 -9z"/>
<path d="M7397 4020 c-4 -15 0 -20 14 -20 21 0 22 1 13 24 -8 22 -21 20 -27
-4z"/>
<path d="M7665 3970 c3 -5 11 -10 16 -10 6 0 7 5 4 10 -3 6 -11 10 -16 10 -6
0 -7 -4 -4 -10z"/>
<path d="M13645 4930 c-3 -5 -1 -18 4 -27 9 -16 10 -14 11 10 0 28 -5 34 -15
17z"/>
</g>
</svg>
